<svg xmlns="http://www.w3.org/2000/svg" width="288.91" height="123.75" viewBox="0 0 288.91 123.75"><rect y="2.39" width="120.85" height="120.85" rx="7.49" fill="#bf3d96"/><path d="M101.26,64.08V62.77a41.33,41.33,0,1,0-82.65,1.29v1.25h0a19,19,0,0,0,.11,2A41.4,41.4,0,0,0,48.4,103.67a12.28,12.28,0,0,0,23.79-.22A41.51,41.51,0,0,0,101.26,64.08ZM59.91,26.74A37.39,37.39,0,0,1,97.23,63c-.07,10-7.4,18.06-16.41,18.06-7.82,0-16.17-4.76-18-12.68v-.09c.43-2.67,4.34-6.58,7.48-9.72.68-.68,1.34-1.34,1.94-2a2.69,2.69,0,0,0,.61-3.12c-2-4.16-17.2-3.12-17.35-3.11-5,.5-7.5,1.66-8.1,3.66-.28,1-.17,2.45,1.83,4l8.64,9.72A17.21,17.21,0,0,1,41,81.42c-8.82,0-18.34-6.07-18.44-15.9V64.08A37.4,37.4,0,0,1,59.91,26.74ZM26.42,80.57A24,24,0,0,0,41,85.42a21.13,21.13,0,0,0,7-1.18V99.46A37.36,37.36,0,0,1,26.42,80.57Zm33.84,28.34a8.32,8.32,0,0,1-8.3-8.3V82.36a21.55,21.55,0,0,0,6.47-6V93a2,2,0,0,0,4,0V76.53a21.6,21.6,0,0,0,6.12,5.3v18.78A8.3,8.3,0,0,1,60.26,108.91Zm12.29-9.69V83.69a24.53,24.53,0,0,0,8.27,1.41,19.33,19.33,0,0,0,12.73-4.86A37.49,37.49,0,0,1,72.55,99.22Z" transform="translate(0 -4.86)" fill="#211d53"/><path d="M73.19,51.55a2,2,0,0,0,2-2,4.22,4.22,0,0,1,8.43,0,2,2,0,1,0,4,0,8.22,8.22,0,0,0-16.43,0A2,2,0,0,0,73.19,51.55Z" transform="translate(0 -4.86)" fill="#211d53"/><path d="M34.77,51.63a2,2,0,0,0,2-2,4.21,4.21,0,1,1,8.42,0,2,2,0,0,0,4,0,8.21,8.21,0,0,0-16.42,0A2,2,0,0,0,34.77,51.63Z" transform="translate(0 -4.86)" fill="#211d53"/><g style="isolation:isolate"><g style="isolation:isolate"><path d="M151,36.7a15.92,15.92,0,0,1-6.3-5.81,15.61,15.61,0,0,1-2.29-8.39,15.61,15.61,0,0,1,2.29-8.39A15.92,15.92,0,0,1,151,8.3a20.7,20.7,0,0,1,16.65-.65,15.28,15.28,0,0,1,5.72,4.14l-4.82,4.32a10.5,10.5,0,0,0-8.16-3.69,11.17,11.17,0,0,0-5.38,1.28,9.32,9.32,0,0,0-3.68,3.58,10.28,10.28,0,0,0-1.32,5.22,10.28,10.28,0,0,0,1.32,5.22,9.32,9.32,0,0,0,3.68,3.58,11.17,11.17,0,0,0,5.38,1.28,10.44,10.44,0,0,0,8.16-3.73l4.82,4.32a15,15,0,0,1-5.75,4.18A19.53,19.53,0,0,1,160,38.79,19.19,19.19,0,0,1,151,36.7Z" transform="translate(0 -4.86)" fill="#e9eaea"/></g><g style="isolation:isolate"><path d="M201.36,28.12H182.49a5.71,5.71,0,0,0,2.41,3.56,8.18,8.18,0,0,0,4.73,1.3,9.68,9.68,0,0,0,3.45-.56,8.3,8.3,0,0,0,2.81-1.77l3.85,4q-3.53,3.93-10.29,3.92A16.65,16.65,0,0,1,182,37a11.7,11.7,0,0,1-6.76-10.86A12.12,12.12,0,0,1,177,19.73a12,12,0,0,1,4.77-4.45,15.17,15.17,0,0,1,13.42-.07,11.39,11.39,0,0,1,4.66,4.39,12.82,12.82,0,0,1,1.69,6.63C201.5,26.33,201.45,27,201.36,28.12Zm-16.92-7.78a5.72,5.72,0,0,0-2,3.69h12.28a5.71,5.71,0,0,0-2-3.67A6.22,6.22,0,0,0,188.57,19,6.35,6.35,0,0,0,184.44,20.34Z" transform="translate(0 -4.86)" fill="#e9eaea"/><path d="M227.38,15.23a11.41,11.41,0,0,1,4.48,4.37,12.88,12.88,0,0,1,1.62,6.55,12.84,12.84,0,0,1-1.62,6.54,11.41,11.41,0,0,1-4.48,4.37,13,13,0,0,1-6.32,1.55q-5.15,0-7.84-3.15v2.79h-6.9V4.86h7.23V16.6a9.8,9.8,0,0,1,7.51-2.92A13,13,0,0,1,227.38,15.23Zm-3,15.8a6.68,6.68,0,0,0,1.79-4.88,6.71,6.71,0,0,0-1.79-4.89,6.64,6.64,0,0,0-9.13,0,6.7,6.7,0,0,0-1.78,4.89A6.68,6.68,0,0,0,215.24,31a6.64,6.64,0,0,0,9.13,0Z" transform="translate(0 -4.86)" fill="#e9eaea"/><path d="M263.42,14V38.25h-6.86V35.37a9.66,9.66,0,0,1-3.43,2.41,11.14,11.14,0,0,1-4.31.83A10.81,10.81,0,0,1,241,35.87q-2.86-2.74-2.87-8.15V14h7.23V26.69q0,5.85,5.05,5.85a5.5,5.5,0,0,0,4.17-1.65A6.79,6.79,0,0,0,256.19,26V14Z" transform="translate(0 -4.86)" fill="#e9eaea"/></g><g style="isolation:isolate"><path d="M166,53.15a11.17,11.17,0,0,1,4.89,4,11.61,11.61,0,0,1,0,12.13,10.86,10.86,0,0,1-4.89,4,18.72,18.72,0,0,1-7.49,1.37H152v8.69h-7.51V51.75h14A18.54,18.54,0,0,1,166,53.15Zm-2.76,14.06a5.54,5.54,0,0,0,0-8.1,8,8,0,0,0-5.15-1.42H152V68.62h6.11A8.1,8.1,0,0,0,163.26,67.21Z" transform="translate(0 -4.86)" fill="#e9eaea"/></g><g style="isolation:isolate"><path d="M201.69,73.12H182.82a5.73,5.73,0,0,0,2.41,3.56A8.18,8.18,0,0,0,190,78a9.68,9.68,0,0,0,3.45-.56,8.18,8.18,0,0,0,2.81-1.78l3.85,4.06q-3.52,3.9-10.29,3.91a16.65,16.65,0,0,1-7.47-1.6,11.7,11.7,0,0,1-6.76-10.87,12.11,12.11,0,0,1,1.74-6.41,12,12,0,0,1,4.77-4.45,15.17,15.17,0,0,1,13.42-.07,11.31,11.31,0,0,1,4.65,4.39,12.73,12.73,0,0,1,1.7,6.63C201.83,71.33,201.78,72,201.69,73.12Zm-16.92-7.78a5.72,5.72,0,0,0-2,3.69H195a5.71,5.71,0,0,0-2-3.67A6.22,6.22,0,0,0,188.9,64,6.35,6.35,0,0,0,184.77,65.34Z" transform="translate(0 -4.86)" fill="#e9eaea"/><path d="M222.73,82.08a7.59,7.59,0,0,1-2.62,1.15,13.82,13.82,0,0,1-3.27.38c-3,0-5.26-.73-6.88-2.21s-2.43-3.62-2.43-6.48V65h-3.85v-5.4h3.85V53.69h7.23v5.89H221V65h-6.21v9.85a3.26,3.26,0,0,0,.81,2.37,3.08,3.08,0,0,0,2.29.83,4.72,4.72,0,0,0,2.92-.9Z" transform="translate(0 -4.86)" fill="#e9eaea"/></g><g style="isolation:isolate"><path d="M174,128.25l0-18.9-9.54,15.57H161l-9.5-15.17v18.5h-7V96.75h6.21l12.14,19.58,12-19.58H181l.1,31.5Z" transform="translate(0 -4.86)" fill="#e9eaea"/><path d="M207.2,106.36q3.11,2.67,3.1,8.08v13.81h-6.76v-3q-2,3.38-7.61,3.38a12.29,12.29,0,0,1-5-.94,7.29,7.29,0,0,1-3.22-2.62,6.6,6.6,0,0,1-1.11-3.77,6.26,6.26,0,0,1,2.62-5.32c1.74-1.28,4.44-1.93,8.09-1.93h5.74a4.42,4.42,0,0,0-1.43-3.53,6.44,6.44,0,0,0-4.31-1.24,12.79,12.79,0,0,0-3.92.61,10.45,10.45,0,0,0-3.27,1.64l-2.6-4.9a16,16,0,0,1,4.9-2.16,22.49,22.49,0,0,1,5.86-.77Q204.09,103.68,207.2,106.36ZM201,123.05a4.55,4.55,0,0,0,2-2.45v-2.48h-5c-3,0-4.45.95-4.45,2.84a2.53,2.53,0,0,0,1.09,2.14,5.05,5.05,0,0,0,3,.78A6.36,6.36,0,0,0,201,123.05Z" transform="translate(0 -4.86)" fill="#e9eaea"/></g><g style="isolation:isolate"><path d="M232.92,127.08a7.59,7.59,0,0,1-2.62,1.15,13.8,13.8,0,0,1-3.26.38c-3,0-5.26-.73-6.89-2.21s-2.43-3.62-2.43-6.48V110h-3.85v-5.4h3.85V98.69H225v5.89h6.21V110H225v9.85a3.26,3.26,0,0,0,.81,2.37,3.09,3.09,0,0,0,2.3.83,4.76,4.76,0,0,0,2.92-.9Z" transform="translate(0 -4.86)" fill="#e9eaea"/></g><g style="isolation:isolate"><path d="M241.1,127a12.2,12.2,0,0,1-5-4.43,12.52,12.52,0,0,1,0-12.87,12.2,12.2,0,0,1,5-4.43,15.67,15.67,0,0,1,7.16-1.6,14.17,14.17,0,0,1,6.89,1.6,9.6,9.6,0,0,1,4.29,4.57l-5.61,2.92a6.16,6.16,0,0,0-5.61-3.33,6.43,6.43,0,0,0-4.68,1.8,7.4,7.4,0,0,0,0,9.81,6.43,6.43,0,0,0,4.68,1.8,6.1,6.1,0,0,0,5.61-3.33l5.61,3a9.82,9.82,0,0,1-4.29,4.5,14.06,14.06,0,0,1-6.89,1.62A15.67,15.67,0,0,1,241.1,127Z" transform="translate(0 -4.86)" fill="#e9eaea"/></g><g style="isolation:isolate"><path d="M286.06,106.38q2.85,2.7,2.85,8v13.86h-7.23V115.47a6.23,6.23,0,0,0-1.3-4.3,4.87,4.87,0,0,0-3.76-1.42,5.82,5.82,0,0,0-4.35,1.65,6.67,6.67,0,0,0-1.62,4.88v12h-7.23V94.86h7.23v11.7a9.64,9.64,0,0,1,3.47-2.14,13,13,0,0,1,4.45-.74A10.45,10.45,0,0,1,286.06,106.38Z" transform="translate(0 -4.86)" fill="#e9eaea"/></g></g></svg>