<svg xmlns="http://www.w3.org/2000/svg" viewBox="0 0 120.85 120.85"><defs><style>.cls-1{fill:#bf3d96;}.cls-2{fill:#211d53;}</style></defs><g id="Layer_2" data-name="Layer 2"><g id="Layer_2-2" data-name="Layer 2"><rect class="cls-1" width="120.85" height="120.85" rx="7.49"/><path class="cls-2" d="M101.26,56.83c0-.33,0-.65,0-1v-.19s0-.08,0-.12a41.33,41.33,0,0,0-82.65,1.29c0,.42,0,.83,0,1.25v.05a19.61,19.61,0,0,0,.11,2A41.39,41.39,0,0,0,48.39,96.53a12.28,12.28,0,0,0,23.79-.22A41.5,41.5,0,0,0,101.26,56.83ZM59.91,19.49a37.39,37.39,0,0,1,37.32,36.3c-.07,10-7.4,18.06-16.41,18.06-7.82,0-16.17-4.76-18-12.68v-.09c.43-2.67,4.34-6.58,7.48-9.72.68-.68,1.34-1.34,1.94-2a2.7,2.7,0,0,0,.61-3.12c-2-4.16-17.2-3.12-17.35-3.11-5,.43-7.49,1.54-8.06,3.6-.28,1-.17,2.45,1.83,4l8.64,9.72A17.22,17.22,0,0,1,41,74.17c-8.82,0-18.34-6.07-18.44-15.9,0-.48,0-1,0-1.44A37.39,37.39,0,0,1,59.91,19.49ZM26.42,73.31A23.92,23.92,0,0,0,41,78.17,21.12,21.12,0,0,0,48,77V92.21A37.36,37.36,0,0,1,26.42,73.31Zm33.84,28.35a8.31,8.31,0,0,1-8.3-8.3V75.11a21.57,21.57,0,0,0,6.47-6V85.79a2,2,0,0,0,4,0V69.28a21.63,21.63,0,0,0,6.12,5.3V93.36A8.3,8.3,0,0,1,60.26,101.66ZM72.55,92V76.44a24.67,24.67,0,0,0,8.27,1.41A19.31,19.31,0,0,0,93.55,73,37.48,37.48,0,0,1,72.55,92Z"/><path class="cls-2" d="M73.19,44.3a2,2,0,0,0,2-2,4.22,4.22,0,0,1,8.43,0,2,2,0,0,0,4,0,8.22,8.22,0,0,0-16.43,0A2,2,0,0,0,73.19,44.3Z"/><path class="cls-2" d="M34.77,44.38a2,2,0,0,0,2-2,4.21,4.21,0,0,1,8.42,0,2,2,0,0,0,4,0,8.21,8.21,0,0,0-16.42,0A2,2,0,0,0,34.77,44.38Z"/></g></g></svg>