<svg xmlns="http://www.w3.org/2000/svg" viewBox="0 0 242.01 78.75"><defs><style>.cls-1{fill:#e9eaea;}</style></defs><g id="Layer_2" data-name="Layer 2"><g id="Layer_2-2" data-name="Layer 2"><path class="cls-1" d="M8.58,31.84A16,16,0,0,1,2.29,26,15.61,15.61,0,0,1,0,17.64,15.61,15.61,0,0,1,2.29,9.25,16,16,0,0,1,8.58,3.44a19.2,19.2,0,0,1,9-2.09A19.38,19.38,0,0,1,25.2,2.79a15.24,15.24,0,0,1,5.71,4.14L26.1,11.25A10.48,10.48,0,0,0,18,7.56a11.09,11.09,0,0,0-5.36,1.28,9.25,9.25,0,0,0-3.68,3.58,10.28,10.28,0,0,0-1.32,5.22,10.28,10.28,0,0,0,1.32,5.22,9.25,9.25,0,0,0,3.68,3.58A11.09,11.09,0,0,0,18,27.72,10.42,10.42,0,0,0,26.1,24l4.81,4.32a14.89,14.89,0,0,1-5.74,4.18,19.5,19.5,0,0,1-7.63,1.44A19.12,19.12,0,0,1,8.58,31.84Z"/><path class="cls-1" d="M58.81,23.27H40a5.67,5.67,0,0,0,2.41,3.55,8.1,8.1,0,0,0,4.72,1.3,9.66,9.66,0,0,0,3.44-.56,8.17,8.17,0,0,0,2.8-1.77l3.84,4q-3.51,3.93-10.27,3.92a16.56,16.56,0,0,1-7.45-1.6,11.7,11.7,0,0,1-6.76-10.86,12,12,0,0,1,6.51-10.87,15.1,15.1,0,0,1,13.39-.07,11.25,11.25,0,0,1,4.65,4.39A12.73,12.73,0,0,1,59,21.38C59,21.47,58.91,22.1,58.81,23.27ZM41.92,15.48a5.67,5.67,0,0,0-2,3.69H52.15a5.8,5.8,0,0,0-2-3.67A6.2,6.2,0,0,0,46,14.13,6.34,6.34,0,0,0,41.92,15.48Z"/><path class="cls-1" d="M84.8,10.37a11.36,11.36,0,0,1,4.46,4.37,12.88,12.88,0,0,1,1.62,6.55,12.84,12.84,0,0,1-1.62,6.54A11.36,11.36,0,0,1,84.8,32.2a13.06,13.06,0,0,1-6.32,1.55q-5.13,0-7.82-3.15v2.79H63.77V0H71V11.75a9.76,9.76,0,0,1,7.5-2.93A13.06,13.06,0,0,1,84.8,10.37Zm-3,15.8a6.68,6.68,0,0,0,1.78-4.88,6.7,6.7,0,0,0-1.78-4.89,6.62,6.62,0,0,0-9.12,0,6.74,6.74,0,0,0-1.78,4.89,6.72,6.72,0,0,0,1.78,4.88,6.62,6.62,0,0,0,9.12,0Z"/><path class="cls-1" d="M120.77,9.18V33.39h-6.85V30.51a9.54,9.54,0,0,1-3.42,2.41,11.13,11.13,0,0,1-4.3.83A10.8,10.8,0,0,1,98.42,31q-2.86-2.75-2.87-8.15V9.18h7.22V21.83q0,5.85,5,5.85A5.49,5.49,0,0,0,112,26a6.79,6.79,0,0,0,1.57-4.88v-12Z"/><path class="cls-1" d="M23.53,48.28a11,11,0,0,1,4.88,4,10.83,10.83,0,0,1-4.88,16.09,18.58,18.58,0,0,1-7.47,1.38H9.53v8.68H2V46.89h14A18.41,18.41,0,0,1,23.53,48.28ZM20.78,62.35a5.54,5.54,0,0,0,0-8.1,8,8,0,0,0-5.14-1.42H9.53V63.76h6.11A8.09,8.09,0,0,0,20.78,62.35Z"/><path class="cls-1" d="M59.14,68.26H40.31a5.68,5.68,0,0,0,2.4,3.56,8.15,8.15,0,0,0,4.72,1.3,9.68,9.68,0,0,0,3.45-.56,8.4,8.4,0,0,0,2.8-1.78l3.84,4Q54,78.75,47.25,78.75a16.56,16.56,0,0,1-7.45-1.6A11.7,11.7,0,0,1,33,66.28a12.11,12.11,0,0,1,1.74-6.41,11.94,11.94,0,0,1,4.76-4.45,15.13,15.13,0,0,1,13.4-.07,11.37,11.37,0,0,1,4.65,4.39,12.82,12.82,0,0,1,1.69,6.63C59.28,66.46,59.23,67.09,59.14,68.26ZM42.25,60.48a5.72,5.72,0,0,0-2,3.69H52.48a5.8,5.8,0,0,0-2-3.67,6.22,6.22,0,0,0-4.07-1.37A6.32,6.32,0,0,0,42.25,60.48Z"/><path class="cls-1" d="M80.15,77.22a7.59,7.59,0,0,1-2.62,1.15,13.8,13.8,0,0,1-3.26.38,9.87,9.87,0,0,1-6.87-2.21Q65,74.35,65,70.06V60.12H61.13v-5.4H65v-5.9h7.22v5.9h6.2v5.4h-6.2V70A3.26,3.26,0,0,0,73,72.34a3.06,3.06,0,0,0,2.29.83,4.71,4.71,0,0,0,2.91-.9Z"/><path class="cls-1" d="M127.3,78.39l0-18.9-9.53,15.57h-3.38l-9.48-15.17v18.5h-7V46.89H104l12.13,19.57,11.94-19.57h6.15l.09,31.5Z"/><path class="cls-1" d="M160.43,56.5q3.1,2.67,3.1,8.07V78.39h-6.75v-3c-1.36,2.24-3.89,3.37-7.59,3.37a12.09,12.09,0,0,1-5-1A7.37,7.37,0,0,1,141,75.19a6.56,6.56,0,0,1-1.12-3.77,6.29,6.29,0,0,1,2.62-5.32q2.61-1.93,8.07-1.93h5.74a4.42,4.42,0,0,0-1.43-3.53,6.43,6.43,0,0,0-4.31-1.24,12.77,12.77,0,0,0-3.91.61,10.39,10.39,0,0,0-3.26,1.64l-2.59-4.91a16.07,16.07,0,0,1,4.88-2.16,22.48,22.48,0,0,1,5.86-.76Q157.32,53.82,160.43,56.5Zm-6.15,16.69a4.57,4.57,0,0,0,2-2.45V68.26h-4.95q-4.44,0-4.44,2.84A2.5,2.5,0,0,0,148,73.24a5,5,0,0,0,3,.78A6.41,6.41,0,0,0,154.28,73.19Z"/><path class="cls-1" d="M186.11,77.22a7.63,7.63,0,0,1-2.61,1.15,13.86,13.86,0,0,1-3.26.38q-4.45,0-6.88-2.21t-2.43-6.48V60.12h-3.84v-5.4h3.84v-5.9h7.22v5.9h6.2v5.4h-6.2V70a3.26,3.26,0,0,0,.81,2.37,3.08,3.08,0,0,0,2.29.83,4.74,4.74,0,0,0,2.92-.9Z"/><path class="cls-1" d="M194.28,77.15a12.17,12.17,0,0,1-4.95-4.43,12.52,12.52,0,0,1,0-12.87,12.17,12.17,0,0,1,4.95-4.43,15.6,15.6,0,0,1,7.15-1.6,14.12,14.12,0,0,1,6.87,1.6A9.51,9.51,0,0,1,212.58,60L207,62.91a6.14,6.14,0,0,0-5.6-3.33,6.42,6.42,0,0,0-4.67,1.8,6.53,6.53,0,0,0-1.85,4.9,6.55,6.55,0,0,0,1.85,4.91,6.42,6.42,0,0,0,4.67,1.8,6.07,6.07,0,0,0,5.6-3.33l5.6,3a9.75,9.75,0,0,1-4.28,4.5,14,14,0,0,1-6.87,1.62A15.6,15.6,0,0,1,194.28,77.15Z"/><path class="cls-1" d="M239.17,56.52q2.84,2.7,2.84,8V78.39h-7.22V65.61a6.23,6.23,0,0,0-1.29-4.3,4.86,4.86,0,0,0-3.75-1.42,5.82,5.82,0,0,0-4.35,1.65,6.67,6.67,0,0,0-1.62,4.88v12h-7.22V45h7.22V56.7a9.64,9.64,0,0,1,3.47-2.14,13,13,0,0,1,4.44-.74A10.42,10.42,0,0,1,239.17,56.52Z"/></g></g></svg>