<svg xmlns="http://www.w3.org/2000/svg" width="478.18" height="87.49" viewBox="0 0 478.18 87.49"><rect width="87.49" height="87.49" rx="7.49" fill="#bf3d96"/><path d="M347.18,389.89c0-.24,0-.48,0-.71V389s0-.06,0-.09a29.92,29.92,0,0,0-59.83.94c0,.3,0,.6,0,.9,0,0,0,0,0,0a12.12,12.12,0,0,0,.09,1.48,30,30,0,0,0,21.48,26.32,8.89,8.89,0,0,0,17.23-.16A30.06,30.06,0,0,0,347.18,389.89Zm-29.93-27a27.06,27.06,0,0,1,27,26.28c-.05,7.22-5.35,13.08-11.88,13.08-5.66,0-11.71-3.45-13.07-9.18V393c.32-1.94,3.14-4.77,5.41-7,.5-.5,1-1,1.41-1.43a2,2,0,0,0,.44-2.26c-1.43-3-12.45-2.26-12.56-2.25-3.62.31-5.42,1.12-5.83,2.6-.2.71-.12,1.78,1.33,2.9l6.25,7a12.46,12.46,0,0,1-12.19,9.91c-6.39,0-13.27-4.4-13.34-11.51,0-.35,0-.69,0-1A27.07,27.07,0,0,1,317.25,362.85Zm-24.25,39a17.34,17.34,0,0,0,10.58,3.52,15.36,15.36,0,0,0,5-.86v11A27,27,0,0,1,293,401.82Zm24.49,20.52a6,6,0,0,1-6-6V403.12a15.42,15.42,0,0,0,4.68-4.38v12.11a1.45,1.45,0,1,0,2.89,0v-12a15.84,15.84,0,0,0,4.44,3.84v13.59A6,6,0,0,1,317.49,422.34Zm8.91-7V404.08a17.8,17.8,0,0,0,6,1,14,14,0,0,0,9.22-3.52A27.16,27.16,0,0,1,326.4,415.33Z" transform="translate(-273.87 -348.74)" fill="#211d53"/><path d="M326.86,380.81a1.44,1.44,0,0,0,1.45-1.44,3.05,3.05,0,0,1,6.1,0,1.45,1.45,0,0,0,2.89,0,5.95,5.95,0,1,0-11.89,0A1.44,1.44,0,0,0,326.86,380.81Z" transform="translate(-273.87 -348.74)" fill="#211d53"/><path d="M299,380.88a1.45,1.45,0,0,0,1.45-1.45,3,3,0,1,1,6.1,0,1.45,1.45,0,1,0,2.89,0,5.95,5.95,0,1,0-11.89,0A1.45,1.45,0,0,0,299,380.88Z" transform="translate(-273.87 -348.74)" fill="#211d53"/><path d="M382.12,395.37a17,17,0,0,1-6.71-6.2,17.63,17.63,0,0,1,0-17.9,16.92,16.92,0,0,1,6.71-6.19,20.4,20.4,0,0,1,9.6-2.23,20.69,20.69,0,0,1,8.12,1.53,16.35,16.35,0,0,1,6.1,4.42l-5.13,4.6a11.19,11.19,0,0,0-8.69-3.93,11.73,11.73,0,0,0-5.73,1.37,9.91,9.91,0,0,0-3.92,3.81,11.71,11.71,0,0,0,0,11.14,9.91,9.91,0,0,0,3.92,3.81,11.73,11.73,0,0,0,5.73,1.37,11.11,11.11,0,0,0,8.69-4l5.13,4.61a16,16,0,0,1-6.12,4.46,20.91,20.91,0,0,1-8.15,1.54A20.4,20.4,0,0,1,382.12,395.37Z" transform="translate(-273.87 -348.74)" fill="#211d53"/><path d="M435.7,386.22H415.61a6.08,6.08,0,0,0,2.57,3.79,8.66,8.66,0,0,0,5,1.39,10.45,10.45,0,0,0,3.68-.59,9,9,0,0,0,3-1.9l4.1,4.32q-3.76,4.17-11,4.17a17.68,17.68,0,0,1-7.95-1.7,12.5,12.5,0,0,1-7.21-11.59,12.86,12.86,0,0,1,1.86-6.84,12.72,12.72,0,0,1,5.08-4.75,16.12,16.12,0,0,1,14.29-.08,12.16,12.16,0,0,1,5,4.68,13.71,13.71,0,0,1,1.8,7.09Q435.85,384.35,435.7,386.22Zm-18-8.3a6,6,0,0,0-2.17,3.93H428.6a6.17,6.17,0,0,0-2.18-3.91,6.62,6.62,0,0,0-4.34-1.46A6.74,6.74,0,0,0,417.69,377.92Z" transform="translate(-273.87 -348.74)" fill="#211d53"/><path d="M463.42,372.47a12.09,12.09,0,0,1,4.76,4.65,15,15,0,0,1,0,14,12.05,12.05,0,0,1-4.76,4.66,13.9,13.9,0,0,1-6.74,1.65c-3.65,0-6.43-1.11-8.34-3.36v3H441V361.4h7.7v12.53a10.41,10.41,0,0,1,8-3.12A13.9,13.9,0,0,1,463.42,372.47Zm-3.21,16.85a8.09,8.09,0,0,0,0-10.42,7.06,7.06,0,0,0-9.72,0,8.06,8.06,0,0,0,0,10.42,7.06,7.06,0,0,0,9.72,0Z" transform="translate(-273.87 -348.74)" fill="#211d53"/><path d="M501.79,371.2V397h-7.3V394a10.22,10.22,0,0,1-3.65,2.57,11.84,11.84,0,0,1-4.59.88,11.52,11.52,0,0,1-8.3-2.92q-3.06-2.93-3.06-8.69V371.2h7.7v13.49c0,4.16,1.8,6.23,5.38,6.23a5.87,5.87,0,0,0,4.45-1.75,7.28,7.28,0,0,0,1.67-5.21V371.2Z" transform="translate(-273.87 -348.74)" fill="#211d53"/><path d="M532.42,364.91a11.82,11.82,0,0,1,5.21,4.22,11.54,11.54,0,0,1-5.21,17.16,19.86,19.86,0,0,1-8,1.47h-7V397h-8v-33.6h15A19.68,19.68,0,0,1,532.42,364.91Zm-2.94,15a5.21,5.21,0,0,0,1.88-4.3,5.26,5.26,0,0,0-1.88-4.34,8.54,8.54,0,0,0-5.48-1.51h-6.51v11.66H524A8.54,8.54,0,0,0,529.48,379.91Z" transform="translate(-273.87 -348.74)" fill="#211d53"/><path d="M570.4,386.22H550.31a6,6,0,0,0,2.57,3.79,8.66,8.66,0,0,0,5,1.39,10.45,10.45,0,0,0,3.68-.59,9,9,0,0,0,3-1.9l4.09,4.32q-3.75,4.17-10.95,4.17a17.68,17.68,0,0,1-8-1.7,12.5,12.5,0,0,1-7.21-11.59,12.86,12.86,0,0,1,1.86-6.84,12.72,12.72,0,0,1,5.08-4.75,16.12,16.12,0,0,1,14.29-.08,12.16,12.16,0,0,1,5,4.68,13.71,13.71,0,0,1,1.8,7.09Q570.55,384.35,570.4,386.22Zm-18-8.3a6.09,6.09,0,0,0-2.18,3.93h13.08a6.12,6.12,0,0,0-2.17-3.91,6.62,6.62,0,0,0-4.34-1.46A6.74,6.74,0,0,0,552.39,377.92Z" transform="translate(-273.87 -348.74)" fill="#211d53"/><path d="M592.81,395.77A7.93,7.93,0,0,1,590,397a14.55,14.55,0,0,1-3.48.4q-4.74,0-7.33-2.35c-1.72-1.56-2.59-3.87-2.59-6.91V377.53h-4.1v-5.76h4.1v-6.29h7.7v6.29h6.62v5.76h-6.62V388a3.44,3.44,0,0,0,.87,2.52,3.21,3.21,0,0,0,2.44.89,5,5,0,0,0,3.11-1Z" transform="translate(-273.87 -348.74)" fill="#211d53"/><path d="M629.14,397l0-20.16-10.17,16.61h-3.6L605.2,377.29V397h-7.5v-33.6h6.61l12.93,20.88L630,363.42h6.56l.1,33.6Z" transform="translate(-273.87 -348.74)" fill="#211d53"/><path d="M664.48,373.67c2.2,1.9,3.31,4.77,3.31,8.62V397h-7.21v-3.21c-1.45,2.4-4.15,3.59-8.09,3.59a12.94,12.94,0,0,1-5.31-1,7.8,7.8,0,0,1-3.43-2.79,7.07,7.07,0,0,1-1.19-4,6.65,6.65,0,0,1,2.79-5.66q2.79-2.07,8.62-2.07h6.12a4.73,4.73,0,0,0-1.53-3.77,6.92,6.92,0,0,0-4.59-1.31,13.75,13.75,0,0,0-4.17.64,11.15,11.15,0,0,0-3.48,1.76l-2.77-5.24a16.93,16.93,0,0,1,5.21-2.3,24.06,24.06,0,0,1,6.24-.82Q661.18,370.81,664.48,373.67Zm-6.56,17.81a5,5,0,0,0,2.17-2.62v-2.64h-5.28q-4.74,0-4.74,3a2.62,2.62,0,0,0,1.16,2.27,5.24,5.24,0,0,0,3.18.85A6.91,6.91,0,0,0,657.92,391.48Z" transform="translate(-273.87 -348.74)" fill="#211d53"/><path d="M691.87,395.77a7.77,7.77,0,0,1-2.79,1.23,14.55,14.55,0,0,1-3.48.4c-3.15,0-5.6-.78-7.33-2.35s-2.59-3.87-2.59-6.91V377.53h-4.09v-5.76h4.09v-6.29h7.7v6.29H690v5.76h-6.62V388a3.44,3.44,0,0,0,.87,2.52,3.21,3.21,0,0,0,2.44.89,5,5,0,0,0,3.11-1Z" transform="translate(-273.87 -348.74)" fill="#211d53"/><path d="M700.58,395.7A13,13,0,0,1,695.3,391a13.33,13.33,0,0,1,0-13.72,13,13,0,0,1,5.28-4.73,16.69,16.69,0,0,1,7.63-1.71,15.06,15.06,0,0,1,7.33,1.71,10.23,10.23,0,0,1,4.57,4.87l-6,3.12a6.54,6.54,0,0,0-6-3.55,6.83,6.83,0,0,0-5,1.92,7.9,7.9,0,0,0,0,10.46,6.83,6.83,0,0,0,5,1.92,6.47,6.47,0,0,0,6-3.55l6,3.17a10.49,10.49,0,0,1-4.57,4.8,15,15,0,0,1-7.33,1.72A16.69,16.69,0,0,1,700.58,395.7Z" transform="translate(-273.87 -348.74)" fill="#211d53"/><path d="M748.46,373.69q3,2.88,3,8.55V397h-7.7V383.39a6.58,6.58,0,0,0-1.38-4.58,5.16,5.16,0,0,0-4-1.52,6.25,6.25,0,0,0-4.64,1.75,7.15,7.15,0,0,0-1.73,5.21V397h-7.7V361.4h7.7v12.48a10.31,10.31,0,0,1,3.7-2.28,14,14,0,0,1,4.74-.79A11.1,11.1,0,0,1,748.46,373.69Z" transform="translate(-273.87 -348.74)" fill="#211d53"/><path d="M390.9,429a.83.83,0,0,1-1.59.31l-1.41-3.4h-8.13l-1.4,3.4a.72.72,0,0,1-.76.5.75.75,0,0,1-.58-.24.8.8,0,0,1-.22-.57,1,1,0,0,1,.06-.36l6.18-14.66a.81.81,0,0,1,.8-.57.77.77,0,0,1,.77.57l6.2,14.68A.74.74,0,0,1,390.9,429Zm-10.54-4.5h7L383.85,416Z" transform="translate(-273.87 -348.74)" fill="#848484"/><path d="M407.28,419.08V424a5.9,5.9,0,0,1-.76,3,5.67,5.67,0,0,1-2.1,2.11,6.13,6.13,0,0,1-5.95,0,5.53,5.53,0,0,1-2.1-2.11,6.28,6.28,0,0,1,0-5.95,5.67,5.67,0,0,1,7.43-2.29,5.2,5.2,0,0,1,1.86,1.59v-6.16a.79.79,0,0,1,.24-.59.85.85,0,0,1,1.16,0,.82.82,0,0,1,.22.59v4.71A.47.47,0,0,1,407.28,419.08Zm-3.67,8.74a4.17,4.17,0,0,0,1.52-1.57,4.54,4.54,0,0,0,.56-2.24c0-.24,0-.41,0-.52a.2.2,0,0,1,0-.11,4.2,4.2,0,0,0-1.37-2.69,4.08,4.08,0,0,0-2.83-1.05,4.24,4.24,0,0,0-2.17.57,4.09,4.09,0,0,0-1.53,1.56,4.76,4.76,0,0,0,0,4.48,4.29,4.29,0,0,0,5.87,1.57Z" transform="translate(-273.87 -348.74)" fill="#848484"/><path d="M428.5,418.74a3.91,3.91,0,0,1,1.49,1.67,5.55,5.55,0,0,1,.54,2.51V429a.74.74,0,0,1-.22.57.78.78,0,0,1-.58.22.82.82,0,0,1-.59-.22.75.75,0,0,1-.23-.57v-6.05a3.39,3.39,0,0,0-.77-2.36,2.55,2.55,0,0,0-2-.88,2.78,2.78,0,0,0-2.14.89,3.16,3.16,0,0,0-.8,2.31V429a.74.74,0,0,1-.22.57.78.78,0,0,1-.58.22.82.82,0,0,1-.59-.22.75.75,0,0,1-.23-.57v-6.05a3.43,3.43,0,0,0-.76-2.36,2.57,2.57,0,0,0-2-.88,2.84,2.84,0,0,0-2.14.87,3,3,0,0,0-.84,2.2V429a.76.76,0,0,1-.8.79.82.82,0,0,1-.59-.22.75.75,0,0,1-.23-.57V419.1a.81.81,0,0,1,.23-.59.78.78,0,0,1,.59-.23.75.75,0,0,1,.58.23.84.84,0,0,1,.22.59v.46a4,4,0,0,1,1.39-1,4.36,4.36,0,0,1,3.84.16,4,4,0,0,1,1.47,1.47,4.21,4.21,0,0,1,1.58-1.47,4.59,4.59,0,0,1,2.2-.53A4.13,4.13,0,0,1,428.5,418.74Z" transform="translate(-273.87 -348.74)" fill="#848484"/><path d="M437.57,415.76a1.17,1.17,0,0,1-.32-.82,1.08,1.08,0,0,1,.33-.82,1.17,1.17,0,0,1,.82-.32,1.13,1.13,0,0,1,.8.32,1.08,1.08,0,0,1,.34.82,1.15,1.15,0,0,1-.34.82,1.12,1.12,0,0,1-.82.33A1.1,1.1,0,0,1,437.57,415.76Zm.25,13.77a.77.77,0,0,1-.24-.58V419.1a.78.78,0,0,1,.24-.59.76.76,0,0,1,.58-.23.75.75,0,0,1,.58.23.8.8,0,0,1,.22.59V429a.79.79,0,0,1-.22.58.75.75,0,0,1-.58.23A.76.76,0,0,1,437.82,429.53Z" transform="translate(-273.87 -348.74)" fill="#848484"/><path d="M454.58,418.78a4.52,4.52,0,0,1,1.86,1.84,5.83,5.83,0,0,1,.67,2.89V429a.79.79,0,0,1-.79.79.77.77,0,0,1-.59-.23.73.73,0,0,1-.23-.56v-5.46a3.73,3.73,0,0,0-1-2.85,3.83,3.83,0,0,0-2.72-1,4.3,4.3,0,0,0-1.86.4,3.32,3.32,0,0,0-1.31,1.11,2.72,2.72,0,0,0-.49,1.56V429a.74.74,0,0,1-.22.57.75.75,0,0,1-.57.22.8.8,0,0,1-.59-.22.71.71,0,0,1-.23-.57V419.1a.79.79,0,0,1,.82-.82.73.73,0,0,1,.57.23.8.8,0,0,1,.22.59v.71a5.12,5.12,0,0,1,1.68-1.22,5.3,5.3,0,0,1,2.15-.44A5.6,5.6,0,0,1,454.58,418.78Z" transform="translate(-273.87 -348.74)" fill="#848484"/><path d="M482.88,429.53a.8.8,0,0,1-.23-.58V414.18a.79.79,0,0,1,.82-.82h4.2a5.44,5.44,0,0,1,2.74.69,4.81,4.81,0,0,1,1.88,1.89,5.53,5.53,0,0,1,.67,2.76,5.47,5.47,0,0,1-.67,2.73,4.83,4.83,0,0,1-1.88,1.87,5.53,5.53,0,0,1-2.74.67h-3.38v5a.8.8,0,0,1-.23.58.87.87,0,0,1-1.18,0Zm4.79-7.14a3.78,3.78,0,0,0,1.91-.47,3.3,3.3,0,0,0,1.31-1.31,3.79,3.79,0,0,0,.48-1.91,3.91,3.91,0,0,0-.48-1.95,3.42,3.42,0,0,0-1.31-1.33,3.79,3.79,0,0,0-1.91-.48h-3.38v7.45Z" transform="translate(-273.87 -348.74)" fill="#848484"/><path d="M500.68,429.11a5.38,5.38,0,0,1-2.09-2.09,5.86,5.86,0,0,1-.76-3,6,6,0,0,1,.76-3,5.34,5.34,0,0,1,2.09-2.1,5.88,5.88,0,0,1,3-.76,5.82,5.82,0,0,1,3,.76,5.41,5.41,0,0,1,2.09,2.1,6,6,0,0,1,.77,3,5.86,5.86,0,0,1-.76,3,5.38,5.38,0,0,1-2.09,2.09,6.26,6.26,0,0,1-6,0Zm5.17-1.28a4,4,0,0,0,1.52-1.56,4.64,4.64,0,0,0,.54-2.24,4.69,4.69,0,0,0-.54-2.26,4.07,4.07,0,0,0-1.52-1.56,4.43,4.43,0,0,0-4.35,0,4.12,4.12,0,0,0-1.54,1.56,4.58,4.58,0,0,0-.55,2.26,4.53,4.53,0,0,0,.55,2.24,4.05,4.05,0,0,0,1.54,1.56,4.43,4.43,0,0,0,4.35,0Z" transform="translate(-273.87 -348.74)" fill="#848484"/><path d="M522.39,418.38c.35.16.52.37.52.65a.78.78,0,0,1,0,.19.65.65,0,0,1-.27.4,1,1,0,0,1-.49.11l-.65-.05-.51,0a3.86,3.86,0,0,0-2.57.84,2.74,2.74,0,0,0-1,2.19V429a.8.8,0,0,1-.21.58.82.82,0,0,1-.59.21.79.79,0,0,1-.59-.21.76.76,0,0,1-.21-.58v-9.89a.73.73,0,0,1,.8-.8.82.82,0,0,1,.59.21.83.83,0,0,1,.21.59V420a4.17,4.17,0,0,1,1.55-1.37,4.44,4.44,0,0,1,2-.48A3.53,3.53,0,0,1,522.39,418.38Z" transform="translate(-273.87 -348.74)" fill="#848484"/><path d="M534.18,428.38a.84.84,0,0,1,.21.59.72.72,0,0,1-.25.56.88.88,0,0,1-.63.23h-.44a3.7,3.7,0,0,1-2-.53,3.77,3.77,0,0,1-1.38-1.45,4.28,4.28,0,0,1-.49-2.07V420.1h-1.37a.72.72,0,0,1-.53-.19.66.66,0,0,1-.2-.5.66.66,0,0,1,.2-.51.69.69,0,0,1,.53-.2h1.37v-3.26a.83.83,0,0,1,.22-.59.76.76,0,0,1,.57-.23.79.79,0,0,1,.82.82v3.26h2.38a.69.69,0,0,1,.53.2.66.66,0,0,1,.2.51.66.66,0,0,1-.2.5.72.72,0,0,1-.53.19h-2.38v5.61a2.46,2.46,0,0,0,.63,1.75,2.09,2.09,0,0,0,1.62.69h.57A.68.68,0,0,1,534.18,428.38Z" transform="translate(-273.87 -348.74)" fill="#848484"/><path d="M548.37,418.94a5.53,5.53,0,0,1,2.1,2.11,5.93,5.93,0,0,1,.77,3V429a.74.74,0,0,1-.24.56.76.76,0,0,1-.58.23.8.8,0,0,1-.59-.22.71.71,0,0,1-.23-.57v-1.26a5.2,5.2,0,0,1-1.87,1.58,5.38,5.38,0,0,1-2.5.58A5.55,5.55,0,0,1,540.3,427a6.06,6.06,0,0,1-.74-3,5.83,5.83,0,0,1,.77-3,5.53,5.53,0,0,1,2.1-2.11,6.11,6.11,0,0,1,5.94,0Zm-.81,8.89a4.07,4.07,0,0,0,1.52-1.56,4.76,4.76,0,0,0,0-4.48,4.24,4.24,0,0,0-1.52-1.57,4.06,4.06,0,0,0-2.16-.58,4.18,4.18,0,0,0-3.71,2.15,4.76,4.76,0,0,0,0,4.48,4,4,0,0,0,1.53,1.56,4.27,4.27,0,0,0,2.18.57A4.15,4.15,0,0,0,547.56,427.83Z" transform="translate(-273.87 -348.74)" fill="#848484"/><path d="M557.92,428.75a4.08,4.08,0,0,1-.81-2.62v-12a.75.75,0,0,1,.24-.58.8.8,0,0,1,.56-.22.82.82,0,0,1,.58.22.78.78,0,0,1,.22.58v12a2.63,2.63,0,0,0,.37,1.47,1.07,1.07,0,0,0,.93.57h.53a.61.61,0,0,1,.5.22.85.85,0,0,1,.19.58.7.7,0,0,1-.26.57,1,1,0,0,1-.68.22H560A2.54,2.54,0,0,1,557.92,428.75Z" transform="translate(-273.87 -348.74)" fill="#848484"/><path d="M585.67,429.52a.75.75,0,0,1-.25-.57V414.18a.86.86,0,0,1,.82-.82.81.81,0,0,1,.59.23.82.82,0,0,1,.23.59v14h8.21a.8.8,0,0,1,.59.22.75.75,0,0,1,.23.56.73.73,0,0,1-.23.55.8.8,0,0,1-.59.22h-9A.78.78,0,0,1,585.67,429.52Z" transform="translate(-273.87 -348.74)" fill="#848484"/><path d="M603.89,429.11A5.45,5.45,0,0,1,601.8,427a6,6,0,0,1-.75-3,6,6,0,0,1,.75-3,5.41,5.41,0,0,1,2.09-2.1,6.26,6.26,0,0,1,6,0A5.48,5.48,0,0,1,612,421a6.32,6.32,0,0,1,0,6,5.45,5.45,0,0,1-2.09,2.09,6.28,6.28,0,0,1-6,0Zm5.18-1.28a4,4,0,0,0,1.51-1.56,4.64,4.64,0,0,0,.55-2.24,4.69,4.69,0,0,0-.55-2.26,4,4,0,0,0-1.51-1.56,4.45,4.45,0,0,0-4.36,0,4.09,4.09,0,0,0-1.53,1.56,4.59,4.59,0,0,0-.56,2.26,4.54,4.54,0,0,0,.56,2.24,4,4,0,0,0,1.53,1.56,4.45,4.45,0,0,0,4.36,0Z" transform="translate(-273.87 -348.74)" fill="#848484"/><path d="M627.25,418.92a5.33,5.33,0,0,1,2.08,2.08,6,6,0,0,1,.76,3v4.29a6.2,6.2,0,0,1-.75,3,5.46,5.46,0,0,1-2.06,2.15,5.71,5.71,0,0,1-3,.79,6.47,6.47,0,0,1-2.87-.61,5.85,5.85,0,0,1-2.12-1.7.68.68,0,0,1-.19-.48.71.71,0,0,1,.29-.55.77.77,0,0,1,.46-.15.86.86,0,0,1,.38.1.8.8,0,0,1,.3.24,4.24,4.24,0,0,0,1.59,1.24,5.24,5.24,0,0,0,2.18.44,4,4,0,0,0,2.14-.58,4.09,4.09,0,0,0,1.5-1.61,5.13,5.13,0,0,0,.54-2.39v-.94a4.67,4.67,0,0,1-1.78,1.88,5.13,5.13,0,0,1-2.63.68,5.76,5.76,0,0,1-2.93-.75,5.16,5.16,0,0,1-2-2.08,6.21,6.21,0,0,1-.73-3,6.08,6.08,0,0,1,.76-3,5.36,5.36,0,0,1,2.09-2.08,6.36,6.36,0,0,1,6,0Zm-.81,8.92a4,4,0,0,0,1.51-1.55,5,5,0,0,0,0-4.52,4.11,4.11,0,0,0-1.51-1.56,4.51,4.51,0,0,0-4.39,0,4,4,0,0,0-1.51,1.56,4.92,4.92,0,0,0,0,4.52,3.88,3.88,0,0,0,1.51,1.55,4.58,4.58,0,0,0,4.39,0Z" transform="translate(-273.87 -348.74)" fill="#848484"/><path d="M636.71,415.76a1.17,1.17,0,0,1-.32-.82,1.08,1.08,0,0,1,.33-.82,1.17,1.17,0,0,1,.82-.32,1.13,1.13,0,0,1,.8.32,1.05,1.05,0,0,1,.34.82,1.11,1.11,0,0,1-.34.82,1.12,1.12,0,0,1-.82.33A1.1,1.1,0,0,1,636.71,415.76Zm.25,13.77a.77.77,0,0,1-.24-.58V419.1a.78.78,0,0,1,.24-.59.76.76,0,0,1,.58-.23.75.75,0,0,1,.58.23.8.8,0,0,1,.22.59V429a.79.79,0,0,1-.22.58.75.75,0,0,1-.58.23A.76.76,0,0,1,637,429.53Z" transform="translate(-273.87 -348.74)" fill="#848484"/><path d="M653.72,418.78a4.52,4.52,0,0,1,1.86,1.84,5.83,5.83,0,0,1,.67,2.89V429a.79.79,0,0,1-.79.79.77.77,0,0,1-.59-.23.73.73,0,0,1-.23-.56v-5.46a3.73,3.73,0,0,0-1-2.85,3.81,3.81,0,0,0-2.72-1,4.3,4.3,0,0,0-1.86.4,3.32,3.32,0,0,0-1.31,1.11,2.72,2.72,0,0,0-.49,1.56V429a.75.75,0,0,1-.79.79.8.8,0,0,1-.59-.22.71.71,0,0,1-.23-.57V419.1a.79.79,0,0,1,.82-.82.71.71,0,0,1,.57.23.8.8,0,0,1,.22.59v.71a5.12,5.12,0,0,1,1.68-1.22,5.3,5.3,0,0,1,2.15-.44A5.6,5.6,0,0,1,653.72,418.78Z" transform="translate(-273.87 -348.74)" fill="#848484"/><path d="M682,429.53a.8.8,0,0,1-.23-.58V414.18a.79.79,0,0,1,.82-.82h4.2a5.41,5.41,0,0,1,2.74.69,4.81,4.81,0,0,1,1.88,1.89,5.53,5.53,0,0,1,.67,2.76,5.47,5.47,0,0,1-.67,2.73,4.83,4.83,0,0,1-1.88,1.87,5.51,5.51,0,0,1-2.74.67h-3.38v5a.8.8,0,0,1-.23.58.87.87,0,0,1-1.18,0Zm4.79-7.14a3.78,3.78,0,0,0,1.91-.47,3.3,3.3,0,0,0,1.31-1.31,3.79,3.79,0,0,0,.48-1.91,3.91,3.91,0,0,0-.48-1.95,3.42,3.42,0,0,0-1.31-1.33,3.79,3.79,0,0,0-1.91-.48h-3.38v7.45Z" transform="translate(-273.87 -348.74)" fill="#848484"/><path d="M705.78,418.94a5.53,5.53,0,0,1,2.1,2.11,5.93,5.93,0,0,1,.77,3V429a.77.77,0,0,1-.23.56.78.78,0,0,1-.59.23.82.82,0,0,1-.59-.22A.75.75,0,0,1,707,429v-1.26a5.12,5.12,0,0,1-1.87,1.58,5.35,5.35,0,0,1-2.5.58,5.55,5.55,0,0,1-4.92-2.87,6.2,6.2,0,0,1,0-5.95,5.53,5.53,0,0,1,2.1-2.11,6.11,6.11,0,0,1,5.94,0Zm-.81,8.89a4,4,0,0,0,1.53-1.56,4.84,4.84,0,0,0,0-4.48,4.19,4.19,0,0,0-1.53-1.57,4.06,4.06,0,0,0-2.16-.58,4.12,4.12,0,0,0-2.17.58,4.29,4.29,0,0,0-1.54,1.57,4.84,4.84,0,0,0,0,4.48,4.12,4.12,0,0,0,1.54,1.56,4.21,4.21,0,0,0,2.17.57A4.15,4.15,0,0,0,705,427.83Z" transform="translate(-273.87 -348.74)" fill="#848484"/><path d="M723.07,418.78a4.43,4.43,0,0,1,1.85,1.84,5.83,5.83,0,0,1,.68,2.89V429a.81.81,0,0,1-1.62,0v-5.46a3.73,3.73,0,0,0-1-2.85,3.81,3.81,0,0,0-2.72-1,4.34,4.34,0,0,0-1.86.4,3.32,3.32,0,0,0-1.31,1.11,2.71,2.71,0,0,0-.48,1.56V429a.76.76,0,0,1-.8.79.8.8,0,0,1-.59-.22A.75.75,0,0,1,715,429V419.1a.81.81,0,0,1,.23-.59.77.77,0,0,1,.59-.23.75.75,0,0,1,.58.23.84.84,0,0,1,.22.59v.71a4.92,4.92,0,0,1,1.68-1.22,5.22,5.22,0,0,1,2.14-.44A5.64,5.64,0,0,1,723.07,418.78Z" transform="translate(-273.87 -348.74)" fill="#848484"/><path d="M740,418.9a4.92,4.92,0,0,1,1.86,2,6.31,6.31,0,0,1,.66,2.92.72.72,0,0,1-.21.54.77.77,0,0,1-.55.2h-8.48a4.17,4.17,0,0,0,1.34,2.79,4.24,4.24,0,0,0,2.94,1.07,4.82,4.82,0,0,0,1.53-.26,3.77,3.77,0,0,0,1.22-.66,1,1,0,0,1,.57-.21.76.76,0,0,1,.74.73.63.63,0,0,1-.23.48,5.63,5.63,0,0,1-1.77,1,6.06,6.06,0,0,1-5.06-.36,5.31,5.31,0,0,1-2.07-2.08,6.1,6.1,0,0,1-.74-3,6.39,6.39,0,0,1,.7-3,5.22,5.22,0,0,1,2-2.08,5.44,5.44,0,0,1,2.85-.75A5.14,5.14,0,0,1,740,418.9Zm-5.4,1.71a4.3,4.3,0,0,0-1.28,2.6H741a4.1,4.1,0,0,0-1.18-2.6,3.52,3.52,0,0,0-2.58-1A3.7,3.7,0,0,0,734.56,420.61Z" transform="translate(-273.87 -348.74)" fill="#848484"/><path d="M748.75,428.75a4.08,4.08,0,0,1-.81-2.62v-12a.78.78,0,0,1,.23-.58.8.8,0,0,1,1.37.58v12a2.71,2.71,0,0,0,.36,1.47,1.1,1.1,0,0,0,.94.57h.52a.64.64,0,0,1,.51.22.9.9,0,0,1,.19.58.68.68,0,0,1-.27.57,1,1,0,0,1-.68.22h-.27A2.53,2.53,0,0,1,748.75,428.75Z" transform="translate(-273.87 -348.74)" fill="#848484"/></svg>