<svg xmlns="http://www.w3.org/2000/svg" width="57" height="58.01" viewBox="0 0 57 58.01"><path d="M4,18.8a67.08,67.08,0,0,1,9,2.5c5.24,1.74,11,0,11-2.5s-4.48-4.5-10-4.5S4,18.8,4,18.8Z" transform="translate(-3 -2.99)" fill="#ccc" stroke="#4d4d4d" stroke-linecap="round" stroke-linejoin="round" stroke-width="2"/><line x1="28" y1="45.01" x2="28" y2="57.01" fill="#4d4d4d" stroke="#4d4d4d" stroke-linecap="round" stroke-linejoin="round" stroke-width="2"/><line x1="20.8" y1="57.01" x2="28" y2="57.01" fill="#4d4d4d" stroke="#4d4d4d" stroke-linecap="round" stroke-linejoin="round" stroke-width="2"/><line x1="39.27" y1="45.01" x2="39.27" y2="57.01" fill="#4d4d4d" stroke="#4d4d4d" stroke-linecap="round" stroke-linejoin="round" stroke-width="2"/><line x1="32.07" y1="57.01" x2="39.27" y2="57.01" fill="#4d4d4d" stroke="#4d4d4d" stroke-linecap="round" stroke-linejoin="round" stroke-width="2"/><path d="M42,32,30.13,26.84A12,12,0,1,0,19,26.38V33A20,20,0,0,0,39,53H57Z" transform="translate(-3 -2.99)" fill="#fff" stroke="#4d4d4d" stroke-linecap="round" stroke-linejoin="round" stroke-width="2"/><path d="M43.11,47H59L42.09,23.11c-3.51-5-10.76-5.6-14.72-1A9.79,9.79,0,0,0,25,28.58h0A18.27,18.27,0,0,0,43.11,47Z" transform="translate(-3 -2.99)" fill="#ccc" stroke="#4d4d4d" stroke-linecap="round" stroke-linejoin="round" stroke-width="2"/><path d="M18,14a3,3,0,0,0,6,0Z" transform="translate(-3 -2.99)" fill="#ccc" stroke="#4d4d4d" stroke-linecap="round" stroke-linejoin="round" stroke-width="2"/></svg>