<svg xmlns="http://www.w3.org/2000/svg" width="58" height="54" viewBox="0 0 58 54"><path d="M50.45,6C46.49,6.32,38,15.05,38,15.05L52.76,30s4-4.79,3.12-13.68C55.42,11.51,52.75,5.82,50.45,6Z" transform="translate(-3 -5)" fill="#fff" stroke="#4d4d4d" stroke-linecap="round" stroke-linejoin="round" stroke-width="2"/><path d="M41,19.31a50.5,50.5,0,0,1,6.62-5.42,1.22,1.22,0,0,1,1.68.31c-.59-1.11,2.1,7.52,2,6.67A20.51,20.51,0,0,1,50.56,29Z" transform="translate(-3 -5)" fill="#ccc"/><path d="M13.55,6c4,.32,12.45,9.05,12.45,9.05L11.24,30s-4-4.79-3.12-13.68C8.58,11.51,11.25,5.82,13.55,6Z" transform="translate(-3 -5)" fill="#fff" stroke="#4d4d4d" stroke-linecap="round" stroke-linejoin="round" stroke-width="2"/><path d="M22.49,19.31a50.5,50.5,0,0,0-6.62-5.42,1.22,1.22,0,0,0-1.68.31,18.13,18.13,0,0,0-2,6.67A20.51,20.51,0,0,0,12.93,29Z" transform="translate(-3 -5)" fill="#ccc"/><path d="M32,14C13.72,14,7,28.1,7,40.83,7,49.4,16.13,58,32,58s25-8.6,25-17.17C57,28.1,50.28,14,32,14Z" transform="translate(-3 -5)" fill="#fff"/><circle cx="16.49" cy="32" r="7" fill="#ccc"/><path d="M44,26a12,12,0,0,0,7.74-2.83C47.8,17.77,41.44,14,32,14A12,12,0,0,0,44,26Z" transform="translate(-3 -5)" fill="#7c7c7c"/><path d="M32,14C13.72,14,7,28.1,7,40.83,7,49.4,16.13,58,32,58s25-8.6,25-17.17C57,28.1,50.28,14,32,14Z" transform="translate(-3 -5)" fill="none" stroke="#4d4d4d" stroke-linecap="round" stroke-linejoin="round" stroke-width="2"/><line x1="50" y1="37" x2="57" y2="36" fill="none" stroke="#4d4d4d" stroke-linecap="round" stroke-linejoin="round" stroke-width="2"/><line x1="50" y1="41" x2="57" y2="42" fill="none" stroke="#4d4d4d" stroke-linecap="round" stroke-linejoin="round" stroke-width="2"/><line x1="8" y1="37" x2="1" y2="36" fill="none" stroke="#4d4d4d" stroke-linecap="round" stroke-linejoin="round" stroke-width="2"/><line x1="8" y1="41" x2="1" y2="42" fill="none" stroke="#4d4d4d" stroke-linecap="round" stroke-linejoin="round" stroke-width="2"/><circle cx="41" cy="32" r="4" fill="#4d4d4d"/><circle cx="41" cy="32" r="1" fill="#fff"/><circle cx="17" cy="32" r="4" fill="#4d4d4d"/><circle cx="17" cy="32" r="1" fill="#fff"/><path d="M35,41.48A3.27,3.27,0,0,1,32,44a3.27,3.27,0,0,1-3-2.52c0-.84,1.34-1.48,3-1.48S35,40.64,35,41.48Z" transform="translate(-3 -5)" fill="#ccc" stroke="#4d4d4d" stroke-linecap="round" stroke-linejoin="round" stroke-width="2"/><ellipse cx="41.49" cy="41.5" rx="3" ry="1.5" fill="#ccc"/><ellipse cx="15.49" cy="41.5" rx="3" ry="1.5" fill="#ccc"/><polyline points="25 47 29 42 33 47" fill="none" stroke="#4d4d4d" stroke-linecap="round" stroke-linejoin="round" stroke-width="2"/></svg>