<svg xmlns="http://www.w3.org/2000/svg" width="100.02" height="64.21" viewBox="0 0 100.02 64.21"><path d="M49.93,46.62H50c4,0,6-2.13,6-6.17v-.14c0-4-2.15-6.17-6-6.17h-.1c-3.89,0-6,2.19-6,6.17v.14C43.9,44.46,46,46.62,49.93,46.62Zm-2.77-6.31c0-2.2.67-2.91,2.77-2.91H50c2.11,0,2.77.71,2.77,2.91v.15c0,2.22-.64,2.9-2.77,2.9h-.1c-2.12,0-2.77-.68-2.77-2.9Z" transform="translate(0 0)" fill="#4d4d4d"/><path d="M92.82,32.13c-7-8.33-19.88-22.64-20-22.78l-.06.05C68.39,3.1,60.94,0,50.29,0h-.6C39.06,0,31.61,3.1,27.23,9.38h0c-.12.14-13,14.45-20,22.78C1.61,38.72-.5,43.11.1,46.83c.56,3.5,3.5,5.73,6.6,7.64a96.23,96.23,0,0,0,9.48,5A17.32,17.32,0,0,0,23,61.09a7.67,7.67,0,0,0,4.48-1.3,7.48,7.48,0,0,0,1.83-1.85c2.08,4.18,6.19,6.26,12.44,6.26H42a16.78,16.78,0,0,0,8-1.68,16.78,16.78,0,0,0,8,1.68h.29c6.26,0,10.38-2.09,12.46-6.29a6.9,6.9,0,0,0,1.85,1.88,7.67,7.67,0,0,0,4.48,1.3,17.46,17.46,0,0,0,6.77-1.65,96.07,96.07,0,0,0,9.47-5c3.1-1.9,6-4.14,6.61-7.64C100.5,43.11,98.38,38.72,92.82,32.13Zm-67.25,25c-1.65,1.14-4.46.91-8.1-.66a94,94,0,0,1-9.06-4.75c-3.33-2.1-4.81-3.64-5.09-5.41-.42-2.6,1.59-6.45,6.34-12.08,3.86-4.57,9.48-11,13.78-15.79A44.72,44.72,0,0,0,22.5,28v.87c0,6.28,1.88,11,3.38,14.85.95,2.38,1.76,4.44,1.76,6.09a18.35,18.35,0,0,0,.07,2h0s.12,3.86-2.14,5.35Zm43.5-7.35C69.07,57.61,65.84,61,58.26,61H58c-3.07,0-5.39-.54-7.08-1.68A1.82,1.82,0,0,0,50,59a1.79,1.79,0,0,0-.9.27C47.42,60.42,45.11,61,42,61h-.29C34,60.94,30.9,57.7,30.9,49.76v-.43c0-4.81,1.26-7.95,3.86-9.59l.26-.2a4.89,4.89,0,0,1,.74-.55l.79-.51c5.21-3.31,10.6-6.74,10.6-12V17.24c0-2.2.67-2.9,2.77-2.9H50c2.1,0,2.76.7,2.76,2.9v9.25c0,5.29,5.39,8.72,10.6,12l.79.51a4.18,4.18,0,0,1,.72.53,2.48,2.48,0,0,0,.26.19c2.62,1.63,3.9,4.79,3.9,9.62Zm2.06-7.67A10.54,10.54,0,0,0,67,37a8.31,8.31,0,0,0-1-.77l-.8-.51c-4.47-2.84-9.08-5.78-9.08-9.29V17.2c0-4-2.15-6.16-6-6.16H50c-3.89,0-6,2.19-6,6.16v9.25c0,3.51-4.62,6.44-9.09,9.28l-.8.52a8.83,8.83,0,0,0-1.11.82,10.53,10.53,0,0,0-4.09,5.1,34.4,34.4,0,0,1-3-13.35V28c0-17.07,7.37-24.69,23.91-24.69h.6C67,3.26,74.36,10.88,74.36,28v.87a38.6,38.6,0,0,1-3.23,13.27Zm25.55,4.22c-.28,1.77-1.76,3.33-5.1,5.39a93.07,93.07,0,0,1-9,4.75c-3.64,1.57-6.45,1.8-8.11.66-2.25-1.54-2.14-5.29-2.14-5.33h0c0-.65.07-1.32.07-2v-.29c0-1.52.82-3.57,1.74-5.93,1.52-3.86,3.4-8.65,3.4-14.72V28a44.48,44.48,0,0,0-.94-9.56c4.3,4.85,9.94,11.26,13.81,15.84,4.68,5.59,6.69,9.44,6.27,12Z" transform="translate(0 0)" fill="#4d4d4d"/><path d="M34.37,19h-.11c-2.91,0-4.4,1.34-4.4,4.54v.15c0,3.21,1.49,4.53,4.4,4.53h.11c2.91,0,4.4-1.32,4.4-4.53v-.1C38.77,20.37,37.28,19,34.37,19Z" transform="translate(0 0)" fill="#4d4d4d"/><path d="M65.4,19h-.1c-2.92,0-4.4,1.34-4.4,4.54v.15c0,3.21,1.48,4.53,4.4,4.53h.1c2.92,0,4.4-1.32,4.4-4.53v-.1C69.8,20.37,68.32,19,65.4,19Z" transform="translate(0 0)" fill="#4d4d4d"/><path d="M59.33,56.51a9.93,9.93,0,0,0-19.55,0,1.45,1.45,0,0,0,1.14,1.7l.27,0h.13A1.48,1.48,0,0,0,42.74,57a6.93,6.93,0,0,1,13.63,0,1.48,1.48,0,0,0,1.42,1.25h.13a1.46,1.46,0,0,0,1.44-1.46A1.24,1.24,0,0,0,59.33,56.51Z" transform="translate(0 0)" fill="#4d4d4d"/></svg>