<svg xmlns="http://www.w3.org/2000/svg" width="52" height="61" viewBox="0 0 52 61"><path d="M54.65,11.79,51,27,39,23V9.94A7.93,7.93,0,0,1,46.94,2h0a7.93,7.93,0,0,1,7.93,7.94A7.73,7.73,0,0,1,54.65,11.79Z" transform="translate(-6 -1)" fill="#fff" stroke="#4d4d4d" stroke-linecap="round" stroke-linejoin="round" stroke-width="2"/><path d="M46,12a3,3,0,0,1,3,3,3.27,3.27,0,0,1-.08.7L47.54,22,43,19.94V15A3,3,0,0,1,46,12Z" transform="translate(-6 -1)" fill="#ccc"/><path d="M9.35,11.79,13,27l12-4V9.94A7.93,7.93,0,0,0,17.06,2h0A7.93,7.93,0,0,0,9.13,9.94,7.73,7.73,0,0,0,9.35,11.79Z" transform="translate(-6 -1)" fill="#fff" stroke="#4d4d4d" stroke-linecap="round" stroke-linejoin="round" stroke-width="2"/><path d="M18,12a3,3,0,0,0-3,3,3.27,3.27,0,0,0,.08.7L16.46,22,21,19.94V15A3,3,0,0,0,18,12Z" transform="translate(-6 -1)" fill="#ccc"/><path d="M32,17C13.72,17,7,31.1,7,43.83,7,52.4,16.13,61,32,61s25-8.6,25-17.17C57,31.1,50.28,17,32,17Z" transform="translate(-6 -1)" fill="#fff" stroke="#4d4d4d" stroke-linecap="round" stroke-linejoin="round" stroke-width="2"/><circle cx="38" cy="39" r="4" fill="#4d4d4d"/><circle cx="38" cy="39" r="1" fill="#fff"/><circle cx="14" cy="39" r="4" fill="#4d4d4d"/><circle cx="14" cy="39" r="1" fill="#fff"/><path d="M35,44.48A3.27,3.27,0,0,1,32,47a3.27,3.27,0,0,1-3-2.52c0-.84,1.34-1.48,3-1.48S35,43.64,35,44.48Z" transform="translate(-6 -1)" fill="#ccc" stroke="#4d4d4d" stroke-linecap="round" stroke-linejoin="round" stroke-width="2"/><ellipse cx="39" cy="46.5" rx="3" ry="1.5" fill="#ccc"/><ellipse cx="13" cy="46.5" rx="3" ry="1.5" fill="#ccc"/><path d="M36,54a4,4,0,0,0-8,0" transform="translate(-6 -1)" fill="none" stroke="#4d4d4d" stroke-linecap="round" stroke-linejoin="round" stroke-width="2"/><line x1="12" y1="32.5" x2="20.66" y2="29.5" fill="none" stroke="#4d4d4d" stroke-linecap="round" stroke-linejoin="round" stroke-width="2"/><line x1="40" y1="32.5" x2="31.34" y2="29.5" fill="none" stroke="#4d4d4d" stroke-linecap="round" stroke-linejoin="round" stroke-width="2"/></svg>