<svg xmlns="http://www.w3.org/2000/svg" width="251.22" height="143.87" viewBox="0 0 251.22 143.87"><path d="M253.45,121a2.7,2.7,0,0,0-.19-.63,2.42,2.42,0,0,0-.1-.36c0-.08-.11-.12-.16-.2a2.59,2.59,0,0,0-.42-.51,2.24,2.24,0,0,0-.45-.42,2.86,2.86,0,0,0-.54-.3,3.38,3.38,0,0,0-.63-.23l-.23-.08h-.37a3.86,3.86,0,0,0-.68,0,2.52,2.52,0,0,0-.65.18.45.45,0,0,0-.34.1,41.71,41.71,0,0,1-23.61,4.17,79.62,79.62,0,0,0-12.29-31.09,3.58,3.58,0,0,0-.34-.52A79.52,79.52,0,0,0,94.28,75.66a4.4,4.4,0,0,0-.39.35,79.32,79.32,0,0,0-26.38,49.33c-1.93,14.6,36.8,27.49,76,32.66a278.72,278.72,0,0,0,35.94,2.5c24.24,0,43.48-4.05,45.77-13.5,6.12-1.46,25.55-7.42,28.23-24.93v-.36A4.21,4.21,0,0,0,253.45,121ZM203.63,90.36,190,91.6l-8.17-19.73A73.13,73.13,0,0,1,203.63,90.36ZM156,63.35a73.08,73.08,0,0,1,16.89,4.34L184,94.62l-19.42,25.29L133,115.74l-12.2-29.46L138.6,63.16A72.87,72.87,0,0,1,156,63.35ZM115.92,81.83l-12.85-4.74a73.17,73.17,0,0,1,25.86-12.21ZM74.08,126.21A72.66,72.66,0,0,1,97.14,82l17.41,6.41,12.38,29.9L107.19,144C84.65,137.58,73.58,130,74.08,126.21Zm40.05,19.61,18.05-23.51,31.62,4.17,11.33,27.38a279.26,279.26,0,0,1-30.71-2.42A277.84,277.84,0,0,1,114.13,145.82Zm68.18,8.07L169.92,124l19.69-25.66,18.48-1.68a72.63,72.63,0,0,1,10.81,48.7c-.5,3.73-13.16,8.19-36.59,8.53Zm43.71-14a78,78,0,0,0-.12-10.37c1.17.1,2.51.18,4,.18a49,49,0,0,0,14.62-2.26c-4.38,7.29-13.38,10.94-18.52,12.48Z" transform="translate(-2.24 -56.06)" fill="#4d4d4d"/><path d="M26.49,105.07a3.22,3.22,0,1,0,3.22-3.22A3.22,3.22,0,0,0,26.49,105.07Z" transform="translate(-2.24 -56.06)" fill="#4d4d4d"/><path d="M25.63,115a20.56,20.56,0,0,0-8.42-1.81H9.15a19.6,19.6,0,0,1,38.91,3.31c0,2.89,3.7,4.92,6.62,1.59v-1c0-14.29-11.2-26.37-25.48-26.76a26.22,26.22,0,0,0-27,26.21h0a3.31,3.31,0,0,0,3.31,3.31h6.07c1.1,8.58,6.34,17.46,14.51,24.31,6.5,5.44,19.51,13.32,40.4,13.32q3.93,0,8.19-.4l-8.26,10.31a3.17,3.17,0,0,0-.59,1.12l-8.19,27.14a3.3,3.3,0,0,0,.51,2.93,3.34,3.34,0,0,0,2.66,1.34H83.52a3.32,3.32,0,0,0,3.16-2.31l1.92-6h18.73a3.31,3.31,0,0,0,3.3-3l1.24-13.43,7.56-8.62c7.68,1.58,15.51,2.88,23.18,3.89,10.19,1.35,20.17,2.17,29.59,2.49l5.9,19a3.3,3.3,0,0,0,3.16,2.33h11.39l1.26,3.49a3.33,3.33,0,0,0,3.12,2.18h22.71a3.32,3.32,0,0,0,3.32-3.31,3.21,3.21,0,0,0-.17-1l-8.33-25.8c11.81-2.86,18.41-7.48,19.22-13.6a3.31,3.31,0,0,0-2.82-3.73h-.07a3.28,3.28,0,0,0-3.71,2.78v.07c-.42,3.14-6.94,7.58-24,9.79-16.24,2.11-37.45,1.65-59.72-1.28-51.56-6.82-77.71-21-80.2-31.39a1.9,1.9,0,0,0-.15-.46c-.08-.24-2.38-6.4,1.42-15.79h0c-1.64-4.16-5.83-3.49-6.8-.75-3.54,10-1.4,17.23-.87,18.74,1.58,6.22,7.24,11.7,15.45,16.45-22.26,1.59-35.6-6.26-41.92-11.55-6.53-5.47-10.91-12.58-12-19.23l10.16,2.8c2.65.73,5-2.2,3.48-4.49m33.29,75.13L72,171,83.9,156.19c3.81,1.55,7.9,3,12.18,4.33l-7.77,10.62a3.58,3.58,0,0,0-.49,1L81.1,193.3Zm40.87-21.74a3.39,3.39,0,0,0-.81,1.89l-1.06,11.49H90.74L94,174.65l8.87-12.11c3,.82,6.08,1.6,9.2,2.33Zm77.56,16.08L179.18,173h1.6c1.41,0,2.77,0,4.14-.06l5.32,14.65Zm31.44,5.66h-15.8l-7.46-20.54c4.27-.23,8.36-.57,12.16-1.07,1.36-.17,2.66-.37,3.93-.58Z" transform="translate(-2.24 -56.06)" fill="#4d4d4d"/></svg>