<svg xmlns="http://www.w3.org/2000/svg" viewBox="0 0 54.09 19.09"><path d="M39.37,4.52c-.28-.27-1.14-1.07-7.08-.3.22-.63.42-1.19.6-1.67V2.43a.38.38,0,0,0-.22-.5h0a.4.4,0,0,0-.51.24v.11c-.22.58-.47,1.29-.74,2.08-2.08.3-3.8.65-4,.69a.4.4,0,0,0,.08.79h.08c.66-.14,2-.39,3.55-.63a53.77,53.77,0,0,0-1.46,5.29h0a4,4,0,0,1-2.24,1.44c-.56,0-.78-1.29-.8-1.92a.42.42,0,0,0-.25-.36V9.41l-.13.21h0a.42.42,0,0,0-.34.18c-.15.24-.32.53-.51.85-.37.63-1.22,2.11-1.63,2.11-.17,0-.21-.06-.23-.09-.31-.51.4-2.44,1-3.63a.4.4,0,0,0-.17-.54h0a.41.41,0,0,0-.54.17A16,16,0,0,0,23,10.52a5.47,5.47,0,0,1-1.63.53v-.41a1.6,1.6,0,0,0-2.56-1.52,1.3,1.3,0,0,0-.49,1.27,6.89,6.89,0,0,0-1.69.24,3.84,3.84,0,0,0,0-.48A2,2,0,0,0,16.37,9a1.3,1.3,0,0,0-1.11-.53A2.42,2.42,0,0,0,13.42,9.7c.71-2.9,1.82-6.49,3-8a.4.4,0,0,0-.07-.57.41.41,0,0,0-.56.07h0C14.42,3,13.23,7,12.55,9.91l-1.68-.12c.11-1.19.23-2.34.35-3.41.45-4.26.56-5.68.1-6.18a.55.55,0,0,0-.43-.2c-2,0-4.89,5.25-7,10.21a14.86,14.86,0,0,0-3.64,1.1.43.43,0,0,0-.21.23.42.42,0,0,0,0,.31.42.42,0,0,0,.36.22H.57a13.45,13.45,0,0,1,2.92-.94c-.68,1.64-1.32,3.36-1.92,5.12a.34.34,0,0,0,0,.31.38.38,0,0,0,.23.2.32.32,0,0,0,.3,0,.43.43,0,0,0,.21-.23c.69-2,1.38-3.83,2.13-5.6A30.45,30.45,0,0,1,10,10.56a66.48,66.48,0,0,0-.29,8.11.4.4,0,0,0,.41.39h0a.37.37,0,0,0,.28-.13.43.43,0,0,0,.11-.28,63.82,63.82,0,0,1,.3-8.06c.52,0,1,.06,1.56.11-.28,1.3-.45,2.24-.45,2.41a.41.41,0,0,0,.35.4.4.4,0,0,0,.44-.29c.29-1,1.39-4,2.56-4a.49.49,0,0,1,.46.2,1.2,1.2,0,0,1,.16.69,3.49,3.49,0,0,1-.1.79C14.08,11.67,13,13,13,13.83a.7.7,0,0,0,.2.51.68.68,0,0,0,.52.2c1.21,0,2.29-1.49,2.77-3A6,6,0,0,1,18,11.22a3,3,0,0,0-.15.94A1.44,1.44,0,0,0,19,13.68h.26a1.73,1.73,0,0,0,1.12-.44,3.23,3.23,0,0,0,.89-1.38,6.85,6.85,0,0,0,1.55-.36,2.26,2.26,0,0,0,.08,1.56,1,1,0,0,0,.92.48c.83,0,1.54-1.17,2.24-2.36.25,1,.76,1.53,1.44,1.53a3.56,3.56,0,0,0,2-.92c-.39,2.3-.4,4.29.35,5.31a2,2,0,0,0,1.63.79h.14a.4.4,0,0,0,0-.8,1.14,1.14,0,0,1-1.08-.46c-1-1.36-.44-5.47,1.59-11.57,3.72-.51,6.26-.5,6.82,0a.44.44,0,0,0,.29.11.42.42,0,0,0,.28-.12A.42.42,0,0,0,39.37,4.52ZM13.76,13.77a3.75,3.75,0,0,1,1.62-1.72C14.92,13,14.26,13.7,13.76,13.77Zm6.52-4V9.68a1.24,1.24,0,0,1,.34.93,3.53,3.53,0,0,1,0,.46,2.07,2.07,0,0,1-1-.26.72.72,0,0,1-.25-.21,1.6,1.6,0,0,1,.71-.36.4.4,0,0,0,.2-.44Zm-1.49,1.5a2.26,2.26,0,0,0,.31.23,2.84,2.84,0,0,0,1.21.36,2.16,2.16,0,0,1-.54.76.82.82,0,0,1-.73.23c-.37,0-.42-.53-.43-.74a2.08,2.08,0,0,1,.18-.81ZM10.76.81a30.57,30.57,0,0,1-.34,5.49c-.12,1.08-.24,2.25-.35,3.46a30.83,30.83,0,0,0-5.26.3C7.47,4,9.71,1,10.76.81Z" transform="translate(-0.01 0.03)" fill="#fff"/><path d="M54.1,10.65a.43.43,0,0,0-.21-.23.42.42,0,0,0-.31,0,17,17,0,0,0-2.24,1.06l-.24-.27A2.15,2.15,0,0,1,50.41,10c0-.48.61-.74.91-.74h.11a1,1,0,0,1,0,.81.41.41,0,0,0,.27.5h0a.39.39,0,0,0,.3,0,.43.43,0,0,0,.2-.24,1.75,1.75,0,0,0-.09-1.53.93.93,0,0,0-.76-.36A1.69,1.69,0,0,0,49.61,10a2.8,2.8,0,0,0,.89,1.77l.14.17A12.45,12.45,0,0,0,49,13.19a67.76,67.76,0,0,1,1.87-10A7.19,7.19,0,0,0,51.18,2a.45.45,0,0,0-.12-.29.35.35,0,0,0-.32-.11.37.37,0,0,0-.29.17A5.68,5.68,0,0,0,50.1,3c-1.74,5.74-5.28,14.27-8,14.27a1.4,1.4,0,0,1-1.24-.64C39,13.86,41.83,3.74,43,.55a.32.32,0,0,0,0-.3A.35.35,0,0,0,42.78,0a.34.34,0,0,0-.31,0,.38.38,0,0,0-.21.22c0,.13-4.59,13.06-2,16.75a2.21,2.21,0,0,0,1.9,1c2.4,0,4.75-4.26,6.6-8.87-.56,3.17-.94,6.72-.33,8.55a.43.43,0,0,0,.21.23.32.32,0,0,0,.3,0,.4.4,0,0,0,.25-.51h0a7.36,7.36,0,0,1-.27-2.09h.21a3.51,3.51,0,0,0,1.51-.47A2.31,2.31,0,0,0,52,13.07a2,2,0,0,0-.23-.92,15.9,15.9,0,0,1,2.08-1,.41.41,0,0,0,.23-.51Zm-3,1.91a1.17,1.17,0,0,1,.12.52c0,.33-.39.77-1,1.1a2,2,0,0,1-1.23.34C49,14.24,49.7,13.46,51.1,12.56Z" transform="translate(-0.01 0.03)" fill="#fff"/></svg>