<svg xmlns="http://www.w3.org/2000/svg" viewBox="0 0 114.6 31.43"><path d="M16.47,22.16a.68.68,0,0,0-.92.27c0,.08-4.23,7.65-9.56,7.65-2.82,0-4.64-2.82-4.64-7.2,0-10,8.06-21.53,13.32-21.53,2,0,2.89,1,2.89,3,0,2.69-1.09,6.64-4.16,8.89a.68.68,0,0,0-.19.94l0,.06a.68.68,0,0,0,.95.14c3.48-2.55,4.72-7,4.72-10C18.92,1.55,17.41,0,14.67,0,8.75,0,0,12.05,0,22.88c0,5.2,2.35,8.55,6,8.55,6.15,0,10.57-8,10.75-8.35a.68.68,0,0,0,.06-.52A.74.74,0,0,0,16.47,22.16Z" fill="#fff"/><path d="M41.51,29.81a2,2,0,0,1-1.9-.81c-1.76-2.4-.77-9.6,2.79-20.31,6.52-.89,11-.86,12,.07a.71.71,0,0,0,.48.19.74.74,0,0,0,.48-.22h0a.66.66,0,0,0,.18-.48.68.68,0,0,0-.21-.47c-.5-.47-2-1.88-12.42-.51.39-1.12.75-2.13,1.06-3l0-.18a.65.65,0,0,0,0-.51.66.66,0,0,0-.38-.35.67.67,0,0,0-.52,0,.71.71,0,0,0-.35.39l-.08.2c-.37,1-.82,2.26-1.29,3.65-3.5.5-6.43,1.09-7,1.21A.67.67,0,0,0,34.52,10h.14c1.16-.24,3.45-.68,6.25-1.11a92.53,92.53,0,0,0-2.59,9.39h0c-.56.61-2.44,2.34-3.57,2.34-.85,0-1.07-.91-1.33-2.42-.24-1.33-.5-2.84-1.94-2.84C30.2,15.36,29,16.91,28,18.7a.66.66,0,0,0-.37-.47.78.78,0,0,0-.37-.06.75.75,0,0,0-.33.07,9.4,9.4,0,0,1-3,1q0-.37,0-.75c0-2.24-1.42-3.27-2.73-3.27a2.8,2.8,0,0,0-1.71.62,2.36,2.36,0,0,0-.88,1.86,3.53,3.53,0,0,0,0,.46,5.05,5.05,0,0,0-.93,3,2.47,2.47,0,0,0,1.91,2.63,3.23,3.23,0,0,0,.44,0A3,3,0,0,0,22.07,23a5.61,5.61,0,0,0,1.55-2.42A10.25,10.25,0,0,0,26.13,20c-.45,1.31-.92,3.07-.38,3.59l-.07.85.51-.67a1,1,0,0,0,.79-.46,14.13,14.13,0,0,0,1-1.73c.69-1.34,2.52-4.91,3.52-4.91.28,0,.45.82.6,1.73C32.33,20,32.69,22,34.74,22a5.7,5.7,0,0,0,3.16-1.48c-.67,4-.69,7.5.62,9.29a3.37,3.37,0,0,0,2.82,1.37h.24a.68.68,0,0,0,.72-.64.69.69,0,0,0-.64-.72h-.15ZM21.2,22a1.61,1.61,0,0,1-1.31.42c-.67-.11-.76-1-.76-1.33a3.49,3.49,0,0,1,.32-1.52A2.55,2.55,0,0,0,20,20a4.92,4.92,0,0,0,2.15.63A4,4,0,0,1,21.2,22Zm.8-5a.82.82,0,0,0-.1-.26,2.09,2.09,0,0,1,.7,1.73,4.58,4.58,0,0,1-.08.83,4,4,0,0,1-1.85-.46,1.48,1.48,0,0,1-.46-.4,2.77,2.77,0,0,1,1.26-.65.65.65,0,0,0,.43-.29A.64.64,0,0,0,22,17Z" fill="#fff"/><path d="M65.27,7.27c.38-1.12.74-2.13,1.06-3l.07-.21a.65.65,0,0,0,0-.51.77.77,0,0,0-.91-.32.72.72,0,0,0-.36.39l-.07.2c-.37,1-.82,2.26-1.29,3.65-3.51.5-6.44,1.09-7,1.21a.67.67,0,0,0-.49.81.66.66,0,0,0,.62.51H57c1.17-.24,3.45-.68,6.25-1.11a93.79,93.79,0,0,0-2.57,9.32.93.93,0,0,0-.14.14c-.87,1.29-3.74,5-5.5,5.08a1.07,1.07,0,0,1-.84-.25,1.76,1.76,0,0,1-.38-1.27c0-2.8,1.92-5.74,2.77-5.74h.13a2.51,2.51,0,0,1,0,1.58.68.68,0,0,0,1.3.37,3.6,3.6,0,0,0-.18-2.77,1.47,1.47,0,0,0-1.21-.57c-1.26,0-2.5,1.49-3.29,3.33a.73.73,0,0,0-.22.21c-1.44,2.29-4,5.34-5.2,5.15a.13.13,0,0,1-.11-.08c-.57-1,.58-4.91,1.44-7.13a.68.68,0,0,0-.16-.73l.56-1.68-.91,1.5a.69.69,0,0,0-.72.36l-.28.53a2.39,2.39,0,0,0-1.93-1.46c-1.72-.13-3.23,2.91-3.77,4.85-.31,1.12-.65,3.08.53,3.68,1,.52,2.31-.32,3.94-2.54a5.26,5.26,0,0,0,.12,3.28,1.51,1.51,0,0,0,1.06.76,1.71,1.71,0,0,0,.32,0c1.49,0,3.23-1.74,4.51-3.34v.38a3,3,0,0,0,.8,2.25,2.39,2.39,0,0,0,1.69.62h.16c1.72-.08,3.69-2,5-3.65-.57,3.75-.52,7,.72,8.66a3.39,3.39,0,0,0,2.82,1.37H64a.68.68,0,0,0,.72-.64.69.69,0,0,0-.64-.72h-.15A2,2,0,0,1,62,29c-1.76-2.4-.76-9.6,2.8-20.31,6.51-.89,11-.86,12,.07a.75.75,0,0,0,.49.19.69.69,0,0,0,.47-.22.67.67,0,0,0,0-1l0,0C77.18,7.31,75.69,5.9,65.27,7.27ZM43.2,22.16c-.11-.11-.22-.79.14-2.12.61-2.2,1.86-3.86,2.38-3.86s1,.87,1.14,1.65C44.68,21.44,43.41,22.27,43.2,22.16Z" fill="#fff"/><path d="M114.56,15a.8.8,0,0,0-1-.45,49.11,49.11,0,0,0-6.79,3.24c-.28-.35-.57-.69-.87-1A18.15,18.15,0,0,1,104.52,15a.71.71,0,0,0-.21-.39h0a3.59,3.59,0,0,1-.51-1.74c0-1.67,2-2.54,3-2.54a.65.65,0,0,1,.61.26,3.45,3.45,0,0,1,0,2.71.8.8,0,0,0,1.52.49h0a4.63,4.63,0,0,0-.21-4.12,2.24,2.24,0,0,0-1.89-.92c-1.89,0-4.62,1.47-4.62,4.13a5,5,0,0,0,.57,2.25C100.89,17,98.27,19,96.39,19c-2.48,0-2.73-5.92-2.73-6a.8.8,0,0,0-.84-.76.78.78,0,0,0-.62.35c-.44.68-.92,1.5-1.43,2.37v.1c-1.38,2.37-3.68,6.33-5.07,6.33-.65,0-.88-.24-1-.45-1-1.69,1.13-7.42,3-11a.8.8,0,0,0-1.41-.74c-.5,1-4.81,9.38-2.92,12.51A2.58,2.58,0,0,0,85.65,23c2.3,0,4.41-3.62,6.44-7.12.08-.15.17-.29.25-.43.41,2.19,1.44,5.14,4,5.14S102,18,103.57,16.5c.33.44.69.86,1,1.28s.47.55.7.84c-4.41,2.75-7.12,5.49-7.3,7.38a1.92,1.92,0,0,0,1,1.91,2.48,2.48,0,0,0,1.3.31,9.75,9.75,0,0,0,4.23-1.32c2.44-1.36,3.9-3.21,3.9-4.94a5.61,5.61,0,0,0-.82-2.85A45.28,45.28,0,0,1,114.1,16a.78.78,0,0,0,.46-1ZM99.65,26.1c.1-1.11,2.41-3.58,6.64-6.22a4,4,0,0,1,.59,2c0,1.13-1.18,2.5-3.09,3.56s-3.57,1.26-3.92,1A.38.38,0,0,1,99.65,26.1Z" fill="#fff"/></svg>