<svg xmlns="http://www.w3.org/2000/svg" viewBox="0 0 144.5 19.97"><path d="M9.62,9.16a.4.4,0,0,0,0-.8,28.78,28.78,0,0,0-5.7.58c.68-2.45,1.44-4.74,2-6.16,3.8-1,7.31-1.3,8.58-.6.41.22.45.47.44.66a.38.38,0,0,0,.1.29.42.42,0,0,0,.28.14.4.4,0,0,0,.42-.38h0a1.46,1.46,0,0,0-.85-1.42C13.26.6,9.5,1,6.27,1.84c.12-.29.21-.51.29-.66a.37.37,0,0,0,.18.08A.4.4,0,0,0,7.2.94,1,1,0,0,0,7.07.2.59.59,0,0,0,6.62,0c-.26,0-.54.16-1.31,2.1A18,18,0,0,0,.16,4.34a.41.41,0,0,0-.08.56.39.39,0,0,0,.32.16L.56,5H.64A15.93,15.93,0,0,1,5,3.06c-.63,1.74-1.34,4-1.9,6.08a10.32,10.32,0,0,0-2.57.95.41.41,0,0,0-.19.24.42.42,0,0,0,0,.31.39.39,0,0,0,.34.19H.88A9,9,0,0,1,2.82,10c-.2.79-.37,1.52-.51,2.18-1,4.75-.33,5.64.26,5.89h.16a.42.42,0,0,0,.37-.24.42.42,0,0,0,0-.31.38.38,0,0,0-.21-.22c-.1,0-.27-.33-.29-1.14A26.82,26.82,0,0,1,3.69,9.81,27.55,27.55,0,0,1,9.62,9.16Z" transform="translate(0 0)" fill="#fff"/><path d="M13.83,9.52a.38.38,0,0,0,.2-.23.41.41,0,0,0-.27-.5c-1.25-.4-2.27.77-3,2l.06-.33L11,9.37a.4.4,0,0,0-.32-.47h0a.4.4,0,0,0-.3.06.39.39,0,0,0-.17.26l-.18,1c-.72,3.72-.71,3.74-.54,3.94a.41.41,0,0,0,.31.14c.3,0,.36-.16.57-.72.42-1.1,1.7-4.46,3.11-4A.37.37,0,0,0,13.83,9.52Z" transform="translate(0 0)" fill="#fff"/><path d="M22.3,9.25a.9.9,0,0,0-.72.32,2.18,2.18,0,0,0-.29-.82.84.84,0,0,0-.7-.41,2.18,2.18,0,0,0-1.73,1.31,5.33,5.33,0,0,0-.43.94.28.28,0,0,0-.1.09c-.93,1.29-2.47,2.66-3.5,2.66-.31,0-.55-.32-.55-.75a5.49,5.49,0,0,1,.05-.7,2.33,2.33,0,0,0,2-1.53A1.21,1.21,0,0,0,16.2,9a.85.85,0,0,0-.94-.07,4.07,4.07,0,0,0-1.78,3.65,1.43,1.43,0,0,0,1.3,1.55h.05c1.14,0,2.4-1,3.29-2a1.94,1.94,0,0,0,.18.85.83.83,0,0,0,.73.43c.63,0,1.24-.87,1.94-1.87l.17-.24h.09a.4.4,0,0,0,.22-.22,1.71,1.71,0,0,0,.09-.3,5.88,5.88,0,0,1,.52-.6,28.69,28.69,0,0,1-.87,2.91,47.17,47.17,0,0,0-1.78,6.41.4.4,0,0,0,.06.3.43.43,0,0,0,.33.17.42.42,0,0,0,.4-.33A45.35,45.35,0,0,1,22,13.37h0c.86-2.56,1.11-3.43.8-3.87A.53.53,0,0,0,22.3,9.25Zm-2.75.8c.33-.58.71-.91,1-.91l.05.06a2.09,2.09,0,0,1,.16,1.26c-.15.2-.3.42-.47.66-.37.52-1,1.48-1.32,1.5A3.64,3.64,0,0,1,19.55,10.05Zm-3.88-.43a.9.9,0,0,1-.06.46,1.56,1.56,0,0,1-1.06,1,2.56,2.56,0,0,1,1-1.37S15.67,9.64,15.67,9.62Z" transform="translate(0 0)" fill="#fff"/><path d="M54.76,10.49a.4.4,0,0,0-.3-.05,8.18,8.18,0,0,0-1.86.7,7.91,7.91,0,0,0,.18-1.37,1.52,1.52,0,0,0-.08-.56.59.59,0,0,0-.55-.39c-.5,0-1,.58-2,1.59a11,11,0,0,1-1.5,1.47,4.57,4.57,0,0,1,.84-2.22.39.39,0,0,0,0-.55h0a.41.41,0,0,0-.57,0,4.64,4.64,0,0,0-.79,1.49c-1.62,2.13-3.3,3.53-4,3.31-.12,0-.19-.22-.22-.33-.46-1.47.57-5.72,1.7-8.74,2.42-.21,4-.11,4.48.3a.43.43,0,0,0,.28.11.37.37,0,0,0,.28-.13.41.41,0,0,0,.11-.28.37.37,0,0,0-.13-.28c-.24-.23-.9-.84-4.69-.55a9.31,9.31,0,0,1,1.11-2,.46.46,0,0,0,.08-.3A.37.37,0,0,0,47,1.39a.39.39,0,0,0-.29-.09.42.42,0,0,0-.27.16A12,12,0,0,0,45.08,4.1l-1.49.17c.22-.63.42-1.2.6-1.67V2.48A.41.41,0,0,0,44,2a.41.41,0,0,0-.52.24v.12c-.21.58-.47,1.28-.73,2.07-2.09.31-3.8.65-4,.69a.4.4,0,0,0,.08.8h.08c.66-.14,2-.39,3.54-.63A39.48,39.48,0,0,0,41,10.58h0c-.44.46-1.43,1.33-2,1.33s-.6-.51-.75-1.37S38,8.91,37.13,8.91s-1.4.86-2,1.88h0a.43.43,0,0,0-.21-.23.36.36,0,0,0-.25,0h0a.3.3,0,0,0-.19.14C33.54,12,32,13.36,31,13.36c-.32,0-.55-.32-.55-.75a4.09,4.09,0,0,1,0-.7,2.32,2.32,0,0,0,2-1.53A1.22,1.22,0,0,0,32.2,9a.88.88,0,0,0-1-.07,3.18,3.18,0,0,0-1.36,1.6A4,4,0,0,1,27.66,12c-.56,0-.78-1.29-.8-1.92a.39.39,0,0,0-.25-.36V9.48l-.13.21h0a.42.42,0,0,0-.34.18c-.15.23-.32.53-.51.85-.37.63-1.22,2.11-1.63,2.11-.17,0-.21-.06-.23-.1-.31-.5.4-2.43,1-3.62a.39.39,0,0,0-.15-.53h0a.4.4,0,0,0-.54.17h0c-.28.54-1.67,3.29-1,4.41a1,1,0,0,0,.92.48c.84,0,1.55-1.18,2.24-2.36.25,1,.76,1.53,1.44,1.53a3.36,3.36,0,0,0,1.85-.8v.62a1.44,1.44,0,0,0,1.32,1.55h0a4.73,4.73,0,0,0,2.87-1.55c-.09.46-.11.88.07,1.06v.53l.31-.42h0a.57.57,0,0,0,.45-.27,7.46,7.46,0,0,0,.55-1c.39-.77,1.44-2.8,2-2.8.15,0,.25.48.33,1,.15.86.36,2,1.54,2a3.33,3.33,0,0,0,1.79-.83c-.38,2.29-.39,4.27.36,5.28a1.92,1.92,0,0,0,1.62.79h.14a.4.4,0,0,0,.38-.42h0a.4.4,0,0,0-.42-.38h0a1.14,1.14,0,0,1-1.08-.46c-1-1.36-.43-5.47,1.6-11.58.51-.07,1-.12,1.45-.17-1.13,3.14-2.08,7.28-1.58,8.89a1.19,1.19,0,0,0,.75.86,1.58,1.58,0,0,0,.38.05c1.12,0,2.57-1.4,3.59-2.57a.79.79,0,0,0,.06.22.57.57,0,0,0,.53.37c.59,0,1.25-.69,2.28-1.81A13.61,13.61,0,0,1,52,9.72h0a8.51,8.51,0,0,1-.35,1.93c-3.16,2.08-5.26,5.89-5.09,7.37a.89.89,0,0,0,.91.87h0c2,0,4.13-5.14,4.88-7.74a8.17,8.17,0,0,1,2.31-1,.39.39,0,0,0,.3-.48h0A.35.35,0,0,0,54.76,10.49ZM31.67,9.62a.89.89,0,0,1-.07.46,1.55,1.55,0,0,1-1.05,1,2.51,2.51,0,0,1,1-1.37A.74.74,0,0,0,31.67,9.62Zm15.78,9.52c-.06,0-.09,0-.11-.16-.12-1,1.39-4,3.9-6C50.2,16.09,48.54,19.14,47.45,19.14Z" transform="translate(0 0)" fill="#fff"/><path d="M90,1.32a.42.42,0,0,0-.51.31h0a74.61,74.61,0,0,1-2.78,7.85,1.55,1.55,0,0,0-.19-.24,1.07,1.07,0,0,0-.84-.36A2.13,2.13,0,0,0,84,10.2c-.08.15-.15.3-.22.45h0c-.93,1.29-2.47,2.66-3.5,2.66-.31,0-.55-.32-.55-.75a5.49,5.49,0,0,1,0-.7,2.33,2.33,0,0,0,2-1.53A1.22,1.22,0,0,0,81.55,9a.85.85,0,0,0-.94-.07,3,3,0,0,0-1.37,1.64,3.71,3.71,0,0,1-4,1.19c-.43-.17-.65-.43-.65-.57a4.82,4.82,0,0,1,2-1.85c.29-.11.49-.1.59,0a.4.4,0,0,0,.56,0,.38.38,0,0,0,.14-.29.43.43,0,0,0-.1-.29,1.26,1.26,0,0,0-1.47-.21,4.65,4.65,0,0,0-1.37.9A28.37,28.37,0,0,1,77.88,1.8a.4.4,0,0,0-.09-.56h0a.4.4,0,0,0-.3-.07.44.44,0,0,0-.26.16c-1.24,1.74-2.63,6-3.35,9.19a14.72,14.72,0,0,0-2.08,1l-.24-.28a5.24,5.24,0,0,1-.53-.71.33.33,0,0,0,0-.14.39.39,0,0,0-.09-.29.28.28,0,0,0-.1-.09h0c0-.48.6-.74.91-.74h.11a1.06,1.06,0,0,1,0,.82.41.41,0,0,0,.27.5h0a.41.41,0,0,0,.5-.26,1.75,1.75,0,0,0-.09-1.53.91.91,0,0,0-.76-.37,1.71,1.71,0,0,0-1.7,1.46L69,9.84c.11-1.19.23-2.34.35-3.41.45-4.26.56-5.68.1-6.18A.59.59,0,0,0,69,.05c-2,0-4.89,5.24-7,10.21a14.86,14.86,0,0,0-3.64,1.1.43.43,0,0,0-.21.23.39.39,0,0,0,0,.3.41.41,0,0,0,.36.23h.17a13.43,13.43,0,0,1,2.92-.93c-.68,1.64-1.32,3.36-1.92,5.12a.32.32,0,0,0,0,.3.37.37,0,0,0,.23.21.39.39,0,0,0,.3,0,.38.38,0,0,0,.2-.23c.66-1.91,1.37-3.78,2.12-5.56a30.34,30.34,0,0,1,5.55-.36,66.48,66.48,0,0,0-.29,8.11.4.4,0,0,0,.41.39h0a.41.41,0,0,0,.28-.13.44.44,0,0,0,.11-.29,62.87,62.87,0,0,1,.3-8c.48,0,1,.06,1.43.1a4.42,4.42,0,0,0,.71,1,1.15,1.15,0,0,1,.14.17c-.8.51-2.35,1.62-2.44,2.55a.8.8,0,0,0,.4.77.9.9,0,0,0,.51.13A3.51,3.51,0,0,0,71.15,15a2.3,2.3,0,0,0,1.4-1.81,2,2,0,0,0-.23-.93,14.55,14.55,0,0,1,1.43-.7,12.6,12.6,0,0,0-.3,2.29.4.4,0,1,0,.8,0,10.46,10.46,0,0,1,.17-1.58,2.39,2.39,0,0,0,.56.32,3.77,3.77,0,0,0,1.33.24A4.64,4.64,0,0,0,78.88,12v.68a1.43,1.43,0,0,0,1.3,1.55h0a5.2,5.2,0,0,0,3.14-1.81v.1c0,1.05.55,1.43,1.07,1.43s1.34-.7,2.15-2.2h.09A.41.41,0,0,0,87,11.3a3.11,3.11,0,0,0,0-.61c.15-.31.29-.63.44-1-.65,3.2-1,6.31-.57,7.77a.4.4,0,0,0,.38.27h.12a.4.4,0,0,0,.26-.5c-1-3,2.45-14.87,2.61-15.42h0A.39.39,0,0,0,90,1.32Zm-.3.33h0ZM84.4,13.06c-.24,0-.27-.4-.27-.63a4,4,0,0,1,.52-1.84c.31-.56.7-.9,1-.9a.29.29,0,0,1,.26.11,1.47,1.47,0,0,1,.28.75c-1.11,2.32-1.66,2.51-1.81,2.51ZM81,9.62a.72.72,0,0,1-.06.46,1.56,1.56,0,0,1-1.06,1,2.56,2.56,0,0,1,1-1.37S81,9.64,81,9.62ZM68.84.86a30.46,30.46,0,0,1-.34,5.48c-.12,1.09-.24,2.26-.35,3.47a30.83,30.83,0,0,0-5.26.3C65.55,4,67.79,1.09,68.84.86Zm2.78,11.75a1.13,1.13,0,0,1,.12.51c0,.34-.39.77-1,1.11a1.92,1.92,0,0,1-1.23.34C69.55,14.29,70.22,13.51,71.62,12.61Z" transform="translate(0 0)" fill="#fff"/><path d="M105.21,18.14a2.19,2.19,0,0,1-2-1c3-2.16,4.13-7.53,4.13-10.49,0-3.81-2-6.48-4.85-6.48-2.52,0-5.22,1.86-5.22,6a6,6,0,0,0,.53,2.46,13.43,13.43,0,0,0-.8,4.48c0,3.4,1.73,4.92,3.45,4.92a4.47,4.47,0,0,0,2.06-.5,3,3,0,0,0,2.68,1.41.4.4,0,0,0,0-.8h0Zm-6-2.89a.4.4,0,0,0,.4.4h0a2.58,2.58,0,0,1,2.4,1.21,3.67,3.67,0,0,1-1.59.37c-1.61,0-2.65-1.62-2.65-4.12a13,13,0,0,1,.52-3.62,6.53,6.53,0,0,0,2.77,2.3.4.4,0,0,0,.52-.22.4.4,0,0,0-.22-.53,5.51,5.51,0,0,1-2.73-2.53A7.64,7.64,0,0,1,101.23,5a.4.4,0,0,0,.13-.54h0a.44.44,0,0,0-.26-.18.37.37,0,0,0-.29.06,7.73,7.73,0,0,0-2.54,3.15,4.94,4.94,0,0,1-.19-1.38c0-3.54,2.29-5.15,4.42-5.15,2.38,0,4.05,2.34,4.05,5.68,0,2.89-1.21,7.9-3.8,9.82a3.41,3.41,0,0,0-3.09-1.6.4.4,0,0,0-.4.4h0Z" transform="translate(0 0)" fill="#fff"/><path d="M124,17.15a1.14,1.14,0,0,1-1.08-.46c-1-1.36-.44-5.47,1.59-11.58,3.72-.5,6.26-.49,6.82,0a.44.44,0,0,0,.29.11.41.41,0,0,0,.28-.13h0a.4.4,0,0,0,0-.56c-.29-.27-1.14-1.08-7.08-.3.22-.63.42-1.2.6-1.67V2.44a.41.41,0,0,0-.24-.52.4.4,0,0,0-.51.24v.12c-.21.58-.46,1.28-.73,2.07-2.07.3-3.79.65-4,.69a.42.42,0,0,0-.31.48.41.41,0,0,0,.39.32h0c.66-.14,2-.39,3.55-.63-.55,1.69-1.08,3.53-1.46,5.27a16.79,16.79,0,0,0-2.15,1l-.23-.28A2.09,2.09,0,0,1,119,10c0-.48.6-.74.91-.74H120a1.16,1.16,0,0,1,0,.82.39.39,0,0,0,.27.5.4.4,0,0,0,.5-.26,1.79,1.79,0,0,0-.09-1.53.91.91,0,0,0-.76-.37A1.7,1.7,0,0,0,118.25,10a1.87,1.87,0,0,0,.2.77c-.77,1-2.3,2.56-3.42,2.56-.31,0-.55-.32-.55-.75,0-.23,0-.47,0-.7a2.32,2.32,0,0,0,2-1.53A1.19,1.19,0,0,0,116.4,9a.83.83,0,0,0-.94-.07,3.07,3.07,0,0,0-1.36,1.61A4,4,0,0,1,111.87,12c-.54,0-.78-1.18-.81-1.92a.4.4,0,0,0-.24-.36V9.48l-.12.21a.36.36,0,0,0-.34.18c-.16.24-.33.54-.52.85-.36.63-1.22,2.11-1.62,2.11-.18,0-.22-.06-.24-.1-.3-.5.4-2.43,1-3.62a.41.41,0,0,0-.17-.54.4.4,0,0,0-.54.17h0c-.29.54-1.68,3.29-1,4.41a1,1,0,0,0,.92.48c.83,0,1.55-1.18,2.23-2.36.26,1,.76,1.53,1.45,1.53a3.34,3.34,0,0,0,1.85-.81,3.21,3.21,0,0,0,0,.62A1.43,1.43,0,0,0,115,14.14c1.41,0,3-1.57,3.88-2.64l.22.27.15.18c-.8.51-2.35,1.62-2.44,2.55a.8.8,0,0,0,.4.77.9.9,0,0,0,.51.13,3.51,3.51,0,0,0,1.51-.47,2.3,2.3,0,0,0,1.4-1.81,2,2,0,0,0-.23-.93c.49-.27,1-.51,1.5-.73-.45,2.47-.5,4.63.29,5.7a1.94,1.94,0,0,0,1.63.79H124a.38.38,0,0,0,.37-.41h0a.36.36,0,0,0-.12-.27A.47.47,0,0,0,124,17.15Zm-4.21-4.54a1.13,1.13,0,0,1,.12.51c0,.34-.39.77-1,1.11a1.92,1.92,0,0,1-1.23.34c0-.28.66-1.06,2.06-2Zm-3.87-3a.8.8,0,0,1-.07.46,1.52,1.52,0,0,1-1,1,2.51,2.51,0,0,1,1-1.37.45.45,0,0,0,0-.08Z" transform="translate(0 0)" fill="#fff"/><path d="M125.13,8.81h0a.38.38,0,0,0,.17.52h.19a.37.37,0,0,0,.35-.22l.41-.81a.4.4,0,0,0-.15-.55.39.39,0,0,0-.35,0h-.1l-.19.38-.3.61.16.13h0l.08.07h-.09Zm.53.27h0Z" transform="translate(0 0)" fill="#fff"/><path d="M144.47,10.7a.41.41,0,0,0-.52-.24,17,17,0,0,0-2.24,1.07,3.11,3.11,0,0,1-.23-.28,2.1,2.1,0,0,1-.7-1.24c0-.48.61-.74.91-.74h.11a1.06,1.06,0,0,1,0,.82.41.41,0,0,0,.27.5.39.39,0,0,0,.3,0,.35.35,0,0,0,.2-.23,1.75,1.75,0,0,0-.09-1.53.91.91,0,0,0-.76-.37A1.69,1.69,0,0,0,140,10a1.64,1.64,0,0,0,.19.75,3.73,3.73,0,0,1-1.84,1.15c-.48,0-.6-.51-.75-1.37s-.29-1.63-1.12-1.63-1.4.87-2,1.88a.39.39,0,0,0-.21-.24.41.41,0,0,0-.22,0h-.19a5,5,0,0,1-1.68.55,2.81,2.81,0,0,0,0-.41,1.59,1.59,0,0,0-1.31-1.84,1.56,1.56,0,0,0-1.25.31,1.37,1.37,0,0,0-.51,1.08,1.13,1.13,0,0,0,0,.26v.06h0c-.75.83-2.45,2.41-3.5,2.41a.52.52,0,0,1-.5-.26,2.86,2.86,0,0,1,.34-2.35.4.4,0,0,0-.14-.55h0a.38.38,0,0,0-.53.1s0,0,0,0a3.49,3.49,0,0,0-.34,3.15,1.3,1.3,0,0,0,1.19.67,5.45,5.45,0,0,0,3-1.62h0a1.4,1.4,0,0,0,1.1,1.51H130a1.78,1.78,0,0,0,1.13-.43,3.21,3.21,0,0,0,.88-1.38,6.14,6.14,0,0,0,1.41-.32c-.26.75-.52,1.74-.22,2v.53l.32-.42h0a.54.54,0,0,0,.44-.27,7.52,7.52,0,0,0,.56-1c.39-.77,1.44-2.8,2-2.8.16,0,.27.61.33,1,.15.86.35,2,1.54,2a4.17,4.17,0,0,0,2.28-1.25,3.88,3.88,0,0,0,.26.31L141,12c-.8.51-2.35,1.62-2.43,2.55a.76.76,0,0,0,.39.77.9.9,0,0,0,.51.13A3.51,3.51,0,0,0,141,15a2.3,2.3,0,0,0,1.4-1.81,2,2,0,0,0-.23-.93,17.29,17.29,0,0,1,2.08-1,.38.38,0,0,0,.22-.21A.35.35,0,0,0,144.47,10.7Zm-3,1.91a1.13,1.13,0,0,1,.12.51c0,.34-.39.77-1,1.11a1.92,1.92,0,0,1-1.23.34C139.4,14.29,140.07,13.51,141.47,12.61ZM131.08,9.84a.11.11,0,0,0,0-.08,1.24,1.24,0,0,1,.34.93,3.53,3.53,0,0,1,0,.46,2.32,2.32,0,0,1-1-.26.72.72,0,0,1-.25-.21,1.43,1.43,0,0,1,.7-.36A.4.4,0,0,0,131.08,9.84Zm-1.49,1.5a1.83,1.83,0,0,0,.31.24,2.92,2.92,0,0,0,1.22.36,2.16,2.16,0,0,1-.54.76.88.88,0,0,1-.74.23c-.37-.06-.42-.54-.42-.74A2.26,2.26,0,0,1,129.59,11.34Z" transform="translate(0 0)" fill="#fff"/></svg>