<svg xmlns="http://www.w3.org/2000/svg" viewBox="0 0 64.92 19.64"><path d="M14.87,1.47C13.26.6,9.5,1,6.27,1.84c.12-.29.21-.51.29-.66a.37.37,0,0,0,.18.08A.4.4,0,0,0,7.2,1h0A1,1,0,0,0,7.07.2.59.59,0,0,0,6.62,0c-.26,0-.54.16-1.31,2.1A18,18,0,0,0,.16,4.34a.41.41,0,0,0-.08.56.39.39,0,0,0,.32.16L.56,5H.64A15.93,15.93,0,0,1,5,3.06c-.63,1.74-1.34,4-1.9,6.08a10.32,10.32,0,0,0-2.57.95.41.41,0,0,0-.19.24.42.42,0,0,0,0,.31.39.39,0,0,0,.34.19H.88A9,9,0,0,1,2.82,10c-.2.79-.37,1.52-.51,2.18-1,4.75-.33,5.64.26,5.89h.16a.42.42,0,0,0,.37-.24.42.42,0,0,0,0-.31.38.38,0,0,0-.21-.22c-.1,0-.27-.33-.29-1.14A26.82,26.82,0,0,1,3.69,9.81a27.55,27.55,0,0,1,5.93-.65.4.4,0,0,0,0-.8,28.78,28.78,0,0,0-5.7.58c.68-2.45,1.44-4.74,2-6.16,3.8-1,7.31-1.3,8.58-.6.41.22.45.47.44.66a.38.38,0,0,0,.1.29.42.42,0,0,0,.28.14.42.42,0,0,0,.42-.38A1.47,1.47,0,0,0,14.87,1.47Z" transform="translate(0 0)" fill="#fff"/><path d="M29.54,10.48c-.6-.06-1.21-.1-1.83-.13.11-1.19.24-2.34.35-3.41.45-4.26.56-5.68.11-6.18a.57.57,0,0,0-.44-.2c-1.95,0-4.89,5.25-7,10.21a14.86,14.86,0,0,0-3.64,1.1.41.41,0,0,0-.2.23.39.39,0,0,0,0,.3.41.41,0,0,0,.37.23h.17a12.91,12.91,0,0,1,2.92-.93c-.69,1.6-1.35,3.3-1.94,5.08a.39.39,0,0,0,0,.3.43.43,0,0,0,.23.21.42.42,0,0,0,.31,0,.41.41,0,0,0,.2-.23c.65-1.91,1.36-3.78,2.11-5.56a32.33,32.33,0,0,1,5.56-.36,68.55,68.55,0,0,0-.3,8.11.42.42,0,0,0,.42.39h0a.49.49,0,0,0,.28-.13.38.38,0,0,0,.1-.29,66.79,66.79,0,0,1,.3-8c.61,0,1.22.07,1.82.12a.34.34,0,0,0,.29-.09.36.36,0,0,0,.15-.27.39.39,0,0,0-.09-.29A.4.4,0,0,0,29.54,10.48ZM27.26,6.85c-.11,1.09-.24,2.26-.35,3.47a30.83,30.83,0,0,0-5.26.3c2.67-6.1,4.9-9,6-9.25A31.44,31.44,0,0,1,27.26,6.85Z" transform="translate(0 0)" fill="#fff"/><path d="M48.44,7.13c0-3.81-2-6.48-4.86-6.48-2.51,0-5.21,1.87-5.21,5.95a6,6,0,0,0,.53,2.46,13.39,13.39,0,0,0-.8,4.56c0,3.4,1.74,4.92,3.46,4.92a4.47,4.47,0,0,0,2.06-.5,3,3,0,0,0,2.68,1.42.41.41,0,0,0,0-.81,2.19,2.19,0,0,1-2-1C47.31,15.46,48.44,10.09,48.44,7.13ZM43.84,17a3.39,3.39,0,0,0-3.09-1.59.4.4,0,0,0,0,.8,2.58,2.58,0,0,1,2.4,1.21,3.67,3.67,0,0,1-1.59.37c-1.61,0-2.66-1.62-2.66-4.12A12.35,12.35,0,0,1,39.43,10a6.4,6.4,0,0,0,2.77,2.3.4.4,0,0,0,.3-.74A5.62,5.62,0,0,1,39.77,9a7.71,7.71,0,0,1,2.56-3.5.37.37,0,0,0,.17-.25.39.39,0,0,0,0-.3.44.44,0,0,0-.26-.18.4.4,0,0,0-.3.06A7.74,7.74,0,0,0,39.36,8a4.94,4.94,0,0,1-.19-1.38c0-3.54,2.29-5.14,4.41-5.14,2.39,0,4.06,2.33,4.06,5.67C47.64,10,46.43,15,43.84,17Z" transform="translate(0 0)" fill="#fff"/><path d="M64.48,10.42a16,16,0,0,0-4.89,1.78l-.47-.53c-1.2-1.35-2.57-2.89-2.57-4.82a5.43,5.43,0,0,1,5.36-5.47,1.86,1.86,0,0,1,1.84,1.26,4.9,4.9,0,0,1-1.4,5,.4.4,0,0,0,0,.56.42.42,0,0,0,.57,0,5.76,5.76,0,0,0,1.59-5.84A2.61,2.61,0,0,0,61.91.58a6.23,6.23,0,0,0-6.16,6.27c0,2.23,1.47,3.89,2.79,5.38l.34.38c-2.51,1.55-4.41,3.62-4.47,4.9a1,1,0,0,0,.8,1.08,2.47,2.47,0,0,0,.6.08,7,7,0,0,0,3.77-1.45A3.12,3.12,0,0,0,61,14.92a3.61,3.61,0,0,0-.91-2.08,15.15,15.15,0,0,1,4.51-1.63.41.41,0,0,0,.32-.47h0A.41.41,0,0,0,64.48,10.42Zm-4.25,4.5a2.43,2.43,0,0,1-1.14,1.66,5.45,5.45,0,0,1-3.67,1.24c-.17-.05-.22-.11-.21-.27,0-.89,1.65-2.76,4.2-4.31A3,3,0,0,1,60.23,14.92Z" transform="translate(0 0)" fill="#fff"/><path d="M13.5,10.92c-.34,0-1.24.57-1.24.91a.62.62,0,0,0,.62.62c.34,0,1-.53,1-.87S13.84,10.92,13.5,10.92Z" transform="translate(0 0)" fill="#fff"/><path d="M34.35,10.77c-.34,0-1.24.56-1.24.91a.62.62,0,0,0,.62.62c.34,0,1-.53,1-.87S34.69,10.77,34.35,10.77Z" transform="translate(0 0)" fill="#fff"/><path d="M52.16,10.61c-.34,0-1.25.57-1.25.92a.64.64,0,0,0,.63.62c.34,0,1-.53,1-.87S52.5,10.61,52.16,10.61Z" transform="translate(0 0)" fill="#fff"/></svg>