<svg xmlns="http://www.w3.org/2000/svg" viewBox="0 0 146.6 70.27"><path d="M22.86,30.51c-5.73.85-11.54-2.5-15.32-4.84A41.19,41.19,0,0,0,15,23h0c3.89-1.89,12.87-7,12.87-14.72C27.87,3.41,23.51,0,17.28,0a24.1,24.1,0,0,0-17,6.58A1,1,0,0,0,.23,7.92,1,1,0,0,0,1.58,8,23.94,23.94,0,0,1,10,3,161.14,161.14,0,0,0,3.42,23.33a1.93,1.93,0,0,0-1.3,0,1.34,1.34,0,0,0-.8,1A1.4,1.4,0,0,0,1.8,25.8a2.15,2.15,0,0,0,1,.41c-1,4.87-1.26,8-.62,9.42a.94.94,0,0,0,.87.57h.24l.14-.06a1,1,0,0,0,.5-1.25h0c-.28-.64-.53-2.6.81-8.63h.07l1,.62C9.2,29,14.94,32.55,21,32.55a15.73,15.73,0,0,0,2.17-.16,1,1,0,0,0,.44-1.34,1,1,0,0,0-.73-.54ZM11.68,3.79a1,1,0,0,0-.34-1.19,23.76,23.76,0,0,1,5.94-.69C22.39,1.91,26,4.53,26,8.28c0,6.64-8.21,11.27-11.75,13a35.3,35.3,0,0,1-9,3h0A166.64,166.64,0,0,1,11.68,3.79Z" transform="translate(-0.01)" fill="#fff"/><path d="M33.23,20.82a1,1,0,0,0-.62.38c-1.84,2.55-4.87,5.26-6.87,5.26-.55,0-1-.58-1-1.34a10.66,10.66,0,0,1,.08-1.26,4.83,4.83,0,0,0,4.06-3.15,2.55,2.55,0,0,0-.35-2.87,1.84,1.84,0,0,0-2-.17c-1.77.81-3.65,3.69-3.65,7.45a3,3,0,0,0,2.75,3.23h.11c3.2,0,6.9-3.95,8.42-6a1,1,0,0,0,.16-.71.93.93,0,0,0-.38-.62A1,1,0,0,0,33.23,20.82Zm-7.8,1a4.85,4.85,0,0,1,1.85-2.36,1.92,1.92,0,0,1-.14.62,3,3,0,0,1-1.71,1.7Z" transform="translate(-0.01)" fill="#fff"/><path d="M47.89,19.15c-.21,0-6.16,1.69-8.14,1.85a.94.94,0,1,0,.13,1.87h0A73.4,73.4,0,0,0,47.77,21a.93.93,0,0,0,.69-.24,1,1,0,0,0,.32-.66h0A1,1,0,0,0,47.89,19.15Z" transform="translate(-0.01)" fill="#fff"/><path d="M110.34,18.76l.25.11h.18a1,1,0,0,0,.85-.52l.82-1.64A1,1,0,0,0,112,15.4a.84.84,0,0,0-.71-.05l-.29-.1-.42.9c-.14.25-.33.64-.63,1.23v.12A.94.94,0,0,0,110.34,18.76Z" transform="translate(-0.01)" fill="#fff"/><path d="M145.35,20.74a16.37,16.37,0,0,0-4.56,2.13,10.52,10.52,0,0,0,0-4.4,1.38,1.38,0,0,0-1.24-1c-.73,0-1.37.43-2.18,1.38a3.1,3.1,0,0,0-.26-.47,2,2,0,0,0-1.46-1c-2-.2-3.64,1.58-4.67,3.56h0c-.8.85-2.82,2.62-4,2.62-.77,0-1-.77-1.35-2.62-.26-1.51-.59-3.4-2.39-3.4-1.45,0-2.75,1.59-3.91,3.51a1.33,1.33,0,0,0-.14-.19,1,1,0,0,0-1.34.08c-1.11,1.24-4.74,4.78-6.9,4.78a.85.85,0,0,1-.85-.45c-.53-.94-.22-3.06.66-4.56a.94.94,0,0,0-.31-1.31,1,1,0,0,0-1.32.31,9.25,9.25,0,0,0-.49,1l-.14.11c-1.14,1.31-3.22,3.16-4.29,3.16s-1.21-.58-1.67-2c-.31-1-.69-2.18-1.92-2.18-1,0-1.89,1-3.75,3.15l-.33.38v-.21c.72-3.21,1.13-5.39.34-6.43a1.52,1.52,0,0,0-1.18-.59c-1.5,0-3.51,2.41-6.5,6.9a8,8,0,0,1,.48-1.13,1,1,0,0,0,.08-.72,1,1,0,0,0-1.23-.54,1,1,0,0,0-.45.37,10.71,10.71,0,0,1-3,1v-.64c0-2.69-1.71-3.92-3.3-3.92a3.4,3.4,0,0,0-2.07.74,3,3,0,0,0-.89,1.28H76.48c1.4-8,3-15.09,4-17A1,1,0,0,0,79,1.07a1,1,0,0,0-.27.56c-1.18,2.43-3,10.82-4.2,17.84a84.77,84.77,0,0,0-12.52,1.2c1.64-8,3.49-17.16,3.49-19.64a.95.95,0,1,0-1.9,0c0,2.3-1.92,11.72-3.46,19.29L60,21a25.47,25.47,0,0,0-7.63,2.62.93.93,0,0,0-.32,1.29v0a1,1,0,0,0,1.31.31,22.46,22.46,0,0,1,6.21-2.16,101.07,101.07,0,0,0-1.86,10.35,1,1,0,0,0,1.25.66,1,1,0,0,0,.66-.66c0-1,1.15-6.72,2-10.78a78.52,78.52,0,0,1,12.61-1.32,103.81,103.81,0,0,0-1.65,14.5.95.95,0,1,0,1.9,0A105.8,105.8,0,0,1,76.16,21.3h2.28a5.93,5.93,0,0,0-.81,3.05A3,3,0,0,0,80,27.53h.54a3.58,3.58,0,0,0,2.35-.91,6.71,6.71,0,0,0,1.78-2.73,12.83,12.83,0,0,0,2.53-.55c-.59,1.81-1.16,4.12-.65,5l-.26,2,1.07-1.65a1.06,1.06,0,0,0,.8-.5L89,26.84c3.94-6.17,5.69-8.2,6.43-8.69a23.67,23.67,0,0,1-.74,4.57c-.5,2.24-.68,3.07-.22,3.65a1.26,1.26,0,0,0,.24.22v.07h.07a1,1,0,0,0,.49.12c.8,0,1.5-.78,3-2.56a25,25,0,0,1,2.16-2.33,5.93,5.93,0,0,1,.24.71c.4,1.27,1.07,3.4,3.51,3.4A6.61,6.61,0,0,0,108,24.12a4.55,4.55,0,0,0,.5,2.14,2.78,2.78,0,0,0,2.5,1.41c1.77,0,3.82-1.32,5.45-2.66a3,3,0,0,0,.12,2.28l-.12,1.5.9-1.18a1.37,1.37,0,0,0,1-.59,17,17,0,0,0,1.12-2c.71-1.36,2.84-5.52,3.88-5.52a5.62,5.62,0,0,1,.51,1.83c.29,1.67.73,4.19,3.22,4.19A5.42,5.42,0,0,0,130,24.4c-.18,2,.76,2.65,1.23,2.85,1.63.69,3.28-1.19,5-3.54h.07a1,1,0,0,0,1.21-.59,6.87,6.87,0,0,0,.34-1.68,17.81,17.81,0,0,1,1.34-1.67,20.1,20.1,0,0,1-.55,4.76c-4.78,4-8.13,9.84-8.28,12.82a2.25,2.25,0,0,0,1.31,2.48,2.31,2.31,0,0,0,.86.17,3.27,3.27,0,0,0,2.29-1.12c2.35-2.34,4.46-8.33,5.55-13.33a16,16,0,0,1,5.57-3,1,1,0,0,0-.51-1.83ZM132.28,38.07a1.08,1.08,0,0,1-.1-.61c.1-2.14,2.29-6.16,5.56-9.57-1.09,3.9-2.72,8-4.34,9.65C133.08,37.85,132.63,38.21,132.28,38.07Zm13.18-16.94ZM132,23.66c.53-2.06,2.09-4.36,3.4-4.36h0a.53.53,0,0,1,.12.14,2.93,2.93,0,0,1,.35,1.39l-.41.58c-.87,1.21-2.91,4.05-3.56,4.1C131.84,25.44,131.64,24.91,132,23.66ZM82.13,20.72a1,1,0,0,0,.61-.41.93.93,0,0,0,.15-.39,3.08,3.08,0,0,1,.31,1.4,4.82,4.82,0,0,1,0,.76,4.25,4.25,0,0,1-1.88-.5A1.93,1.93,0,0,1,81,21.3,2.86,2.86,0,0,1,82.13,20.72Zm-1.84,2.49a5.59,5.59,0,0,0,2.29.72,4,4,0,0,1-1,1.28,1.61,1.61,0,0,1-1.35.44c-.63-.1-.71-1-.72-1.34a3.75,3.75,0,0,1,.26-1.44A2.9,2.9,0,0,0,80.29,23.21Z" transform="translate(-0.01)" fill="#fff"/><path d="M74.45,47.66c-2.36-.73-4.29,1.14-5.71,3.4V51l.38-2A1,1,0,0,0,69,48.3a1,1,0,0,0-.61-.4,1,1,0,0,0-.72.15.9.9,0,0,0-.39.61l-.38,2c-.05.28-.1.52-.15.78-1.53,1.57-3.17,2.62-4.15,2.62s-1.42-2.42-1.46-3.71a1,1,0,0,0-.5-.81l-.09-.85-.44.74a1,1,0,0,0-.72.43c-.3.47-.64,1-1,1.71-.66,1.14-2.4,4.14-3.12,4.14-.27,0-.32-.07-.34-.12-.53-.87.65-4.44,2-7.1a1,1,0,0,0-1.39-1.44,1.05,1.05,0,0,0-.29.55,28.77,28.77,0,0,0-1.58,3.7,11,11,0,0,1-3,1v-.64c0-2.69-1.71-3.92-3.3-3.92a3.28,3.28,0,0,0-2.07.74,2.89,2.89,0,0,0-1.07,2.27v.39a17,17,0,0,0-3,1.13,13.68,13.68,0,0,0,.31-2.47,2.86,2.86,0,0,0-.19-1.16,1.31,1.31,0,0,0-1.23-.88C39,47.76,37.91,48.93,36,51a31.85,31.85,0,0,1-2.72,2.73,9.07,9.07,0,0,1,1.62-4,1,1,0,0,0-.21-1.4,1.07,1.07,0,0,0-.54-.19,1,1,0,0,0-.66.31c-1.31,1.44-2.58,5.29-1.95,6.71a1.32,1.32,0,0,0,1.21.82c1.24,0,2.58-1.39,4.65-3.66.59-.64,1.56-1.7,2.18-2.26a18.82,18.82,0,0,1-.69,3.56C32.51,57.8,28.4,65.3,28.76,68.4a1.92,1.92,0,0,0,2,1.87h0c4.43,0,8.64-11.21,9.9-15.54a16.54,16.54,0,0,1,2.74-1.34,5.86,5.86,0,0,0-.13,1.26,3,3,0,0,0,2.32,3.18,4.86,4.86,0,0,0,.54,0,3.58,3.58,0,0,0,2.35-.91,6.71,6.71,0,0,0,1.78-2.73,12.15,12.15,0,0,0,2.79-.64,4.43,4.43,0,0,0,.24,3,2.17,2.17,0,0,0,2,1c1.67,0,3.08-2.19,4.43-4.5.55,1.83,1.57,2.85,2.93,2.85a6.62,6.62,0,0,0,3.57-1.49c-.7,3.71-.62,3.82-.33,4.17a1,1,0,0,0,.75.36c.7,0,.86-.42,1.28-1.53,2.22-5.85,4.26-8.54,6-8a1,1,0,0,0,.56-1.82ZM47.71,51a1,1,0,0,0,.61-.41.93.93,0,0,0,.15-.39,3.05,3.05,0,0,1,.31,1.4,4.82,4.82,0,0,1,0,.76,4.25,4.25,0,0,1-1.88-.5,1.93,1.93,0,0,1-.36-.28A2.86,2.86,0,0,1,47.71,51Zm-2.32,2.15a3.21,3.21,0,0,0,.48.34,5.59,5.59,0,0,0,2.29.72,4,4,0,0,1-1,1.28,1.61,1.61,0,0,1-1.35.44c-.63-.1-.71-1-.72-1.34a3.9,3.9,0,0,1,.3-1.44ZM38,56.6c-2,5.95-5.25,11.78-7.31,11.8a.87.87,0,0,1-.05-.22c-.23-2,2.61-7.6,7.36-11.58Z" transform="translate(-0.01)" fill="#fff"/><path d="M121.91,39.3c-.58-.55-2.3-2.17-14-.67.4-1.16.78-2.22,1.11-3.11l.09-.24a.93.93,0,0,0,0-.73.91.91,0,0,0-.53-.49,1,1,0,0,0-1.23.57l-.08.23c-.5,1.34-1,2.71-1.44,4.06-4.14.61-7.52,1.3-7.9,1.37a1,1,0,0,0,.19,1.89h.19c1.29-.27,3.78-.75,6.85-1.22a104.9,104.9,0,0,0-2.9,10.34,1.29,1.29,0,0,0-.17.16c-1.84,2.55-4.88,5.26-6.88,5.26-.54,0-1-.58-1-1.34a8.88,8.88,0,0,1,.08-1.26A4.86,4.86,0,0,0,98.3,51,2.55,2.55,0,0,0,98,48.1a1.84,1.84,0,0,0-2-.17,6.2,6.2,0,0,0-2.65,3,12.8,12.8,0,0,0-1.75.17c.32-2.12-.36-3.62-1.84-4-2.12-.58-4.48,1.88-7,7.33a13.44,13.44,0,0,1,1.12-2.88,1,1,0,0,0-1.58-1c-1.78,2.67-4.63,16.25-4.91,18.77a1,1,0,0,0,.78,1h.17a1,1,0,0,0,.91-.69c2.94-10.3,7.78-21.32,10-20.72.72.2.5,1.7.45,2a6.08,6.08,0,0,1-.16.74c-3.26,1.18-4.79,3.5-4.83,4.83a1.39,1.39,0,0,0,1.27,1.51h0c2.09.13,4-2.27,5-4.82a9.87,9.87,0,0,1,1.61-.28,10.57,10.57,0,0,0-.3,2.51A3,3,0,0,0,95,58.59h.11c2.19,0,4.6-1.84,6.4-3.67-.6,4.18-.5,7.75.91,9.67a4,4,0,0,0,3.37,1.7h.29a.91.91,0,0,0,.65-.31,1,1,0,0,0,.25-.69.92.92,0,0,0-1-.9h0a2.18,2.18,0,0,1-2-.86c-1.94-2.64-.78-11,3.18-22.94,10.84-1.48,13-.34,13.43,0a.94.94,0,0,0,.68.25,1,1,0,0,0,.92-1A.91.91,0,0,0,121.91,39.3ZM94.83,52.08a4.72,4.72,0,0,1,1.86-2.36,1.92,1.92,0,0,1-.14.62A3,3,0,0,1,94.83,52.08Zm-8,3.8a5.18,5.18,0,0,1,1.34-1.38A5,5,0,0,1,86.83,55.88Z" transform="translate(-0.01)" fill="#fff"/></svg>