<svg xmlns="http://www.w3.org/2000/svg" viewBox="0 0 96.77 19.12"><path d="M9.68,13.05,9.54,13a.48.48,0,0,0-.64.19h0s-2.39,4.32-5.39,4.32C2,17.49,1,15.91,1,13.46,1,7.8,5.5,1.26,8.47,1.26c1.08,0,1.56.5,1.56,1.63a6.36,6.36,0,0,1-2.34,5,.48.48,0,0,0-.1.67l.15.16h.38l.13-.09A7.37,7.37,0,0,0,11,2.89,2.31,2.31,0,0,0,9,.31a2.18,2.18,0,0,0-.51,0C5,.3,0,7.11,0,13.46c0,3,1.38,5,3.51,5,3.57,0,6.1-4.6,6.22-4.82a.45.45,0,0,0,0-.36Z" transform="translate(0 0.03)" fill="#fff"/><path d="M28,10.59h-.23l-.1.12a4.06,4.06,0,0,1-2.18,1.42c-.48,0-.72-1.21-.74-1.86a.45.45,0,0,0-.24-.4l-.05-.42-.22.36a.51.51,0,0,0-.36.22c-.15.23-.32.53-.51.85C23,11.45,22.17,13,21.81,13c-.14,0-.16,0-.17-.06-.27-.43.32-2.22,1-3.55a.47.47,0,0,0-.84-.44h0a14,14,0,0,0-.74,1.68,6.64,6.64,0,0,0-1.54.21v-.38a2,2,0,0,0-.32-1.2A1.39,1.39,0,0,0,18,8.65a2.26,2.26,0,0,0-1.68,1c.71-2.82,1.78-6.18,2.95-7.62l.12-.19-.07-.38-.13-.1a.47.47,0,0,0-.66.08h0C17,3.32,15.75,7.86,15.1,10.78l-.07.09c-.92,1.28-2.44,2.63-3.43,2.63-.28,0-.48-.29-.48-.67q0-.32,0-.63a2.44,2.44,0,0,0,2-1.57,1.29,1.29,0,0,0-.18-1.44.91.91,0,0,0-1-.08,4.14,4.14,0,0,0-1.83,3.72,1.51,1.51,0,0,0,1.39,1.62h.05a5.08,5.08,0,0,0,3.1-1.75c-.06.36-.1.62-.1.7a.47.47,0,0,0,.93.13C16,12.27,17,9.64,18.07,9.64a.42.42,0,0,1,.4.17,1.1,1.1,0,0,1,.15.64,3.06,3.06,0,0,1-.09.74c-1.76.76-2.84,2.11-2.84,3a.75.75,0,0,0,.72.78h.07c1.23,0,2.34-1.49,2.83-3a6.19,6.19,0,0,1,1.47-.3,2.62,2.62,0,0,0,0,1.83,1.09,1.09,0,0,0,1,.51c.83,0,1.53-1.09,2.21-2.25.27.92.78,1.43,1.47,1.43,1.17,0,2.49-1.32,2.87-1.72a.5.5,0,0,0,0-.68A.5.5,0,0,0,28,10.59ZM16.7,13.93A3.94,3.94,0,0,1,18,12.57a2.93,2.93,0,0,1-1.29,1.36Zm-5.22-2.75A2.43,2.43,0,0,1,12.42,10a1.37,1.37,0,0,1-.07.29,1.51,1.51,0,0,1-.86.89Z" transform="translate(0 0.03)" fill="#fff"/><path d="M57.11,5.1V4.88L57,4.77c-.29-.27-1.16-1.08-7-.33.2-.58.39-1.11.55-1.56V2.76a.48.48,0,0,0-.87-.41l0,.09v.11c-.21.57-.46,1.26-.72,2-2.07.3-3.76.65-4,.69a.42.42,0,0,0-.32.27,7,7,0,0,0,.11-1.11c0-2.65-2.2-4.43-5.48-4.43C35.6,0,32.7,2.5,31.63,3.58l-.14.18v.38l.11.11a.46.46,0,0,0,.65,0l0,0c1-1,3.65-3.3,6.94-3.3,2.71,0,4.53,1.4,4.53,3.48,0,3.8-4.24,6.74-7.9,6.74A6.59,6.59,0,0,1,34.18,11a47.6,47.6,0,0,1,2.75-8.47L37,2.31,36.88,2l-.14-.08a.55.55,0,0,0-.36,0L36.17,2l-.07.14a50,50,0,0,0-2.78,8.5,2.18,2.18,0,0,1-.56-.65.48.48,0,0,0-.3-.22h-.22l-.13.08a.46.46,0,0,0-.22.29v.23l.08.13a3.3,3.3,0,0,0,1.14,1.15c-1.43,6.19-.53,7-.23,7.3a.48.48,0,0,0,.32.13h.24l.11-.12a.51.51,0,0,0,.13-.35V18.4l-.11-.1c-.14-.13-.73-1,.46-6.25a6.83,6.83,0,0,0,1.91.21c3.67,0,7.85-2.69,8.69-6.37V6a.48.48,0,0,0,.47.38h.09c.65-.13,1.89-.38,3.43-.61-.54,1.66-1.06,3.47-1.43,5.18h0L47.1,11c-.92,1.28-2.43,2.63-3.43,2.63-.27,0-.48-.29-.48-.67q0-.32,0-.63a2.42,2.42,0,0,0,2-1.57A1.27,1.27,0,0,0,45,9.21a.91.91,0,0,0-1-.08,4.14,4.14,0,0,0-1.82,3.72,1.5,1.5,0,0,0,1.37,1.62h.06a5.24,5.24,0,0,0,3.2-1.84c-.3,2.09-.25,3.88.45,4.84a2,2,0,0,0,1.68.82h.15a.49.49,0,0,0,.45-.5.5.5,0,0,0-.5-.45,1,1,0,0,1-1-.43c-1-1.32-.39-5.49,1.59-11.46,5.41-.73,6.5-.17,6.71,0l.18.14h.38l.1-.15A.48.48,0,0,0,57.11,5.1ZM43.44,11.18A2.34,2.34,0,0,1,44.36,10a1.37,1.37,0,0,1-.07.29A1.49,1.49,0,0,1,43.44,11.18Z" transform="translate(0 0.03)" fill="#fff"/><path d="M83.66,17.33a1,1,0,0,1-1-.43c-1-1.32-.39-5.49,1.59-11.46,5.41-.73,6.5-.17,6.71,0l.18.14h.39l.1-.12a.47.47,0,0,0,.13-.34V4.9l-.11-.11c-.29-.27-1.15-1.08-7-.33.2-.58.39-1.11.56-1.56V2.78a.47.47,0,1,0-.89-.32l0,.11-.71,2c-2.07.3-3.76.65-4,.69a.46.46,0,0,0-.3.19,13.65,13.65,0,0,1,1.51-3.21l.12-.2-.08-.37-.12-.1a.57.57,0,0,0-.36-.09l-.22.06L80,1.67c-1,1.38-2.59,5.84-3.14,9.18h0c-.92,1.28-2.44,2.63-3.43,2.63-.28,0-.48-.29-.48-.67q0-.32,0-.63a2.42,2.42,0,0,0,2-1.57,1.29,1.29,0,0,0-.18-1.44.91.91,0,0,0-1-.08,3.25,3.25,0,0,0-1.43,1.71h0c-.24.39-1,1.41-1.64,1.41-.17,0-.33-.88-.38-1.21-.15-.81-.31-1.74-1.12-1.74-.62,0-1.21.78-2,2.41l.18-.75a.49.49,0,0,0,.24-.49h0a.46.46,0,0,0-.07-.16c.81-3,2-6.78,3.13-8.17a.49.49,0,0,0-.07-.67l-.2-.12L70,1.44l-.09.12C68.77,3,67.44,7,66.59,10.2a16.13,16.13,0,0,0-4.4,1.65l-.43-.48C60.57,10,59.21,8.5,59.21,6.6a5.36,5.36,0,0,1,5.28-5.39,1.78,1.78,0,0,1,1.77,1.21,4.78,4.78,0,0,1-1.37,4.87.47.47,0,1,0,.64.7h0a5.77,5.77,0,0,0,1.61-5.92A2.72,2.72,0,0,0,64.49.26,6.3,6.3,0,0,0,58.26,6.6c0,2.26,1.48,3.93,2.81,5.42l.28.32C58.85,13.9,57,16,56.92,17.25a1.07,1.07,0,0,0,.85,1.16,2.72,2.72,0,0,0,.63.08A7,7,0,0,0,62.2,17a3.22,3.22,0,0,0,1.49-2.36,3.52,3.52,0,0,0-.88-2.06,15.24,15.24,0,0,1,3.52-1.38,12.61,12.61,0,0,0-.58,3.71.46.46,0,0,0,.13.18v1.07l.5-1a.51.51,0,0,0,.34-.25,9.33,9.33,0,0,0,.5-1,15,15,0,0,1,2-3.66,5.74,5.74,0,0,1,.22.91c.15.84.35,2,1.32,2A2.15,2.15,0,0,0,72,12.7v.15a1.5,1.5,0,0,0,1.37,1.62h.06c1.12,0,2.37-1,3.28-1.93a4.86,4.86,0,0,0,.12,1.57,1.22,1.22,0,0,0,.79.9,1.14,1.14,0,0,0,.41.07c1.06,0,2.37-1.18,3.42-2.35-.29,2-.23,3.8.46,4.74a2,2,0,0,0,1.69.82h.14a.49.49,0,0,0,.45-.5.49.49,0,0,0-.52-.46Zm-4-11.12h.1c.64-.13,1.88-.38,3.42-.61a52.91,52.91,0,0,0-1.44,5.25c-1.58,2.06-3.25,3.47-3.87,3.27a.67.67,0,0,1-.18-.28c-.43-1.38.46-5.2,1.51-8.15a.38.38,0,0,0,0,.15.46.46,0,0,0,.47.37Zm-6.43,5A2.35,2.35,0,0,1,74.17,10a1.37,1.37,0,0,1-.07.29,1.51,1.51,0,0,1-.86.89ZM62,13.08a3,3,0,0,1,.76,1.59,2.36,2.36,0,0,1-1.11,1.6A5.32,5.32,0,0,1,58,17.5c-.14,0-.16-.08-.15-.2C57.9,16.54,59.34,14.69,62,13.08Z" transform="translate(0 0.03)" fill="#fff"/><path d="M96.7,10.92a.48.48,0,0,0-.61-.27,17.58,17.58,0,0,0-2.21,1l-.19-.23A2.05,2.05,0,0,1,93,10.27c0-.47.63-.68.88-.66a1,1,0,0,1,0,.74.48.48,0,0,0,.25.63.47.47,0,0,0,.63-.25l0-.09a1.78,1.78,0,0,0-.1-1.59,1,1,0,0,0-.82-.4,2,2,0,0,0-1.24.47A.46.46,0,0,0,92.4,9c-1.18-.36-2.14.57-2.85,1.7l.19-1a.48.48,0,0,0-.07-.35l-.16-.18h-.15a.48.48,0,0,0-.35.08l-.18.15-.21,1.13-.09.44c-.92,1.27-2.43,2.61-3.42,2.61-.27,0-.48-.29-.48-.67q0-.32,0-.63a2.42,2.42,0,0,0,2-1.57,1.29,1.29,0,0,0-.18-1.44.91.91,0,0,0-1-.08,4.14,4.14,0,0,0-1.82,3.72A1.5,1.5,0,0,0,85,14.53h.06a5,5,0,0,0,3.07-1.71c-.27,1.47-.23,1.53-.09,1.7l.2.18h.17c.35,0,.43-.21.64-.77,1.11-2.92,2.13-4.26,3-4h0a1.74,1.74,0,0,0,0,.39,2.84,2.84,0,0,0,1,1.77l.08.1c-.89.58-2.31,1.64-2.4,2.56a.85.85,0,0,0,.43.84,1,1,0,0,0,.55.14,3.52,3.52,0,0,0,1.55-.48,2.35,2.35,0,0,0,1.44-1.87,2,2,0,0,0-.21-.9,14.59,14.59,0,0,1,2-.94.43.43,0,0,0,.26-.25l.07-.22Zm-3,2.46c0,.24-.25.65-1,1a4.45,4.45,0,0,1-1.12.42c0-.26.67-1,2-1.86a1.13,1.13,0,0,1,.1.44ZM85,11.18A2.46,2.46,0,0,1,85.88,10a1.37,1.37,0,0,1-.07.29A1.48,1.48,0,0,1,85,11.18Z" transform="translate(0 0.03)" fill="#fff"/></svg>