<svg xmlns="http://www.w3.org/2000/svg" viewBox="0 0 230.59 54.95"><path d="M56.06,4.44a1.31,1.31,0,0,0,1.59-.93,1.29,1.29,0,0,0-.13-1,1.31,1.31,0,0,0-.79-.61c-6.56-1.74-18.61-.43-27.82.87.16-.31.31-.6.46-.87A1.3,1.3,0,0,0,28.84.16a1.31,1.31,0,0,0-1.76.52c-.4.73-.81,1.57-1.27,2.56-4,.6-7.9,1.25-11.39,1.83C8.8,6,4,6.81,1.21,7a1.3,1.3,0,0,0,.18,2.6h0c2.86-.2,7.76-1,13.46-2,3-.5,6.35-1,9.75-1.58C19.36,19,13.33,42.45,13.33,53.53a1.31,1.31,0,1,0,2.61.23.89.89,0,0,0,0-.23c0-11.17,6.46-35.82,11.67-47.92C36.86,4.25,49.59,2.72,56.06,4.44Z" transform="translate(0 -0.01)" fill="#fff"/><path d="M52.61,51.8a3.36,3.36,0,0,1-3.14-1.34c-3-4.06-1.29-16.33,4.78-34.59,16.38-2.23,19.69-.5,20.32.09a1.19,1.19,0,0,0,.93.36,1.31,1.31,0,0,0,.91-.41h0a1.3,1.3,0,0,0-.06-1.84c-.86-.81-3.44-3.24-21.17-.94.57-1.64,1.15-3.27,1.74-4.87l.13-.36a1.3,1.3,0,0,0-.77-1.67h0a1.33,1.33,0,0,0-1,0A1.36,1.36,0,0,0,54.6,7l-.12.35c-.75,2-1.48,4.09-2.19,6.17-6,.87-11,1.86-11.92,2.06a1.3,1.3,0,0,0,.26,2.58h.27c2-.4,5.77-1.15,10.48-1.86Q48.83,24,47.06,31.91a49.47,49.47,0,0,0-6.33,3c-.21-.26-.42-.52-.64-.77-1.1-1.29-2-2.4-2-3.67s1.73-2.13,2.62-2.13c.19,0,.22,0,.24.07a3.09,3.09,0,0,1-.09,2.35,1.3,1.3,0,1,0,2.48.79A5.3,5.3,0,0,0,43,26.88a2.82,2.82,0,0,0-2.35-1.14c-2.19,0-5.23,1.64-5.23,4.73A5.66,5.66,0,0,0,36,32.83c-2.8,3.72-7.18,7.53-10.11,7.53-.89,0-1.56-.92-1.56-2.14a14.83,14.83,0,0,1,.14-2,7.16,7.16,0,0,0,6.08-4.66c.65-1.73.46-3.33-.49-4.16a2.65,2.65,0,0,0-2.93-.23c-2.62,1.19-5.4,5.47-5.4,11,0,2.71,1.79,4.74,4.16,4.74,4.21,0,9-4.62,11.63-7.85l.63.75c.11.14.23.27.34.4-2.65,1.71-7,4.91-7.26,7.67a2.47,2.47,0,0,0,1.22,2.42,2.94,2.94,0,0,0,1.59.4,10.64,10.64,0,0,0,4.59-1.43c2.7-1.51,4.26-3.51,4.26-5.51A6.1,6.1,0,0,0,42.21,37c1.37-.72,2.79-1.43,4.25-2-1.33,7.36-1.47,13.81.91,17a5.91,5.91,0,0,0,5,2.4h.43A1.3,1.3,0,0,0,54,53h0a1.28,1.28,0,0,0-1.35-1.2Zm-12.34-12c0,1-1.15,2.25-2.92,3.24a6.53,6.53,0,0,1-3.53,1.07c.14-.86,2.1-3.1,6.14-5.7a3.4,3.4,0,0,1,.31,1.4Zm-12-10.32a2.88,2.88,0,0,1-.21,1.16,4.6,4.6,0,0,1-2.91,2.77,7.28,7.28,0,0,1,3-3.88Z" transform="translate(0 -0.01)" fill="#fff"/><path d="M58,23.71l-.36-.12-.59,1.24c-.2.38-.49,1-.93,1.84l-.09.18a1.32,1.32,0,0,0,.59,1.74,1.29,1.29,0,0,0,.58.13A1.27,1.27,0,0,0,58.4,28s.93-1.83,1.23-2.44a1.32,1.32,0,0,0-.52-1.79l-.06,0A1.21,1.21,0,0,0,58,23.71Z" transform="translate(0 -0.01)" fill="#fff"/><path d="M135.1,28.59a1.34,1.34,0,0,0,.59.13,1.29,1.29,0,0,0,1.16-.71s.93-1.83,1.22-2.44a1.3,1.3,0,0,0-.51-1.78l-.07,0a1.17,1.17,0,0,0-1,0l-.35-.12-.6,1.24c-.2.38-.49,1-.92,1.84l-.09.18A1.31,1.31,0,0,0,135.1,28.59Z" transform="translate(0 -0.01)" fill="#fff"/><path d="M190.35,31.74a50,50,0,0,0-6.7,3.17c-.21-.26-.42-.52-.64-.77a19.11,19.11,0,0,1-1.31-1.66,1.67,1.67,0,0,0-.18-.28,3.31,3.31,0,0,1-.55-1.73c0-1.38,1.73-2.13,2.62-2.13.19,0,.22,0,.24.07a3.09,3.09,0,0,1-.09,2.35,1.3,1.3,0,1,0,2.48.79h0a5.29,5.29,0,0,0-.28-4.67,2.82,2.82,0,0,0-2.35-1.14c-2.19,0-5.23,1.64-5.23,4.73a5.59,5.59,0,0,0,.59,2.44c-4.68,6-9.36,9.81-11.25,9.21-.22-.07-.44-.41-.6-.93-2-6.31,5.22-29.62,9.28-34.86a1.29,1.29,0,0,0-.24-1.82,1.32,1.32,0,0,0-1-.26,1.29,1.29,0,0,0-.86.49c-3.2,4.14-7.87,17.49-9.51,27.48h0c-2.81,4.47-7,9.06-8.77,8.77l-.08-.08c-.92-1.61.94-8.17,2.48-12.09a1.33,1.33,0,1,0-2.44-1l-.36.68a4.07,4.07,0,0,0-3.29-2.34c-2.5-.18-4.5,3.05-5.66,5.77a1.66,1.66,0,0,0-.3.22c-1.79,2-7.17,7.21-10.43,7.21a1.44,1.44,0,0,1-1.4-.74c-.9-1.58-.19-4.93,1-6.95a1.3,1.3,0,0,0,.14-1,1.34,1.34,0,0,0-.6-.8,1.31,1.31,0,0,0-1.78.46,11.86,11.86,0,0,0-.89,1.87c-1.52,1.6-4.31,3.92-6,3.92-1.25,0-1.66-1.19-2.15-4-.39-2.23-.87-5-3.47-5-2.19,0-4.19,2.53-6,5.53a1.32,1.32,0,0,0-.59-.6,1.24,1.24,0,0,0-.71-.1A1.48,1.48,0,0,0,113,32a15.86,15.86,0,0,1-4.87,1.61,10.32,10.32,0,0,0,.06-1.11c0-4-2.5-5.74-4.82-5.75a4.91,4.91,0,0,0-3,1.09,4.19,4.19,0,0,0-1.57,3.3,3.42,3.42,0,0,0,0,.64,1.3,1.3,0,0,0-.23.18C97,33.81,93.75,36.75,92,36.75c-1.48,0-2-1-2.65-3.19-.45-1.42-1-3.18-2.76-3.18-1.41,0-2.77,1.42-5.53,4.68l-.82,1c.07-.3.13-.58.18-.82,1.07-4.77,1.69-8,.53-9.53a2,2,0,0,0-1.56-.83h-.11C77.1,24.86,74,28.73,69.21,36a15.8,15.8,0,0,1,1-2.63,1.3,1.3,0,0,0-.77-1.67,1.32,1.32,0,0,0-1.44.38v.11c-1.85,2.05-7.14,7.13-10.36,7.13a1.44,1.44,0,0,1-1.4-.74c-.9-1.58-.19-4.93,1-6.95a1.3,1.3,0,0,0-2.16-1.45.75.75,0,0,0-.07.12c-1.61,2.7-2.51,7-1,9.57a4,4,0,0,0,3.65,2.05c2.78,0,6-2.21,8.52-4.33-.62,2.27-1,4.58-.38,5.49l-.34,2.54,1.35-2.07a1.42,1.42,0,0,0,1.16-.7c.34-.52.81-1.24,1.36-2.1,6.19-9.69,8.8-12.61,9.86-13.18.2,1.34-.69,5.3-1.09,7.09-.79,3.52-1,4.57-.36,5.36a1.37,1.37,0,0,0,.39.33h0a1.53,1.53,0,0,0,.73.19c1.14,0,2.18-1.16,4.41-3.79a30.44,30.44,0,0,1,3.39-3.61c.14.31.3.83.42,1.21.59,1.87,1.58,5,5.14,5,1.7,0,3.6-1.17,5.19-2.46v.16c0,2.5,1.38,4.33,3.38,4.65A5.11,5.11,0,0,0,105,40.42a9.76,9.76,0,0,0,2.66-4.11,18.32,18.32,0,0,0,4-.87c-.73,2.19-1.43,5-.56,6L111,43.32l1.13-1.48a1.88,1.88,0,0,0,1.39-.85A23.92,23.92,0,0,0,115,38c1.18-2.29,4.29-8.35,5.91-8.35.41,0,.74,1.92.9,2.84.46,2.61,1.08,6.19,4.72,6.19,1.68,0,3.56-1.09,5.07-2.24a6.64,6.64,0,0,0,.74,3.42A4,4,0,0,0,136,41.92c3.08,0,6.76-2.73,9.32-5-.19,1.75.05,3.42,1.44,4.12,1.73.88,3.89-.4,6.57-3.91-.57,3.53.07,4.67.33,5.13a2.68,2.68,0,0,0,1.92,1.37,2.62,2.62,0,0,0,.56,0c2.71,0,5.85-3.24,8.09-6.09a13.65,13.65,0,0,0,.39,4.41,3.62,3.62,0,0,0,2.3,2.64,4,4,0,0,0,1.19.18c4,0,9.42-5.92,12.38-9.6l.58.68c.11.14.23.27.34.4-2.66,1.71-7,4.91-7.26,7.67a2.47,2.47,0,0,0,1.22,2.42,2.94,2.94,0,0,0,1.59.4,10.6,10.6,0,0,0,4.58-1.43c2.71-1.51,4.26-3.51,4.26-5.51a6,6,0,0,0-.67-2.74,47.92,47.92,0,0,1,6.15-2.9,1.25,1.25,0,0,0,.73-.68,1.33,1.33,0,0,0,0-1A1.31,1.31,0,0,0,190.35,31.74Zm-7.16,8.07c0,1-1.15,2.25-2.92,3.24a6.54,6.54,0,0,1-3.54,1.07c.15-.86,2.11-3.1,6.15-5.7A3.52,3.52,0,0,1,183.19,39.81ZM148,38.68a6.32,6.32,0,0,1,.31-3.44c1.06-3.83,3.18-6.52,3.92-6.52.94.06,1.55,1.56,1.82,2.66C150.73,36.78,148.59,38.59,148,38.68Zm-44.76-.22a2.6,2.6,0,0,1-2.12.69C100,39,99.9,37.6,99.89,37a5.86,5.86,0,0,1,.46-2.37,6.18,6.18,0,0,0,.83.62,8.58,8.58,0,0,0,3.56,1.08,6.36,6.36,0,0,1-1.54,2.13Zm.67-7a1.28,1.28,0,0,0,.82-.56,1.25,1.25,0,0,0,.21-.88,3.93,3.93,0,0,1,.72,2.46,9.08,9.08,0,0,1-.1,1.28,6.52,6.52,0,0,1-3-.77,2.44,2.44,0,0,1-.66-.54,4.42,4.42,0,0,1,2-1Z" transform="translate(0 -0.01)" fill="#fff"/><path d="M208.87,37.6a72.5,72.5,0,0,1-6.71-4.06l.6-.82c4.17-5.76,6.71-8.86,7.53-9.2a1.3,1.3,0,0,0-.7-2.51c-1.88.52-10.33,11.19-10.44,12.57a1.57,1.57,0,0,0,.46,1.21c.65.72,7.77,5.37,9.08,5.4a1.3,1.3,0,0,0,.18-2.59Z" transform="translate(0 -0.01)" fill="#fff"/><path d="M230.29,28.57c-1.33-3.37-4.8-3.76-7.29-3.76h0c3.26-2.75,8.61-7.32,6.14-11.71-1.33-2.37-4.73-2.7-8.86-.87-4.33,1.92-8.15,5.55-7.07,8.76a1.29,1.29,0,0,0,1.64.82h0a1.32,1.32,0,0,0,.82-1.65c-.46-1.36,2.29-4.05,5.65-5.55,2.19-1,4.85-1.45,5.54-.23,1.43,2.55-3.16,6.42-5.62,8.51-1.92,1.62-2.8,2.36-2.36,3.5h0l0,.08h.1c.47,1,1.59,1,3,.92,2.67-.08,5.13,0,5.94,2.08.5,1.26-.62,3-1.34,3.85-3.1,3.88-10.38,7.82-15.16,7.09A1.31,1.31,0,1,0,211,43a10.19,10.19,0,0,0,1.65.13c5.88,0,12.72-4.15,15.92-8.16C230.91,32,230.8,29.87,230.29,28.57Z" transform="translate(0 -0.01)" fill="#fff"/></svg>