<svg xmlns="http://www.w3.org/2000/svg" xmlns:xlink="http://www.w3.org/1999/xlink" viewBox="0 0 496.01 504"><defs><radialGradient id="a" cx="70.45" cy="262.35" r="813.54" gradientTransform="matrix(8, 0, 0, -8, 343, 5085)" gradientUnits="userSpaceOnUse"><stop offset="0" stop-color="#afeeff"/><stop offset="0.19" stop-color="#bbf1ff"/><stop offset="0.7" stop-color="#d7f8ff"/><stop offset="1" stop-color="#e1faff"/></radialGradient><linearGradient id="b" x1="-38.88" y1="603.63" x2="17.13" y2="603.63" gradientTransform="matrix(8, 0, 0, -8, 343, 5085)" gradientUnits="userSpaceOnUse"><stop offset="0" stop-color="#ffad6b"/><stop offset="0.42" stop-color="#ff8b67"/><stop offset="0.66" stop-color="#ff8b67"/><stop offset="0.95" stop-color="#ffa76a"/><stop offset="1" stop-color="#ffad6b"/></linearGradient><linearGradient id="c" x1="-33.38" y1="586.4" x2="-33.38" y2="609.63" gradientTransform="matrix(8, 0, 0, -8, 343, 5085)" gradientUnits="userSpaceOnUse"><stop offset="0" stop-color="#f9af70"/><stop offset="1" stop-color="#ffb37b"/></linearGradient><linearGradient id="d" x1="-318.01" y1="406.12" x2="-317.01" y2="406.12" gradientTransform="translate(-87465 -68275) rotate(-90) scale(216)" gradientUnits="userSpaceOnUse"><stop offset="0" stop-color="#ff9757"/><stop offset="1" stop-color="#ffb65b"/></linearGradient><linearGradient id="e" x1="4.13" y1="583.63" x2="4.13" y2="612.13" gradientTransform="matrix(8, 0, 0, -8, 343, 5085)" gradientUnits="userSpaceOnUse"><stop offset="0" stop-color="#ffa670"/><stop offset="0.34" stop-color="#ffb071"/><stop offset="1" stop-color="#ffc173"/></linearGradient><linearGradient id="f" x1="-10.87" y1="597.62" x2="-10.87" y2="623.63" gradientTransform="matrix(8, 0, 0, -8, 343, 5085)" gradientUnits="userSpaceOnUse"><stop offset="0" stop-color="#f39d75"/><stop offset="0.23" stop-color="#f7ab82"/><stop offset="0.7" stop-color="#fdc298"/><stop offset="1" stop-color="#ffcba0"/></linearGradient><linearGradient id="g" x1="8.62" y1="572.63" x2="8.62" y2="593.62" gradientTransform="matrix(8, 0, 0, -8, 343, 5085)" gradientUnits="userSpaceOnUse"><stop offset="0" stop-color="#ff5840"/><stop offset="0.01" stop-color="#ff5840"/><stop offset="0.99" stop-color="#fa528c"/><stop offset="1" stop-color="#fa528c"/></linearGradient></defs><path d="M168,20a20,20,0,1,1,20,20A20,20,0,0,1,168,20ZM503.52,83.16C501.26,71.78,490.56,64,479,64H436a12,12,0,0,1,0-24h15.3c9.11,0,17.61-5.77,20-14.57A20.06,20.06,0,0,0,452,0H244.7c-9.1,0-17.61,5.77-20,14.57A20.06,20.06,0,0,0,244,40h16a20,20,0,0,1,0,40H180.7c-9.1,0-17.61,5.77-20,14.57A20.06,20.06,0,0,0,180,120h24a12,12,0,0,1,0,24H188.7c-9.11,0-17.61,5.77-20,14.57A20.06,20.06,0,0,0,188,184H132.72c-9.12,0-17.6,5.76-20,14.56A19.91,19.91,0,0,0,116.05,216H100.7c-9.12,0-17.62,5.77-20,14.57A20.07,20.07,0,0,0,100,256h63.9a19.9,19.9,0,0,1-15.9,8H68.72c-9.12,0-17.6,5.76-20,14.56A20.06,20.06,0,0,0,68,304H92a12,12,0,0,1,0,24H76.72c-9.12,0-17.6,5.76-20,14.56A20.06,20.06,0,0,0,76,368h36a16,16,0,0,1,0,32H36.72c-9.12,0-17.6,5.76-20,14.56A20.06,20.06,0,0,0,36,440H84a12,12,0,0,1,0,24,20,20,0,0,0,0,40H292a20,20,0,0,0,0-40H252a12,12,0,0,1,0-24h23.28c9.12,0,17.6-5.76,20-14.56A20.06,20.06,0,0,0,276,400h-4a16,16,0,0,1,0-32h51.28c9.12,0,17.6-5.76,20-14.56A20.06,20.06,0,0,0,324,328h-4a16,16,0,0,1-13.77-8H379.3c9.1,0,17.61-5.77,20-14.57A20.06,20.06,0,0,0,380,280a11.89,11.89,0,0,1-5.06-1.15,24,24,0,0,0,.58-11.65A22.32,22.32,0,0,0,372.1,259a11.93,11.93,0,0,1,7.9-3h23.3c9.11,0,17.61-5.77,20-14.57A20.06,20.06,0,0,0,404,216h-4a16,16,0,0,1,0-32h51.3c9.11,0,17.61-5.77,20-14.57A20.06,20.06,0,0,0,452,144h-4a16,16,0,0,1,0-32h32A24.07,24.07,0,0,0,503.52,83.16ZM460,216a20,20,0,1,0,20,20A20,20,0,0,0,460,216ZM348,464a20,20,0,1,0,20,20A20,20,0,0,0,348,464ZM96,204a20,20,0,1,1-20-20A20,20,0,0,1,96,204Z" transform="translate(-15.98)" fill="url(#a)"/><path d="M440,416H72a40,40,0,0,1-40-40V136A40,40,0,0,1,72,96H440a40,40,0,0,1,40,40V376A40,40,0,0,1,440,416Z" transform="translate(-15.98)" fill="url(#b)"/><path d="M40.18,392H100a20,20,0,0,0,0-40H72a16,16,0,0,1,0-32h4a20,20,0,0,0,0-40H72a16,16,0,0,1,0-32h28a20,20,0,0,0,0-40H32V376a39.51,39.51,0,0,0,4.37,17.83C37.46,391.34,38.74,390.1,40.18,392Z" transform="translate(-15.98)" fill="url(#c)"/><path d="M256,200,32.68,382.72A39.93,39.93,0,0,0,72,416H440a39.93,39.93,0,0,0,39.32-33.28L256,200" transform="translate(-15.98)" fill="url(#d)"/><path d="M316,344h0a20,20,0,0,1-20-20h0a20,20,0,0,1,20-20h0a20,20,0,0,1,20,20h0A20,20,0,0,1,316,344Zm164,32V304H372a20,20,0,0,0,0,40h4a16,16,0,0,1,0,32H292a20,20,0,0,0,0,40H440A40,40,0,0,0,480,376Z" transform="translate(-15.98)" fill="url(#e)"/><path d="M32.68,129.28l206,168.55a27.36,27.36,0,0,0,34.64,0l206-168.55A39.93,39.93,0,0,0,440,96H72A39.93,39.93,0,0,0,32.68,129.28Z" transform="translate(-15.98)" fill="url(#f)"/><path d="M510.81,376.77c-4.27-20.22-21.19-36.29-41.77-39.91a52.65,52.65,0,0,0-51.62,20,6.91,6.91,0,0,1-10.87,0,52.63,52.63,0,0,0-51.61-20c-20.57,3.62-37.5,19.69-41.77,39.91A51.71,51.71,0,0,0,328,425.4h0l72.36,73.81a16.47,16.47,0,0,0,23.2,0l72.33-73.79h0A51.7,51.7,0,0,0,510.81,376.77Z" transform="translate(-15.98)" fill="url(#g)"/></svg>