<?xml version="1.0" encoding="UTF-8"?>
<svg xmlns="http://www.w3.org/2000/svg" xmlns:xlink="http://www.w3.org/1999/xlink" viewBox="0 0 48 48" width="48px" height="48px">
<g id="surface28435477">
<path style=" stroke:none;fill-rule:nonzero;fill:rgb(100%,100%,100%);fill-opacity:1;" d="M 12.5 4.253906 C 12.105469 4.257812 11.726562 4.28125 11.359375 4.324219 C 9.714844 4.5 8.53125 5.804688 8.289062 7.191406 C 8.042969 8.578125 8.703125 10.203125 10.183594 10.941406 C 13.203125 12.445312 18.460938 14.179688 27.9375 15.921875 C 27.761719 16.550781 27.199219 17 26.5 17 L 20.5 17 C 11.433594 17 4 24.433594 4 33.5 C 4 33.726562 4.019531 33.949219 4.035156 34.175781 C 2.851562 34.578125 2 35.683594 2 37 C 2 38.65625 3.34375 40 5 40 C 5.363281 40 5.652344 39.925781 5.898438 39.808594 C 7.675781 42.5 10.550781 44.394531 13.875 44.871094 C 14.070312 44.957031 14.285156 45.003906 14.5 45 L 38.5 45 C 40.414062 45 42 43.414062 42 41.5 C 42 39.914062 41.320312 38.464844 40.238281 37.464844 C 40.210938 37.441406 40.1875 37.417969 40.164062 37.398438 L 36.828125 34.699219 C 34.882812 33.121094 34.574219 30.292969 36.160156 28.375 C 38.222656 25.886719 39.316406 23.507812 39.726562 22.496094 C 40.84375 22.144531 41.894531 21.625 42.824219 20.960938 C 44.609375 19.683594 46 17.78125 46 15.5 C 46 13.21875 44.609375 11.316406 42.824219 10.035156 C 41.035156 8.757812 38.78125 8 36.5 8 C 34.363281 8 32.363281 8.71875 30.84375 9.914062 C 28.566406 8.363281 25.28125 6.957031 21.832031 5.894531 C 18.566406 4.890625 15.242188 4.199219 12.5 4.25 Z M 12.53125 7.257812 C 14.683594 7.238281 17.886719 7.820312 20.949219 8.765625 C 24.011719 9.707031 27.011719 11.019531 28.871094 12.203125 C 28.730469 12.449219 28.609375 12.707031 28.5 12.972656 C 19.167969 11.261719 14.113281 9.546875 11.519531 8.257812 C 11.203125 8.097656 11.199219 7.941406 11.238281 7.714844 C 11.28125 7.484375 11.332031 7.34375 11.679688 7.304688 C 11.941406 7.277344 12.226562 7.261719 12.53125 7.257812 Z M 36.5 11 C 38.085938 11 39.828125 11.582031 41.078125 12.476562 C 42.324219 13.371094 43 14.464844 43 15.5 C 43 16.535156 42.324219 17.628906 41.078125 18.523438 C 39.828125 19.417969 38.085938 20 36.5 20 L 35.5 20 C 34.960938 19.992188 34.457031 20.277344 34.183594 20.742188 C 33.910156 21.210938 33.910156 21.789062 34.183594 22.257812 C 34.457031 22.722656 34.960938 23.007812 35.5 23 L 36.175781 23 C 35.660156 23.960938 34.917969 25.175781 33.851562 26.464844 C 31.207031 29.652344 31.730469 34.429688 34.9375 37.027344 L 38.199219 39.667969 C 38.691406 40.125 39 40.765625 39 41.5 C 39 41.796875 38.796875 42 38.5 42 L 33.949219 42 C 33.972656 41.832031 34 41.664062 34 41.488281 C 34 39.75 32.796875 38.464844 31.4375 37.609375 C 30.078125 36.753906 28.402344 36.207031 26.671875 36.011719 C 25.988281 35.933594 25.179688 35.941406 24.378906 35.957031 C 24.15625 35.960938 24.070312 35.964844 23.867188 35.96875 C 23.128906 31.464844 19.207031 28 14.5 28 L 13.5 28 C 12.960938 27.992188 12.457031 28.277344 12.183594 28.742188 C 11.910156 29.210938 11.910156 29.789062 12.183594 30.257812 C 12.457031 30.722656 12.960938 31.007812 13.5 31 L 14.5 31 C 18.074219 31 20.941406 33.839844 20.996094 37.402344 C 20.980469 37.628906 21.015625 37.859375 21.105469 38.070312 C 21.105469 38.078125 21.109375 38.085938 21.113281 38.09375 C 21.117188 38.109375 21.125 38.125 21.132812 38.140625 C 21.417969 38.769531 22.097656 39.121094 22.777344 38.996094 C 23.214844 38.988281 23.773438 38.96875 24.433594 38.957031 C 25.195312 38.941406 26.019531 38.953125 26.332031 38.992188 C 27.636719 39.140625 28.960938 39.59375 29.839844 40.148438 C 30.71875 40.703125 31 41.238281 31 41.488281 C 31 41.789062 30.789062 42 30.488281 42 L 15.5 42 C 10.789062 42 7 38.210938 7 33.5 C 7 26.066406 13.066406 20 20.5 20 L 26.5 20 C 28.96875 20 31 17.96875 31 15.5 C 31 13.132812 33.328125 11 36.5 11 Z M 37.5 13 C 36.671875 13 36 13.671875 36 14.5 C 36 15.328125 36.671875 16 37.5 16 C 38.328125 16 39 15.328125 39 14.5 C 39 13.671875 38.328125 13 37.5 13 Z M 37.5 13 "/>
</g>
</svg>
