<?xml version="1.0" encoding="UTF-8"?>
<svg xmlns="http://www.w3.org/2000/svg" xmlns:xlink="http://www.w3.org/1999/xlink" viewBox="0 0 50 50" width="50px" height="50px">
<g id="surface28441604">
<path style=" stroke:none;fill-rule:nonzero;fill:rgb(100%,100%,100%);fill-opacity:1;" d="M 41.75 9 C 41.128906 9.03125 40.507812 9.167969 39.90625 9.4375 C 38.019531 10.289062 36.996094 12.234375 36.1875 14.1875 C 35.378906 16.140625 34.78125 18.242188 34.21875 19.65625 C 34.085938 19.984375 33.714844 20.414062 33.28125 20.875 C 33.273438 20.84375 33.257812 20.8125 33.25 20.78125 C 32.941406 19.609375 31.816406 18.839844 30.5 18.6875 C 29.585938 17.011719 28.066406 15.15625 25.5625 14.03125 C 24.214844 13.425781 22.613281 13.042969 20.75 13 C 18.886719 12.957031 16.753906 13.242188 14.34375 14 C 9.015625 15.671875 6.234375 18.972656 5.09375 22.125 C 4.523438 23.699219 4.351562 25.226562 4.4375 26.53125 C 4.496094 27.417969 4.675781 28.160156 4.96875 28.8125 C 4.742188 28.988281 4.664062 28.949219 4.4375 29.25 C 4.152344 29.628906 3.890625 30.160156 3.84375 30.78125 C 3.800781 31.34375 3.992188 31.949219 4.34375 32.53125 C 3 33.195312 1.515625 34.28125 0.25 35.65625 C -0.0585938 36 -0.0898438 36.511719 0.167969 36.894531 C 0.425781 37.277344 0.910156 37.4375 1.34375 37.28125 C 2.171875 36.992188 3.363281 36.832031 4.46875 36.875 C 5.269531 36.90625 5.816406 37.132812 6.34375 37.34375 C 6.117188 38.035156 5.742188 38.894531 5.3125 39.4375 C 4.761719 40.132812 4.300781 40.703125 4.4375 41.625 C 4.507812 42.085938 4.859375 42.546875 5.25 42.75 C 5.640625 42.953125 6.03125 43 6.4375 43 C 7.566406 43 8.246094 43.015625 10.375 43 C 10.980469 42.996094 11.769531 42.75 12.40625 42.125 C 12.945312 41.597656 13.609375 40.617188 14.40625 39.40625 C 21.84375 40.746094 26.476562 39.335938 27.6875 38.90625 C 27.828125 39.355469 27.867188 39.613281 28.25 40.34375 C 28.566406 40.945312 28.964844 41.542969 29.53125 42.0625 C 30.097656 42.582031 30.878906 43 31.78125 43 L 35.34375 43 C 37.21875 43 38.242188 41.699219 37.78125 40.5625 C 36.71875 37.957031 36.164062 36.089844 35.96875 34.6875 C 35.425781 30.78125 37.300781 26.550781 41.15625 22.875 C 42.117188 23.707031 43.332031 24.195312 44.5625 24.125 C 46.21875 24.03125 47.878906 23.273438 48.875 21.8125 C 50.757812 19.058594 50.125 15.390625 48.40625 12.78125 C 48.40625 12.769531 48.40625 12.761719 48.40625 12.75 C 47.515625 11.398438 46.238281 10.269531 44.75 9.59375 C 44.007812 9.257812 43.195312 9.042969 42.375 9 C 42.167969 8.988281 41.957031 8.988281 41.75 9 Z M 42.28125 11 C 42.8125 11.03125 43.359375 11.191406 43.90625 11.4375 C 44.996094 11.933594 46.039062 12.839844 46.71875 13.875 C 48.070312 15.929688 48.453125 18.804688 47.1875 20.65625 C 46.609375 21.5 45.515625 22.066406 44.4375 22.125 C 43.359375 22.183594 42.421875 21.796875 41.9375 20.96875 C 41.785156 20.710938 41.527344 20.535156 41.230469 20.484375 C 40.933594 20.4375 40.632812 20.523438 40.40625 20.71875 C 35.734375 24.84375 33.277344 30.007812 33.96875 34.96875 C 34.1875 36.527344 34.8125 38.5 35.78125 40.9375 C 35.734375 40.957031 35.753906 40.96875 35.34375 40.96875 L 31.78125 40.96875 C 31.46875 40.96875 31.183594 40.875 30.875 40.59375 C 30.566406 40.3125 30.277344 39.84375 30.03125 39.375 C 29.539062 38.441406 29.28125 37.5 29.28125 37.5 C 29.214844 37.214844 29.03125 36.972656 28.773438 36.835938 C 28.515625 36.699219 28.210938 36.675781 27.9375 36.78125 C 27.9375 36.78125 22.507812 39.078125 14.125 37.375 C 13.714844 37.285156 13.292969 37.460938 13.0625 37.8125 C 12.023438 39.421875 11.382812 40.277344 11 40.65625 C 10.617188 41.035156 10.683594 40.964844 10.34375 40.96875 C 8.363281 40.984375 7.710938 40.96875 6.6875 40.96875 C 6.75 40.835938 6.695312 40.914062 6.875 40.6875 C 7.519531 39.875 8.679688 38.46875 8.65625 36.71875 C 8.65625 36.398438 8.507812 36.097656 8.25 35.90625 C 7.230469 35.164062 5.882812 34.898438 4.53125 34.84375 C 4.5 34.84375 4.46875 34.84375 4.4375 34.84375 C 5.21875 34.363281 5.953125 34.015625 6.375 33.90625 C 6.453125 33.882812 6.523438 33.851562 6.59375 33.8125 C 6.6875 33.824219 6.78125 33.863281 6.875 33.875 C 7.84375 33.984375 8.957031 33.933594 10.21875 33.78125 C 12.738281 33.472656 15.777344 32.742188 18.5625 31.84375 C 24.011719 30.085938 28.703125 27.539062 31.5 25.25 C 31.578125 25.207031 31.652344 25.15625 31.71875 25.09375 C 31.894531 24.945312 32.070312 24.789062 32.21875 24.625 C 33.695312 23.40625 35.429688 22.148438 36.125 20.40625 C 36.765625 18.800781 37.292969 16.71875 38.03125 14.9375 C 38.769531 13.15625 39.707031 11.753906 40.75 11.28125 C 41.242188 11.058594 41.75 10.96875 42.28125 11 Z M 20.6875 15 C 22.296875 15.035156 23.621094 15.382812 24.71875 15.875 C 26.914062 16.859375 28.261719 18.539062 28.96875 19.96875 C 29.171875 20.355469 29.597656 20.570312 30.03125 20.5 C 30.867188 20.371094 31.125 20.71875 31.28125 21.3125 C 31.4375 21.90625 31.28125 22.796875 30.40625 23.53125 C 30.351562 23.566406 30.296875 23.609375 30.25 23.65625 C 27.757812 25.703125 23.179688 28.214844 17.9375 29.90625 C 15.257812 30.769531 12.328125 31.496094 10 31.78125 C 8.835938 31.921875 7.804688 31.953125 7.09375 31.875 C 6.382812 31.796875 6.070312 31.5625 6.09375 31.59375 C 5.867188 31.257812 5.863281 31.046875 5.875 30.90625 C 5.886719 30.765625 5.945312 30.621094 6.0625 30.46875 C 6.296875 30.160156 6.6875 29.9375 6.6875 29.9375 C 6.953125 29.796875 7.144531 29.542969 7.207031 29.246094 C 7.265625 28.949219 7.191406 28.640625 7 28.40625 C 6.835938 28.210938 6.503906 27.425781 6.4375 26.40625 C 6.371094 25.386719 6.527344 24.113281 7 22.8125 C 7.941406 20.210938 10.160156 17.449219 14.96875 15.9375 C 17.203125 15.234375 19.078125 14.964844 20.6875 15 Z M 45.5 15 C 44.671875 15 44 15.671875 44 16.5 C 44 17.328125 44.671875 18 45.5 18 C 46.328125 18 47 17.328125 47 16.5 C 47 15.671875 46.328125 15 45.5 15 Z M 45.5 15 "/>
</g>
</svg>
