<?xml version="1.0" encoding="UTF-8"?>
<svg xmlns="http://www.w3.org/2000/svg" xmlns:xlink="http://www.w3.org/1999/xlink" viewBox="0 0 48 48" width="48px" height="48px">
<g id="surface28439155">
<path style=" stroke:none;fill-rule:nonzero;fill:rgb(100%,100%,100%);fill-opacity:1;" d="M 13.578125 3.003906 C 10.089844 2.96875 7.070312 5.066406 5.734375 8.066406 L 3.265625 8.683594 C 2.523438 8.871094 2 9.539062 2 10.308594 C 2 10.75 2.175781 11.175781 2.492188 11.492188 L 5.296875 14.296875 C 5.445312 14.929688 5.640625 15.519531 5.917969 16.054688 C 6.425781 17.03125 7.214844 17.75 8.09375 18.335938 C 8.355469 28.203125 12.730469 34.148438 17.742188 36.921875 C 17.871094 36.992188 18.003906 37.054688 18.136719 37.121094 C 18.140625 37.140625 18.148438 37.15625 18.160156 37.167969 L 20.574219 42 L 16.5 42 C 15.960938 41.992188 15.457031 42.277344 15.183594 42.742188 C 14.910156 43.210938 14.910156 43.789062 15.183594 44.257812 C 15.457031 44.722656 15.960938 45.007812 16.5 45 L 23 45 C 23.519531 45 24.003906 44.730469 24.273438 44.289062 C 24.546875 43.847656 24.574219 43.296875 24.34375 42.832031 L 22.246094 38.640625 C 23.324219 38.886719 24.378906 39.023438 25.375 39.050781 C 27.261719 39.105469 28.84375 38.726562 30.167969 38.011719 L 41.667969 43.761719 C 43.601562 44.726562 46 43.242188 46 41.078125 C 46 40.332031 45.71875 39.609375 45.214844 39.058594 L 36.90625 29.816406 C 36.636719 22.707031 32.625 18.199219 28.714844 15.640625 C 26.691406 14.316406 24.703125 13.453125 23.257812 12.863281 C 22.628906 12.609375 22.164062 12.429688 21.8125 12.28125 C 21.964844 7.496094 18.5625 3.046875 13.578125 3.003906 Z M 13.550781 6 C 17.019531 6.03125 19.453125 9.378906 18.90625 12.925781 C 18.859375 13.234375 18.914062 13.511719 19.003906 13.738281 C 16.035156 15.054688 14 18.003906 14 21.5 C 14 25.761719 17.226562 28.699219 20.558594 30.453125 C 23.890625 32.207031 27.390625 33 29.5 33 C 30.039062 33.007812 30.542969 32.722656 30.816406 32.257812 C 31.089844 31.789062 31.089844 31.210938 30.816406 30.742188 C 30.542969 30.277344 30.039062 29.992188 29.5 30 C 28.296875 30 24.796875 29.292969 21.957031 27.796875 C 19.117188 26.300781 17 24.238281 17 21.5 C 17 18.25 19.25 16 22.5 16 C 22.625 16 22.75 15.988281 22.875 15.957031 C 24.125 16.488281 25.601562 17.191406 27.074219 18.152344 C 30.617188 20.46875 34 24.042969 34 30.5 C 34 30.871094 34.136719 31.226562 34.386719 31.503906 L 42.984375 41.066406 L 30.902344 35.023438 C 30.367188 34.757812 29.722656 34.832031 29.265625 35.21875 C 28.824219 35.589844 27.335938 36.105469 25.460938 36.054688 C 23.582031 36 21.324219 35.476562 19.191406 34.296875 C 14.921875 31.933594 11 27.074219 11 17.5 C 11 16.929688 10.679688 16.410156 10.171875 16.160156 C 9.382812 15.765625 8.929688 15.34375 8.582031 14.671875 C 8.234375 14 8 13 8 11.5 C 8 8.425781 10.46875 5.972656 13.550781 6 Z M 12.5 9 C 11.671875 9 11 9.671875 11 10.5 C 11 11.328125 11.671875 12 12.5 12 C 13.328125 12 14 11.328125 14 10.5 C 14 9.671875 13.328125 9 12.5 9 Z M 12.5 9 "/>
</g>
</svg>
