<?xml version="1.0" encoding="UTF-8"?>
<svg xmlns="http://www.w3.org/2000/svg" xmlns:xlink="http://www.w3.org/1999/xlink" viewBox="0 0 50 50" width="50px" height="50px">
<g id="surface28433240">
<path style=" stroke:none;fill-rule:nonzero;fill:rgb(100%,100%,100%);fill-opacity:1;" d="M 17.21875 -0.03125 C 16.28125 0.0898438 15.414062 0.722656 15.0625 1.65625 C 15.050781 1.6875 15.039062 1.71875 15.03125 1.75 C 14.75 2.835938 14.160156 3.566406 13.03125 4.125 C 11.902344 4.683594 10.207031 5 8 5 C 3.570312 5 0 8.570312 0 13 C 0 17.242188 2.300781 19.671875 4.53125 20.8125 C 5.972656 21.550781 7.167969 21.769531 8 21.875 L 8 46.5 C 8 48.421875 9.578125 50 11.5 50 C 13.421875 50 15 48.421875 15 46.5 L 15 31 C 15 31.054688 15.085938 30.765625 15.5 30.40625 C 15.914062 30.046875 16.570312 29.644531 17.375 29.28125 C 18.984375 28.550781 21.136719 28 23 28 C 24.863281 28 27.015625 28.550781 28.625 29.28125 C 29.429688 29.644531 30.085938 30.046875 30.5 30.40625 C 30.914062 30.765625 31 31.054688 31 31 L 31 46.5 C 31 48.421875 32.578125 50 34.5 50 C 36.421875 50 38 48.421875 38 46.5 L 38 32 C 38 31.445312 38.445312 31 39 31 C 39.554688 31 40 31.445312 40 32 L 40 46.5 C 40 48.421875 41.578125 50 43.5 50 C 45.421875 50 47 48.421875 47 46.5 L 47 20 C 47 19.980469 47 19.957031 47 19.9375 C 48.820312 18.488281 50 16.394531 50 14 L 50 4 C 50.007812 3.589844 49.765625 3.210938 49.386719 3.054688 C 49.007812 2.894531 48.566406 2.984375 48.28125 3.28125 L 44.71875 6.84375 C 43.5625 6.359375 42.324219 6 41 6 C 39.691406 6 38.417969 6.351562 37.28125 6.84375 L 33.71875 3.28125 C 33.496094 3.0625 33.183594 2.957031 32.875 3 C 32.371094 3.0625 31.996094 3.492188 32 4 L 32 13.40625 C 29.457031 12.496094 25.933594 12 22 12 C 18.917969 12 15.789062 13.046875 13.1875 14.0625 C 11.886719 14.570312 10.707031 15.070312 9.78125 15.4375 C 8.855469 15.804688 8.078125 16 8 16 C 6.34375 16 5 14.65625 5 13 C 5 11.34375 6.34375 10 8 10 C 11.945312 10 14.679688 9.132812 16.5625 7.8125 C 18.445312 6.492188 19.429688 4.753906 19.875 3.1875 C 19.875 3.175781 19.875 3.167969 19.875 3.15625 C 20.1875 1.898438 19.496094 0.527344 18.25 0.0625 C 18.21875 0.0507812 18.1875 0.0390625 18.15625 0.03125 C 17.84375 -0.046875 17.53125 -0.0703125 17.21875 -0.03125 Z M 17.375 2 C 17.441406 1.996094 17.519531 1.988281 17.59375 2 C 17.871094 2.132812 18 2.328125 17.9375 2.625 C 17.933594 2.636719 17.941406 2.644531 17.9375 2.65625 C 17.582031 3.882812 16.894531 5.164062 15.4375 6.1875 C 13.96875 7.21875 11.65625 8 8 8 C 5.253906 8 3 10.253906 3 13 C 3 15.746094 5.253906 18 8 18 C 8.820312 18 9.523438 17.695312 10.5 17.3125 C 11.476562 16.929688 12.644531 16.429688 13.90625 15.9375 C 16.429688 14.953125 19.382812 14 22 14 C 26.277344 14 30.101562 14.6875 32.1875 15.625 C 33.042969 19.316406 36.738281 22 41 22 C 42.425781 22 43.785156 21.691406 45 21.15625 L 45 46.5 C 45 47.375 44.375 48 43.5 48 C 42.625 48 42 47.375 42 46.5 L 42 32 C 42 30.355469 40.644531 29 39 29 C 37.355469 29 36 30.355469 36 32 L 36 46.5 C 36 47.375 35.375 48 34.5 48 C 33.625 48 33 47.375 33 46.5 L 33 31 C 33 30.09375 32.445312 29.453125 31.8125 28.90625 C 31.179688 28.359375 30.371094 27.859375 29.4375 27.4375 C 27.570312 26.589844 25.238281 26 23 26 C 20.761719 26 18.429688 26.589844 16.5625 27.4375 C 15.628906 27.859375 14.820312 28.359375 14.1875 28.90625 C 13.554688 29.453125 13 30.09375 13 31 L 13 46.5 C 13 47.375 12.375 48 11.5 48 C 10.625 48 10 47.375 10 46.5 L 10 21 C 10 20.460938 9.570312 20.015625 9.03125 20 C 9.03125 20 7.238281 19.9375 5.46875 19.03125 C 3.699219 18.125 2 16.558594 2 13 C 2 9.628906 4.628906 7 8 7 C 10.394531 7 12.359375 6.671875 13.90625 5.90625 C 15.421875 5.15625 16.5 3.914062 16.9375 2.34375 C 17.027344 2.101562 17.175781 2.015625 17.375 2 Z M 34 6.4375 L 36.28125 8.71875 C 36.597656 9.027344 37.082031 9.09375 37.46875 8.875 C 38.398438 8.367188 39.789062 8 41 8 C 42.210938 8 43.480469 8.367188 44.5625 8.90625 C 44.949219 9.097656 45.414062 9.023438 45.71875 8.71875 L 48 6.4375 L 48 14 C 48 17.285156 44.929688 20 41 20 C 37.070312 20 34 17.285156 34 14 Z M 37.5 11 C 36.671875 11 36 11.671875 36 12.5 C 36 13.328125 36.671875 14 37.5 14 C 38.328125 14 39 13.328125 39 12.5 C 39 11.671875 38.328125 11 37.5 11 Z M 44.5 11 C 43.671875 11 43 11.671875 43 12.5 C 43 13.328125 43.671875 14 44.5 14 C 45.328125 14 46 13.328125 46 12.5 C 46 11.671875 45.328125 11 44.5 11 Z M 44.5 11 "/>
</g>
</svg>
