<?xml version="1.0" encoding="UTF-8"?>
<svg xmlns="http://www.w3.org/2000/svg" xmlns:xlink="http://www.w3.org/1999/xlink" viewBox="0 0 64 64" width="64px" height="64px">
<g id="surface28730749">
<path style=" stroke:none;fill-rule:nonzero;fill:rgb(74.901962%,23.921569%,58.823532%);fill-opacity:1;" d="M 62 27.5 L 55 27.5 C 55 23.851562 52 20.898438 48.398438 20.949219 L 43.648438 21 C 43.601562 19.648438 42.5 18.601562 41.148438 18.601562 C 37 18.601562 33.601562 21.949219 33.601562 26.101562 L 33.601562 30.949219 C 33.601562 33.75 35.851562 36 38.648438 36 L 21.25 36 C 17.148438 36 13.199219 37.648438 10.351562 40.550781 C 7.601562 43.550781 7.050781 47.75 6.101562 52.101562 L 4.699219 58.601562 C 4.351562 60.351562 5.648438 62 7.449219 62 C 8.699219 62 9.851562 61.148438 10.148438 59.898438 C 10.398438 59 10.648438 58.050781 10.75 57.800781 C 11.199219 56.648438 11.851562 55.601562 12.550781 54.648438 L 15.25 60.5 C 15.648438 61.398438 16.601562 62 17.601562 62 C 19.300781 62 20.550781 60.398438 20.101562 58.75 L 18 50.550781 C 19.601562 49.898438 21.300781 49.5 23.101562 49.5 L 23.398438 49.5 C 29.101562 49.5 34.050781 52.949219 36.148438 58 C 36.300781 58.398438 36.550781 59.25 36.699219 60 C 37 61.148438 38.050781 62 39.25 62 C 40.75 62 41.898438 60.75 41.851562 59.25 C 41.75 56.851562 41.648438 53.148438 41.949219 49.5 L 46.5 49.5 C 47.851562 49.5 49.148438 49.949219 50.25 50.75 C 50.601562 51.050781 50.949219 51.351562 51.25 51.699219 C 51.949219 52.398438 53.050781 52.699219 54.101562 52.351562 C 55.851562 51.75 56.449219 49.800781 55.449219 48.199219 C 53.851562 45.601562 51 44 47.949219 44 L 42.800781 44 C 43.5 41.300781 44.601562 39.148438 46.351562 38.351562 C 52.25 35.550781 62 41.648438 62 30.199219 C 62 30.101562 62 30.050781 62 29.949219 C 62 28.5 62 27.5 62 27.5 Z M 62 27.5 "/>
<path style=" stroke:none;fill-rule:nonzero;fill:rgb(100%,100%,100%);fill-opacity:1;" d="M 29 37.5 L 14.851562 37.5 C 10.699219 37.5 6.949219 35 5.351562 31.148438 L 2.601562 24.601562 C 2.300781 23.851562 2.648438 22.949219 3.398438 22.648438 C 4.148438 22.351562 5.050781 22.699219 5.351562 23.449219 L 8.148438 30 C 9.300781 32.75 11.949219 34.5 14.898438 34.5 L 29 34.5 C 29.851562 34.5 30.5 35.148438 30.5 36 C 30.5 36.851562 29.800781 37.5 29 37.5 Z M 53.199219 54 C 51.75 54 50.449219 53.300781 49.648438 52.101562 C 49.199219 51.398438 49.398438 50.5 50.050781 50 C 50.75 49.550781 51.648438 49.75 52.148438 50.398438 C 52.398438 50.75 52.75 50.949219 53.199219 50.949219 C 53.851562 50.949219 54.199219 50.5 54.300781 50.300781 C 54.398438 50.101562 54.648438 49.601562 54.300781 49.050781 L 53.800781 48.199219 C 52.800781 46.5 50.949219 45.449219 48.949219 45.449219 C 48.101562 45.449219 47.449219 44.800781 47.449219 43.949219 C 47.449219 43.101562 48.101562 42.449219 48.949219 42.449219 C 52 42.449219 54.851562 44.101562 56.351562 46.699219 L 56.851562 47.550781 C 57.648438 48.898438 57.648438 50.5 56.898438 51.800781 C 56.101562 53.199219 54.75 54 53.199219 54 Z M 18.5 63.5 C 17.648438 63.5 17 62.851562 17 62 C 17 61.148438 17.648438 60.5 18.5 60.5 C 18.699219 60.5 18.800781 60.398438 18.851562 60.351562 C 18.898438 60.300781 18.949219 60.148438 18.949219 59.949219 L 18.050781 56.398438 C 17.851562 55.601562 18.351562 54.800781 19.148438 54.550781 C 19.949219 54.351562 20.75 54.851562 21 55.648438 L 21.898438 59.199219 C 22.148438 60.25 21.949219 61.300781 21.300781 62.148438 C 20.648438 63 19.550781 63.5 18.5 63.5 Z M 18.5 63.5 "/>
<path style=" stroke:none;fill-rule:nonzero;fill:rgb(100%,100%,100%);fill-opacity:1;" d="M 63.5 27.5 C 63.5 26.648438 62.851562 26 62 26 L 56.351562 26 C 56.050781 24.398438 55.300781 22.949219 54.101562 21.800781 C 52.601562 20.300781 50.550781 19.449219 48.449219 19.449219 C 48.398438 19.449219 48.398438 19.449219 48.351562 19.449219 L 44.851562 19.5 C 44.25 18.101562 42.800781 17.101562 41.199219 17.101562 C 36.25 17.101562 32.148438 21.148438 32.148438 26.101562 L 32.148438 30.949219 C 32.148438 32.699219 32.800781 34.351562 34.050781 35.601562 C 35.300781 36.851562 36.949219 37.5 38.699219 37.5 C 42.300781 37.5 45 34.550781 45 30.949219 L 45 22.5 L 48.5 22.449219 C 49.851562 22.449219 51.148438 22.949219 52.101562 23.898438 C 53.050781 24.851562 53.601562 26.148438 53.601562 27.5 C 53.601562 28.351562 54.25 29 55.101562 29 L 60.601562 29 C 60.601562 29.300781 60.601562 29.601562 60.601562 29.949219 L 60.601562 30.199219 C 60.601562 32.550781 60.148438 34.148438 59.300781 35 C 58.101562 36.199219 55.75 36.101562 53.25 36.050781 C 50.75 36 48.148438 35.898438 45.800781 37 C 40.5 39.5 39.949219 50.550781 40.398438 59.351562 C 40.398438 59.648438 40.300781 59.949219 40.101562 60.148438 C 39.898438 60.351562 39.601562 60.5 39.300781 60.5 C 38.800781 60.5 38.351562 60.148438 38.25 59.648438 C 37.898438 58.199219 37.699219 57.699219 37.601562 57.398438 C 35.148438 51.699219 29.601562 48 23.398438 48 L 23.101562 48 C 17.050781 48 11.648438 51.648438 9.398438 57.25 C 9.351562 57.398438 9.199219 57.699219 8.75 59.550781 C 8.601562 60.101562 8.101562 60.5 7.5 60.5 C 6.949219 60.5 6.648438 60.199219 6.5 60 C 6.351562 59.800781 6.148438 59.449219 6.25 58.898438 L 7.648438 52.398438 C 7.75 51.898438 7.851562 51.398438 7.949219 50.898438 C 8.699219 47.300781 9.398438 43.898438 11.550781 41.550781 C 12.101562 40.949219 12.050781 40 11.449219 39.449219 C 10.851562 38.898438 9.898438 38.949219 9.351562 39.550781 C 6.648438 42.550781 5.851562 46.300781 5.050781 50.351562 C 4.949219 50.851562 4.851562 51.300781 4.75 51.800781 L 3.351562 58.300781 C 3.101562 59.601562 3.398438 60.898438 4.199219 61.898438 C 5 62.898438 6.25 63.5 7.550781 63.5 C 9.5 63.5 11.199219 62.199219 11.699219 60.300781 C 12.101562 58.75 12.25 58.398438 12.25 58.351562 C 14.050781 53.851562 18.351562 51 23.199219 51 L 23.5 51 C 28.5 51 32.949219 53.949219 34.851562 58.550781 C 34.898438 58.699219 35.050781 59.101562 35.351562 60.351562 C 35.800781 62.199219 37.449219 63.5 39.351562 63.5 C 40.449219 63.5 41.550781 63.050781 42.300781 62.199219 C 43.050781 61.398438 43.5 60.300781 43.398438 59.148438 C 42.75 48.5 44.199219 41 47 39.699219 C 48.648438 38.898438 50.898438 39 53.050781 39.050781 C 56.050781 39.148438 59.148438 39.199219 61.25 37.148438 C 62.75 35.699219 63.449219 33.398438 63.449219 30.199219 L 63.449219 29.949219 C 63.5 28.5 63.5 27.5 63.5 27.5 Z M 42 30.949219 C 42 32.898438 40.550781 34.5 38.601562 34.5 C 37.648438 34.5 36.75 34.148438 36.101562 33.449219 C 35.449219 32.800781 35.050781 31.898438 35.050781 30.949219 L 35.050781 26.101562 C 35.050781 22.800781 37.800781 20.101562 41.101562 20.101562 C 41.648438 20.101562 42 20.550781 42 21.101562 Z M 42 30.949219 "/>
<path style=" stroke:none;fill-rule:nonzero;fill:rgb(100%,100%,100%);fill-opacity:1;" d="M 48.5 24.5 C 47.671875 24.5 47 25.171875 47 26 C 47 26.828125 47.671875 27.5 48.5 27.5 C 49.328125 27.5 50 26.828125 50 26 C 50 25.171875 49.328125 24.5 48.5 24.5 Z M 48.5 24.5 "/>
</g>
</svg>
