<svg xmlns="http://www.w3.org/2000/svg" viewBox="0 0 291.86 140.22"><defs><style>.cls-1{fill:#bf3d96;}.cls-2{fill:#211d53;}.cls-3{font-size:45px;fill:#e9eaea;font-family:Montserrat-Bold, Montserrat;font-weight:700;}.cls-4{letter-spacing:-0.02em;}.cls-5{letter-spacing:0em;}.cls-6{letter-spacing:-0.01em;}.cls-7{letter-spacing:-0.02em;}.cls-8{letter-spacing:0em;}</style></defs><g id="Layer_2" data-name="Layer 2"><g id="Layer_2-2" data-name="Layer 2"><rect class="cls-1" y="7.25" width="120.85" height="120.85" rx="7.49"/><path class="cls-2" d="M101.26,64.08c0-.33,0-.65,0-1v-.19s0-.08,0-.12a41.33,41.33,0,0,0-82.65,1.29c0,.42,0,.83,0,1.25v0a19.61,19.61,0,0,0,.11,2,41.39,41.39,0,0,0,29.68,36.36,12.28,12.28,0,0,0,23.79-.22A41.5,41.5,0,0,0,101.26,64.08ZM59.91,26.74A37.39,37.39,0,0,1,97.23,63c-.07,10-7.4,18.06-16.41,18.06-7.82,0-16.17-4.76-18-12.68v-.09c.43-2.67,4.34-6.58,7.48-9.72.68-.68,1.34-1.34,1.94-2a2.7,2.7,0,0,0,.61-3.12c-2-4.16-17.2-3.12-17.35-3.11C50.46,50.84,48,52,47.4,54c-.28,1-.17,2.45,1.83,4l8.64,9.72A17.22,17.22,0,0,1,41,81.42c-8.82,0-18.34-6.07-18.44-15.9,0-.48,0-1,0-1.44A37.39,37.39,0,0,1,59.91,26.74ZM26.42,80.57A24,24,0,0,0,41,85.42,21.12,21.12,0,0,0,48,84.24V99.46A37.37,37.37,0,0,1,26.42,80.57Zm33.84,28.34a8.31,8.31,0,0,1-8.3-8.3V82.36a21.57,21.57,0,0,0,6.47-6V93a2,2,0,0,0,4,0V76.53a21.63,21.63,0,0,0,6.12,5.3v18.78A8.3,8.3,0,0,1,60.26,108.91Zm12.29-9.69V83.69a24.67,24.67,0,0,0,8.27,1.41,19.31,19.31,0,0,0,12.73-4.86A37.48,37.48,0,0,1,72.55,99.22Z"/><path class="cls-2" d="M73.19,51.55a2,2,0,0,0,2-2,4.22,4.22,0,0,1,8.43,0,2,2,0,1,0,4,0,8.22,8.22,0,0,0-16.43,0A2,2,0,0,0,73.19,51.55Z"/><path class="cls-2" d="M34.77,51.63a2,2,0,0,0,2-2,4.21,4.21,0,1,1,8.42,0,2,2,0,0,0,4,0,8.21,8.21,0,0,0-16.42,0A2,2,0,0,0,34.77,51.63Z"/><text class="cls-3" transform="translate(140.64 38.25) scale(1.03 1)"><tspan class="cls-4">C<tspan class="cls-5" x="32.13" y="0">ebu</tspan></tspan><tspan class="cls-6" x="0" y="45">P</tspan><tspan x="32.45" y="45">et</tspan><tspan x="0" y="90">Ma</tspan><tspan class="cls-7" x="70.74" y="90">t</tspan><tspan class="cls-8" x="89.55" y="90">c</tspan><tspan class="cls-5" x="115.96" y="90">h</tspan></text></g></g></svg>