<svg xmlns="http://www.w3.org/2000/svg" width="275.32" height="50.46" viewBox="0 0 275.32 50.46"><path d="M288.77,243.27v0a.69.69,0,0,0-.54-.82.71.71,0,0,0-.83.53l0,.11a150.86,150.86,0,0,1-4.5,16.28,2.77,2.77,0,0,0-.5-.61,2.1,2.1,0,0,0-1.64-.57,3.93,3.93,0,0,0-3,2.41l-.09,0c-1.23,0-2.49,0-3.76,0,0-2.38.12-4.68.19-6.83v-.13c.28-8.37.3-11.38-.65-12.28a1.07,1.07,0,0,0-.82-.31c-3.85.28-8.94,11.18-12.46,21.39a29.37,29.37,0,0,0-7.13,2.73.69.69,0,0,0-.26.95.71.71,0,0,0,.66.36l.2,0,.1-.06a26,26,0,0,1,5.89-2.34c-1.13,3.41-2.19,7-3.16,10.67a.7.7,0,0,0,.5.85.7.7,0,0,0,.86-.5c1-3.91,2.18-7.76,3.43-11.45A61.36,61.36,0,0,1,272.48,262a133.57,133.57,0,0,0,.58,16.32.71.71,0,0,0,.72.63h.06a.71.71,0,0,0,.62-.78,131.93,131.93,0,0,1-.58-16.23c1.1,0,2.2,0,3.28,0a9.23,9.23,0,0,0-.52,3.5c.13,1.73,1,2.72,2.24,2.61s2.53-1.6,3.93-4.72a.59.59,0,0,0,.23,0,.7.7,0,0,0,.68-.71,7.76,7.76,0,0,0-.12-1.23c.35-.9.71-1.89,1.07-3-.92,6.8-1.37,13.57-.16,16.53a.71.71,0,0,0,.65.43h0l.22-.05a.71.71,0,0,0,.38-.38.72.72,0,0,0,0-.54C283.87,269.74,286.9,252,288.77,243.27Zm-.43,0-.08,0,0-.08h.1A1,1,0,0,1,288.34,243.26Zm-.55-.23.1,0v0l-.1,0ZM278,265.34a8.27,8.27,0,0,1,.78-3.79c.56-1.2,1.32-1.95,2-2h.07a.72.72,0,0,1,.53.21,3,3,0,0,1,.71,1.54c-1.88,4.74-3,5.33-3.37,5.35S278.08,265.85,278,265.34ZM261.8,262c4.52-12.87,8.67-19.09,10.75-19.57.49,1,.31,6.35.15,11.11-.07,2.21-.15,4.59-.2,7.06A65,65,0,0,0,261.8,262Z" transform="translate(-252.69 -228.62)" fill="#fff"/><path d="M314.14,272.3a2.39,2.39,0,0,1-2.3-.8c-2.23-2.61-1.7-10.94,1.49-23.49,7.5-1.59,12.51-1.92,13.76-.91a.71.71,0,0,0,.51.16.66.66,0,0,0,.47-.26.69.69,0,0,0-.1-1c-1.6-1.3-6.39-1.13-14.25.49.36-1.35.7-2.57,1-3.58l.07-.25a.7.7,0,0,0-.48-.86.66.66,0,0,0-.53.06.68.68,0,0,0-.34.42l-.07.24c-.4,1.42-.8,2.86-1.17,4.3-4,.87-7.28,1.79-7.92,2a.7.7,0,0,0,.24,1.37l.14,0c1.33-.38,3.94-1.09,7.15-1.81a109.39,109.39,0,0,0-2.17,10.81,13.57,13.57,0,0,0-2.18.39l0-.24c.19-2.06-.53-3.46-1.92-3.73-2.81-.56-5.4,4.8-7.47,11.3a31.33,31.33,0,0,1,1.74-6.8.7.7,0,0,0-.8-1,.66.66,0,0,0-.42.33,5.5,5.5,0,0,0-.36.82h0a11.06,11.06,0,0,1-3.43,1.37,7.37,7.37,0,0,0,0-.94c-.18-2.51-1.84-3.53-3.31-3.43a3.07,3.07,0,0,0-1.85.82,2.61,2.61,0,0,0-.83,2.14,2.53,2.53,0,0,0,.09.55,5.58,5.58,0,0,0-.82,3.45c.15,1.6,1,2.67,2.32,2.78h.5a3.41,3.41,0,0,0,2.12-1,6.42,6.42,0,0,0,1.55-2.89,12,12,0,0,0,3.09-1,118.93,118.93,0,0,0-2.57,16.27.71.71,0,0,0,.62.72h.13a.71.71,0,0,0,.64-.56c2.25-10.77,6.24-22.06,8.78-21.58.91.18.84,1.75.8,2.23a7.59,7.59,0,0,1-.14.9c-3.11,1.35-4.49,3.75-4.44,5a1.16,1.16,0,0,0,1.17,1.18c2,0,3.71-2.54,4.45-5.12a11.91,11.91,0,0,1,2.32-.52c-.61,5.2-.46,9.73,1.33,11.82a3.65,3.65,0,0,0,2.91,1.32l.36,0,.27,0a.7.7,0,0,0,.61-.78A.69.69,0,0,0,314.14,272.3ZM305.32,262c-.65,1.48-1.58,2.58-2.4,2.8A5.29,5.29,0,0,1,305.32,262Zm-13.7-3.38c1.22-.08,1.72,1,1.8,2.13a5.93,5.93,0,0,1,0,1,4.7,4.7,0,0,1-2.25-.37,1.8,1.8,0,0,1-.61-.49A3.14,3.14,0,0,1,292,260a.7.7,0,0,0,.49-.86.75.75,0,0,0-.33-.43.71.71,0,0,0-.53-.06,4.56,4.56,0,0,0-1,.42l0,0A1.63,1.63,0,0,1,291.62,258.61Zm-1.84,3.53a3.24,3.24,0,0,0,.73.5,5.22,5.22,0,0,0,2.58.53,4.54,4.54,0,0,1-1,1.77,1.82,1.82,0,0,1-1.51.61c-.82-.07-1-1.08-1.05-1.51A4.3,4.3,0,0,1,289.78,262.14Z" transform="translate(-252.69 -228.62)" fill="#fff"/><path d="M316.37,253.37l-.16,0-.27.7c-.11.25-.26.62-.48,1.16l-.1.23a.71.71,0,0,0,.39.91l.2.06h.11a.69.69,0,0,0,.6-.43s.53-1.26.69-1.67a.71.71,0,0,0-.37-1A.62.62,0,0,0,316.37,253.37Z" transform="translate(-252.69 -228.62)" fill="#fff"/><path d="M346,256.76c-.6.74-2.61,2.9-3.92,3-1.05.08-1.37-1-1.8-2.7-.37-1.47-.79-3.14-2.37-3s-2.71,2.08-3.76,4.29a.7.7,0,0,0-.44-.7.58.58,0,0,0-.39,0,.63.63,0,0,0-.33.09,10.84,10.84,0,0,1-3.43,1.38,7.53,7.53,0,0,0,0-.95c-.18-2.51-1.85-3.53-3.31-3.43a3.1,3.1,0,0,0-1.85.82,2.66,2.66,0,0,0-.83,2.14,2.53,2.53,0,0,0,.09.55,1.29,1.29,0,0,0-.09.16l-.05,0c-1.1,1.43-4.45,5.19-6.71,5.35a1.11,1.11,0,0,1-1.11-.49c-.72-1.07-.41-3.37.32-4.84a.7.7,0,0,0-.32-.94.71.71,0,0,0-.94.31c-.91,1.83-1.3,4.64-.22,6.25a2.47,2.47,0,0,0,2.14,1.12h.23c2-.14,4.36-2.18,5.93-3.82,0,.1,0,.21,0,.31a2.75,2.75,0,0,0,2.32,2.78h.5a3.35,3.35,0,0,0,2.12-1,6.32,6.32,0,0,0,1.55-2.89,11.91,11.91,0,0,0,3-.91c-.42,1.54-.86,3.72-.18,4.22v.76l.41-.64h.07a1.11,1.11,0,0,0,.78-.55,17.13,17.13,0,0,0,.95-2c.74-1.75,2.49-5.85,3.67-5.94.34,0,.57.64.91,2,.41,1.66,1,3.93,3.26,3.76s4.81-3.38,4.92-3.52a.67.67,0,0,0,.15-.51.7.7,0,0,0-1.25-.36Zm-19.64-.68a1.42,1.42,0,0,1,1.2.47,2.78,2.78,0,0,1,.6,1.67,5,5,0,0,1,0,1,4.7,4.7,0,0,1-2.25-.37,1.91,1.91,0,0,1-.61-.49,3.12,3.12,0,0,1,1.46-.91.7.7,0,0,0,.42-.33.71.71,0,0,0,.06-.53.7.7,0,0,0-.33-.42.66.66,0,0,0-.53-.07,4.3,4.3,0,0,0-1,.42v0A1.75,1.75,0,0,1,326.35,256.08Zm-1.84,3.53a3.14,3.14,0,0,0,.73.5,5.76,5.76,0,0,0,2.58.54,4.45,4.45,0,0,1-1,1.76,1.82,1.82,0,0,1-1.51.61c-.82-.07-1-1.08-1-1.51A4.33,4.33,0,0,1,324.51,259.61Z" transform="translate(-252.69 -228.62)" fill="#fff"/><path d="M354.69,253.5l.2.06H355a.68.68,0,0,0,.6-.42l.69-1.68a.71.71,0,0,0-.38-1,.63.63,0,0,0-.59.05l-.18,0L355,251l-.11.25-.52,1.26-.05.13A.69.69,0,0,0,354.69,253.5Z" transform="translate(-252.69 -228.62)" fill="#fff"/><path d="M369.61,254.83a33.77,33.77,0,0,0-4.4,2.5c-.17-.19-.36-.38-.55-.58a4.29,4.29,0,0,1-1.59-2.45,1.44,1.44,0,0,1,.59-1.2,2.34,2.34,0,0,1,1.21-.52.28.28,0,0,1,.3.1,2.18,2.18,0,0,1,.09,1.71.7.7,0,1,0,1.36.33,3.37,3.37,0,0,0-.38-2.95,1.7,1.7,0,0,0-1.47-.59,3.67,3.67,0,0,0-2.08.9,2.78,2.78,0,0,0-1,2.32,3.58,3.58,0,0,0,.49,1.53c-1.26,1.56-4.32,4.84-6.41,5a1.13,1.13,0,0,1-1.12-.5c-.71-1.07-.41-3.37.33-4.84a.7.7,0,1,0-1.26-.62c-.91,1.83-1.3,4.64-.23,6.24a2.49,2.49,0,0,0,2.15,1.13h.23c2.71-.2,5.9-3.7,7.18-5.24l.66.69.37.38c-1.48,1.09-4.51,3.57-4.55,5.42a1.5,1.5,0,0,0,.85,1.41,1.74,1.74,0,0,0,.79.17h.19a6.8,6.8,0,0,0,2.9-1.14c1.65-1.08,2.59-2.47,2.5-3.72a3.93,3.93,0,0,0-.65-1.85,33.53,33.53,0,0,1,4.11-2.33.7.7,0,0,0-.59-1.27Zm-8.61,8.9c-.09,0-.09-.06-.08-.13,0-.69,1.42-2.43,4-4.36a2.63,2.63,0,0,1,.39,1.15c.05.71-.67,1.65-1.87,2.44A4,4,0,0,1,361,263.73Z" transform="translate(-252.69 -228.62)" fill="#fff"/><path d="M389.8,253.42a.66.66,0,0,0-.53,0,.71.71,0,0,0-.42.34c-1.4,2.64-4.17,6.47-5.57,6.35a.22.22,0,0,1-.18-.13c-.76-1.13.24-5.69,1-8.31a.71.71,0,0,0-.2-.72l.34-1.21-.59,1.07a.68.68,0,0,0-.86.39l-.34.75a2.68,2.68,0,0,0-2.32-1.58h0c-1.94,0-3.37,3.55-3.82,5.79-.26,1.27-.48,3.5.87,4.06s2.64-.63,4.36-3.46c-.25,1.93-.13,3.27.36,4a1.6,1.6,0,0,0,1.22.74h.35c2.86-.21,6.22-6.39,6.59-7.09h0A.71.71,0,0,0,389.8,253.42Zm-12.05,5.46c-.13-.08-.37-.82,0-2.5.49-2.45,1.75-4.61,2.46-4.66h0c.84,0,1.34,1.31,1.51,1.86C379.51,257.86,378.07,259,377.75,258.88Z" transform="translate(-252.69 -228.62)" fill="#fff"/><path d="M427.6,248.19l.2.06h.12a.69.69,0,0,0,.59-.43s.53-1.26.7-1.68a.69.69,0,0,0-.38-1,.6.6,0,0,0-.59,0l-.17,0-.28.72c-.12.28-.3.71-.57,1.38a.72.72,0,0,0,0,.54A.69.69,0,0,0,427.6,248.19Z" transform="translate(-252.69 -228.62)" fill="#fff"/><path d="M462.64,248.09a16.81,16.81,0,0,0-4.78,2.77c.16-1.7.22-3.83-.24-4.83a1.18,1.18,0,0,0-1.08-.75c-.7,0-1.32.61-2.12,1.78a4.19,4.19,0,0,0-.44-.79,1.75,1.75,0,0,0-1.34-.79h-.07c-1.86,0-3.3,1.83-4.12,3.79l0,0c-.59.75-2.6,2.9-3.92,3-1,.07-1.37-1-1.8-2.7-.37-1.48-.77-3.15-2.37-3s-2.68,2-3.71,4.21a1.09,1.09,0,0,0,0-.18.71.71,0,0,0-.79-.61.71.71,0,0,0-.46.27c-1.11,1.44-4.46,5.2-6.71,5.36a1.11,1.11,0,0,1-1.12-.5c-.71-1.07-.41-3.36.32-4.84a.69.69,0,0,0-.31-.94.71.71,0,0,0-.94.32,8,8,0,0,0-.39.94c-3.37,0-3.79-2.63-3.81-2.76a.72.72,0,0,0-.68-.59h0l-.06-.14,0,.15a.71.71,0,0,0-.56.54c-1.08,4.79-3.13,8.35-4,8.42,0,0,0,0-.1-.08-.69-.86-.55-4.49.25-7a.7.7,0,0,0-.45-.88.72.72,0,0,0-.54.05.66.66,0,0,0-.34.41,18.1,18.1,0,0,0-.63,3.05,10.55,10.55,0,0,1-3.37,1.35,7.37,7.37,0,0,0,0-.94c-.19-2.51-1.83-3.54-3.31-3.43a3.07,3.07,0,0,0-1.85.82,2.61,2.61,0,0,0-.83,2.14,3.2,3.2,0,0,0,.08.54c-.09.15-.16.32-.24.47-3,4.48-6,7.37-7.41,7-.26-.06-.45-.41-.56-.68-1.62-4.14,2.05-20.09,4.51-23.79a.7.7,0,0,0-.72-1.07.67.67,0,0,0-.45.3c-2.71,4.07-6.47,20.42-4.64,25.07a2.27,2.27,0,0,0,1.54,1.54,2.6,2.6,0,0,0,.56.06h.19c2.09-.15,4.61-2.86,6.44-5.25a2.64,2.64,0,0,0,2.29,2.57l.27,0H408a3.38,3.38,0,0,0,2.11-1,6.44,6.44,0,0,0,1.56-2.89,12.06,12.06,0,0,0,3.48-1.15,5.88,5.88,0,0,0,.73,3.62,1.48,1.48,0,0,0,1.19.61h.12c2.22-.16,4-5.23,4.73-7.59a4.9,4.9,0,0,0,4,2,5.59,5.59,0,0,0,.53,3.91,2.51,2.51,0,0,0,2.15,1.12h.23c1.92-.14,4.09-2,5.65-3.55-.26,1.27-.37,2.54.14,2.91v.77l.42-.64H435a1.15,1.15,0,0,0,.78-.56,15.68,15.68,0,0,0,.95-2c.75-1.75,2.49-5.85,3.67-5.94.33,0,.58.65.91,2,.42,1.65,1,3.93,3.26,3.75a5.94,5.94,0,0,0,3.12-1.64c-.17,1.64.26,2.75,1.23,3.08,1.54.52,3-1.52,4.56-4a.7.7,0,0,0,.23.11.73.73,0,0,0,.86-.5,7.15,7.15,0,0,0,.21-1.71,12.38,12.38,0,0,1,1.61-2.23,15.61,15.61,0,0,1-.11,5.44c-4.47,4.32-7.38,10.32-7.31,13.27,0,1.53.83,2,1.31,2.14a1.89,1.89,0,0,0,.63.1h.15a3.06,3.06,0,0,0,2-1.19c2.13-2.47,3.83-8.77,4.52-13.65a16.32,16.32,0,0,1,5.48-3.5.68.68,0,0,0,.4-.36.72.72,0,0,0,0-.54A.71.71,0,0,0,462.64,248.09Zm-11.93,18.23c-.25-.07-.31-.49-.32-.83-.06-2.32,2.11-7,5.52-10.83-.79,4.25-2.22,9.08-3.86,11C451.55,266.21,451.1,266.44,450.71,266.32ZM449.4,253.8c-.24-.08-.47-.79-.23-2.1.4-2.19,1.85-4.71,3.3-4.81h.13a.75.75,0,0,1,.25.23,3.24,3.24,0,0,1,.52,1.57l-.42.68C452.1,250.76,450.09,254,449.4,253.8Zm-40.74-3.71a1.41,1.41,0,0,1,1.21.47,2.75,2.75,0,0,1,.6,1.66,6,6,0,0,1,0,1,4.6,4.6,0,0,1-2.25-.38,1.71,1.71,0,0,1-.62-.48,3.14,3.14,0,0,1,1.46-.91.7.7,0,0,0,.42-.33.67.67,0,0,0,.07-.53.7.7,0,0,0-.87-.49,4.49,4.49,0,0,0-1,.42l0,0A1.63,1.63,0,0,1,408.66,250.09Zm-1.84,3.53a3.56,3.56,0,0,0,.74.5,6.32,6.32,0,0,0,2.58.53,4.61,4.61,0,0,1-1,1.77,1.84,1.84,0,0,1-1.51.61c-.83-.07-1-1.08-1-1.51A4.16,4.16,0,0,1,406.82,253.62Z" transform="translate(-252.69 -228.62)" fill="#fff"/><path d="M494.9,259.13a2.39,2.39,0,0,1-2.3-.79c-2.22-2.61-1.69-10.94,1.5-23.49,7.5-1.59,12.51-1.92,13.75-.91a.67.67,0,0,0,.52.15.71.71,0,0,0,.47-.25.69.69,0,0,0,.15-.51.73.73,0,0,0-.25-.48c-1.6-1.3-6.4-1.13-14.25.49.35-1.35.69-2.57,1-3.58l.07-.25a.7.7,0,0,0-.48-.86.64.64,0,0,0-.54.06.67.67,0,0,0-.33.42l-.07.24c-.41,1.41-.8,2.86-1.18,4.3-4.12.9-7.53,1.86-7.92,2a.7.7,0,0,0,.24,1.37l.15,0c1.32-.38,3.93-1.09,7.15-1.81A109.39,109.39,0,0,0,490.4,246a12.55,12.55,0,0,0-2.18.39c0-.09,0-.17,0-.24.19-2.06-.53-3.46-1.92-3.74-2.79-.56-5.39,4.8-7.46,11.31a30.74,30.74,0,0,1,1.74-6.8.7.7,0,0,0-1.23-.68,7.51,7.51,0,0,0-.36.81h0a11.1,11.1,0,0,1-3.42,1.37,5.89,5.89,0,0,0,0-.94c-.18-2.51-1.84-3.54-3.3-3.43a3.07,3.07,0,0,0-1.85.82,2.62,2.62,0,0,0-.84,2.14,4.68,4.68,0,0,0,.09.54,5.69,5.69,0,0,0-.82,3.46c.15,1.6,1,2.66,2.33,2.78h.5a3.38,3.38,0,0,0,2.11-1,6.33,6.33,0,0,0,1.55-2.89,12,12,0,0,0,3.1-1,117.39,117.39,0,0,0-2.57,16.27.69.69,0,0,0,.62.72h.13a.7.7,0,0,0,.63-.56c1.89-9,6-22.15,8.79-21.58.91.18.84,1.75.79,2.23a7.35,7.35,0,0,1-.13.89c-3.12,1.36-4.49,3.75-4.44,5a1.14,1.14,0,0,0,1.15,1.18h0c2,0,3.71-2.55,4.45-5.12a11.91,11.91,0,0,1,2.32-.52c-.62,5.19-.46,9.73,1.33,11.82a3.66,3.66,0,0,0,2.9,1.32l.37,0,.26,0a.71.71,0,0,0,.47-.27.65.65,0,0,0,.14-.52A.68.68,0,0,0,494.9,259.13Zm-8.81-10.3c-.66,1.48-1.58,2.58-2.4,2.8A5.24,5.24,0,0,1,486.09,248.83Zm-13.71-3.38a1.41,1.41,0,0,1,1.2.47,2.69,2.69,0,0,1,.6,1.66,5.92,5.92,0,0,1,0,1,4.58,4.58,0,0,1-2.25-.38,1.71,1.71,0,0,1-.62-.48,3.14,3.14,0,0,1,1.46-.91.7.7,0,0,0,.42-.33.71.71,0,0,0,.07-.53.72.72,0,0,0-.34-.43.7.7,0,0,0-.53-.06,4.49,4.49,0,0,0-1,.42l0,0A1.63,1.63,0,0,1,472.38,245.45ZM470.54,249a3.31,3.31,0,0,0,.74.5,5.64,5.64,0,0,0,2.56.53h0a4.74,4.74,0,0,1-1,1.77,1.87,1.87,0,0,1-1.51.61c-.83-.07-1-1.08-1.05-1.51A4.16,4.16,0,0,1,470.54,249Z" transform="translate(-252.69 -228.62)" fill="#fff"/><path d="M497.15,240.2l-.17,0-.27.71c-.13.28-.31.72-.58,1.38a.72.72,0,0,0,0,.54.74.74,0,0,0,.38.38l.2.06h.12a.71.71,0,0,0,.6-.43s.53-1.26.69-1.68a.7.7,0,0,0-.37-1A.62.62,0,0,0,497.15,240.2Z" transform="translate(-252.69 -228.62)" fill="#fff"/><path d="M527.75,243.49a.71.71,0,0,0-1,.1c-.6.75-2.61,2.91-3.93,3-1.05.08-1.37-1-1.8-2.7-.36-1.47-.79-3.15-2.37-3s-2.71,2.08-3.75,4.29a.71.71,0,0,0-.44-.7.69.69,0,0,0-.4,0,.67.67,0,0,0-.33.1,11,11,0,0,1-3.42,1.37,7.37,7.37,0,0,0,0-.94c-.19-2.51-1.85-3.53-3.31-3.43a3.07,3.07,0,0,0-1.85.82,2.64,2.64,0,0,0-.84,2.14,5.25,5.25,0,0,0,.09.55c0,.05-.05.11-.08.16l-.05,0c-1.1,1.44-4.46,5.2-6.71,5.36a1.1,1.1,0,0,1-1.11-.49c-.72-1.07-.42-3.37.32-4.84a.7.7,0,1,0-1.26-.63c-.91,1.83-1.3,4.64-.23,6.25a2.5,2.5,0,0,0,2.15,1.12h.23c2-.15,4.36-2.18,5.92-3.82,0,.1,0,.2,0,.31a2.76,2.76,0,0,0,2.33,2.78h.5a3.38,3.38,0,0,0,2.11-1,6.44,6.44,0,0,0,1.56-2.89,12.2,12.2,0,0,0,3-.92c-.43,1.55-.86,3.73-.18,4.22v.77l.41-.64s0,0,.06,0a1.09,1.09,0,0,0,.78-.55,16.75,16.75,0,0,0,1-2c.74-1.75,2.48-5.85,3.66-5.94h0c.34,0,.57.67.89,2,.42,1.66,1,3.93,3.26,3.76s4.8-3.36,4.92-3.52A.7.7,0,0,0,528,244,.68.68,0,0,0,527.75,243.49Zm-20.64-.57a1.41,1.41,0,0,1,1.21.47,2.78,2.78,0,0,1,.6,1.67,7,7,0,0,1,0,1,4.58,4.58,0,0,1-2.25-.38,1.71,1.71,0,0,1-.62-.48,3.22,3.22,0,0,1,1.46-.91.7.7,0,0,0,.42-.33.67.67,0,0,0,.07-.53.72.72,0,0,0-.34-.43.7.7,0,0,0-.53-.06,4.49,4.49,0,0,0-1,.42l0,0A1.63,1.63,0,0,1,507.11,242.92Zm-1.84,3.53a3.56,3.56,0,0,0,.74.5,5.56,5.56,0,0,0,2.58.53,4.54,4.54,0,0,1-1,1.77,1.87,1.87,0,0,1-1.51.61c-.83-.07-1-1.08-1.05-1.51A4.16,4.16,0,0,1,505.27,246.45Z" transform="translate(-252.69 -228.62)" fill="#fff"/></svg>