<svg xmlns="http://www.w3.org/2000/svg" width="138.16" height="89.85" viewBox="0 0 138.16 89.85"><path d="M266.64,267a133.79,133.79,0,0,0,2,16.21.7.7,0,0,0,.7.56h.13a.72.72,0,0,0,.55-.83,133.28,133.28,0,0,1-2-16.11c1.1-.13,2.19-.23,3.27-.31a9.39,9.39,0,0,0-.21,3.54,3.56,3.56,0,0,0,.8,1.85,1.82,1.82,0,0,0,1.67.55c1.25-.21,2.37-1.82,3.49-5.05a.59.59,0,0,0,.23,0,.7.7,0,0,0,.62-.77,9,9,0,0,0-.23-1.21c.27-.93.53-1.94.8-3-.31,6.86-.16,13.63,1.32,16.47a.69.69,0,0,0,.62.38h.11l.21-.07a.68.68,0,0,0,.35-.41.72.72,0,0,0-.05-.54c-2.92-5.62,0-30.05.16-31.32v0a.71.71,0,0,0-1.4-.17v.11a153,153,0,0,1-3,16.61,3,3,0,0,0-.56-.56,2.16,2.16,0,0,0-1.69-.42,4,4,0,0,0-2.75,2.66h-.09c-1.23.08-2.48.2-3.75.35-.16-2.42-.3-4.75-.42-6.95-.47-8.36-.72-11.36-1.75-12.18a1,1,0,0,0-.84-.23c-3.81.63-7.91,11.94-10.5,22.42a29.72,29.72,0,0,0-6.87,3.35.71.71,0,0,0-.17,1,.72.72,0,0,0,.69.29l.2-.05.09-.07a26.54,26.54,0,0,1,5.66-2.86c-.83,3.52-1.56,7.18-2.19,10.91a.69.69,0,0,0,.12.52.7.7,0,0,0,1,.17.7.7,0,0,0,.28-.46c.67-4,1.48-7.91,2.4-11.71A61.59,61.59,0,0,1,266.64,267Zm-10.64.94c3.36-13.22,6.93-19.79,9-20.45.57,1,.87,6.29,1.14,11.06.12,2.21.26,4.58.43,7.05A64.73,64.73,0,0,0,256,267.91Zm16.92-2c.45-1.25,1.14-2.06,1.83-2.18h.15a.72.72,0,0,1,.47.17,3.05,3.05,0,0,1,.84,1.47c-1.45,4.89-2.49,5.57-2.88,5.63A.44.44,0,0,1,273,271a1.86,1.86,0,0,1-.51-1.18A8,8,0,0,1,272.92,266Zm7.87-19.17Zm0,0a.16.16,0,0,1,0,.09h-.08v-.08h.1Zm-.59-.09.1,0h-.1Z" transform="translate(-247.26 -243.1)" fill="#fff"/><path d="M282.39,267.73c.29,1.58,1.27,2.56,2.56,2.56a4.38,4.38,0,0,0,.5,0,3.4,3.4,0,0,0,2-1.2,6.37,6.37,0,0,0,1.29-3,12.25,12.25,0,0,0,3-1.23,118.12,118.12,0,0,0-1.11,16.43.7.7,0,0,0,.68.66h.14a.69.69,0,0,0,.58-.61c1.07-9.17,3.95-22.58,6.82-22.28.93.1,1,1.67,1,2.15,0,.29,0,.6-.05.91-3,1.63-4.14,4.14-4,5.36a1.15,1.15,0,0,0,1.27,1.07c2-.19,3.47-2.87,4-5.49a11.28,11.28,0,0,1,2.26-.73c-.15,5.23.41,9.73,2.38,11.65a3.58,3.58,0,0,0,2.61,1.07,5,5,0,0,0,.76-.06l.27-.05a.7.7,0,0,0,.44-.31.65.65,0,0,0,.09-.52.69.69,0,0,0-.83-.54,2.4,2.4,0,0,1-2.36-.59c-2.45-2.4-2.66-10.75-.61-23.53,7.33-2.25,12.29-3,13.62-2.13a.7.7,0,0,0,1-.19.71.71,0,0,0-.19-1c-1.71-1.16-6.47-.56-14.15,1.75.23-1.37.46-2.62.66-3.65l.05-.25a.71.71,0,0,0-.11-.53.67.67,0,0,0-.45-.29.68.68,0,0,0-.52.1.73.73,0,0,0-.3.45l0,.25c-.28,1.45-.55,2.92-.79,4.39-4.18,1.32-7.57,2.61-7.71,2.67a.7.7,0,0,0,.35,1.34l.15,0c1.28-.49,3.81-1.43,7-2.44a108.32,108.32,0,0,0-1.2,11,12.91,12.91,0,0,0-2.14.58,1.93,1.93,0,0,0,0-.24c0-2.07-.84-3.4-2.25-3.55-2.83-.3-4.94,5.27-6.42,11.93a31.63,31.63,0,0,1,1.12-6.93.68.68,0,0,0,0-.54.71.71,0,0,0-.36-.38.65.65,0,0,0-.53,0,.73.73,0,0,0-.4.37,5.87,5.87,0,0,0-.28.84h0a11.11,11.11,0,0,1-3.29,1.67,7,7,0,0,0-.09-.93c-.41-2.49-2.15-3.36-3.6-3.13a3,3,0,0,0-1.77,1,2.63,2.63,0,0,0-.64,2.2,3.29,3.29,0,0,0,.14.54A5.76,5.76,0,0,0,282.39,267.73Zm5-3.89a6.85,6.85,0,0,1,.07,1,4.58,4.58,0,0,1-2.28-.18,1.83,1.83,0,0,1-.65-.42,3,3,0,0,1,1.37-1,.74.74,0,0,0,.39-.37.72.72,0,0,0,0-.54.74.74,0,0,0-.37-.39.72.72,0,0,0-.54,0,4.68,4.68,0,0,0-1,.5l0,0a1.64,1.64,0,0,1,.95-.52C286.59,261.68,287.21,262.76,287.39,263.84Zm-2.45,5.05c-.82,0-1.09-1-1.17-1.42a4.28,4.28,0,0,1,.11-1.91,3.26,3.26,0,0,0,.78.43,5.7,5.7,0,0,0,2.62.3,4.74,4.74,0,0,1-.88,1.86,1.9,1.9,0,0,1-1.45.74ZM299.35,264c-.52,1.54-1.34,2.72-2.14,3A5.3,5.3,0,0,1,299.35,264Z" transform="translate(-247.26 -243.1)" fill="#fff"/><path d="M309.59,254.45l-.15,0-.22.72c-.1.28-.22.69-.42,1.32l0,.12a.7.7,0,0,0,.46.87l.2,0,.12,0a.7.7,0,0,0,.56-.48s.41-1.3.54-1.73a.71.71,0,0,0-.46-.93A.62.62,0,0,0,309.59,254.45Z" transform="translate(-247.26 -243.1)" fill="#fff"/><path d="M327.42,262.92a15.72,15.72,0,0,0,.77-2.12c.58-1.81,1.95-6.05,3.12-6.24.34-.07.63.59,1.08,1.89.56,1.61,1.32,3.81,3.59,3.45s4.33-3.57,4.58-3.94a.7.7,0,1,0-1.17-.78c-.66,1-2.42,3.13-3.64,3.33-1,.18-1.45-.84-2-2.53-.5-1.43-1.06-3-2.64-2.8s-2.51,2.31-3.35,4.6a.73.73,0,0,0-.5-.66.78.78,0,0,0-.4,0,.68.68,0,0,0-.32.13,10.65,10.65,0,0,1-3.29,1.67,5.64,5.64,0,0,0-.08-.93,4,4,0,0,0-1.36-2.56,2.86,2.86,0,0,0-2.24-.57,3,3,0,0,0-1.77,1,2.6,2.6,0,0,0-.64,2.2,3.53,3.53,0,0,0,.13.54s0,.11-.07.17l0,.05c-1,1.52-4,5.57-6.2,5.93a1.13,1.13,0,0,1-1.16-.39c-.81-1-.71-3.32-.11-4.85a.71.71,0,0,0-.4-.91.68.68,0,0,0-.54,0,.74.74,0,0,0-.37.39c-.74,1.9-.88,4.74.33,6.24a2.49,2.49,0,0,0,2,.94,2.89,2.89,0,0,0,.5,0c2-.33,4.14-2.55,5.56-4.33,0,.1,0,.2,0,.3a2.74,2.74,0,0,0,2.55,2.56h0a4.21,4.21,0,0,0,.5,0,3.35,3.35,0,0,0,2-1.2,6.18,6.18,0,0,0,1.29-3,12.17,12.17,0,0,0,2.89-1.17c-.28,1.58-.52,3.78.2,4.22l.06.76.36-.67h.06A1.09,1.09,0,0,0,327.42,262.92Zm-8.11.35c-.82,0-1.1-1-1.17-1.42a4,4,0,0,1,.11-1.91,3.39,3.39,0,0,0,.77.43,5.71,5.71,0,0,0,2.62.3,4.6,4.6,0,0,1-.88,1.86,1.89,1.89,0,0,1-1.45.74Zm-.42-4.62a3.14,3.14,0,0,1,1.37-1,.68.68,0,0,0,.4-.36.72.72,0,0,0,0-.54.68.68,0,0,0-.36-.4.72.72,0,0,0-.54,0,4.27,4.27,0,0,0-1,.51l0,0a1.66,1.66,0,0,1,.94-.53,1.42,1.42,0,0,1,1.25.36,2.76,2.76,0,0,1,.74,1.6,5.73,5.73,0,0,1,.08,1,4.57,4.57,0,0,1-2.28-.18A2,2,0,0,1,318.89,258.65Z" transform="translate(-247.26 -243.1)" fill="#fff"/><path d="M285.91,290.54a.7.7,0,0,0,.46.87l.21,0,.11,0a.7.7,0,0,0,.56-.47s.41-1.31.54-1.74a.72.72,0,0,0-.46-.93.64.64,0,0,0-.61.11h-.15l-.21.71c-.1.29-.24.73-.44,1.41l.47.17h0l-.48-.14Zm1,.28-.1,0v0l.09,0Z" transform="translate(-247.26 -243.1)" fill="#fff"/><path d="M304.3,290.65a.7.7,0,0,0-.95-.25c-2.1,1.23-4.77,2.84-6.15,3.89-.19-.18-.39-.35-.61-.53-.89-.75-1.65-1.4-1.8-2.3a1.42,1.42,0,0,1,.48-1.25,2.4,2.4,0,0,1,1.16-.63c.19,0,.26,0,.31.07a2.26,2.26,0,0,1,.24,1.7.69.69,0,0,0,.13.52.69.69,0,0,0,1.25-.31,3.36,3.36,0,0,0-.64-2.91,1.69,1.69,0,0,0-1.52-.45,3.7,3.7,0,0,0-2,1.08,2.77,2.77,0,0,0-.81,2.4,3.65,3.65,0,0,0,.63,1.48c-1.13,1.67-3.89,5.21-5.94,5.54a1.11,1.11,0,0,1-1.16-.39c-.81-1-.71-3.32-.11-4.85a.72.72,0,0,0,0-.54.71.71,0,0,0-.39-.37.68.68,0,0,0-.54,0,.71.71,0,0,0-.37.39c-.74,1.9-.88,4.74.33,6.24a2.49,2.49,0,0,0,2,.94,2.81,2.81,0,0,0,.5,0c2.67-.44,5.54-4.21,6.69-5.86.22.21.46.41.68.6l.44.37c-1.38,1.22-4.17,4-4.05,5.81a1.49,1.49,0,0,0,1,1.32,1.46,1.46,0,0,0,.6.11l.39,0a6.81,6.81,0,0,0,2.79-1.4c1.55-1.22,2.35-2.69,2.15-3.92a3.94,3.94,0,0,0-.79-1.78c1.4-1.05,4.22-2.73,5.87-3.69A.7.7,0,0,0,304.3,290.65Zm-7.2,5.56a2.53,2.53,0,0,1,.49,1.11c.12.71-.51,1.7-1.64,2.6a4.14,4.14,0,0,1-2.38,1.12c-.09,0-.09-.06-.1-.12C293.43,300.22,294.68,298.36,297.1,296.21Z" transform="translate(-247.26 -243.1)" fill="#fff"/><path d="M323.47,289.19a.72.72,0,0,0-.54,0,.69.69,0,0,0-.38.37c-1.16,2.75-3.54,6.82-5,6.82-.05,0-.11,0-.19-.11-.9-1.12-.19-6.11.3-8.36a.71.71,0,0,0-.33-.75l.22-1.34-.51,1.25a.69.69,0,0,0-.73.48q-.13.38-.27.78A2.7,2.7,0,0,0,313.6,287c-1.93.17-3.05,3.83-3.3,6.11-.14,1.29-.16,3.53,1.23,4s2.58-.86,4-3.84c-.08,1.94.16,3.27.71,3.95a1.6,1.6,0,0,0,1.28.63l.35,0c2.75-.45,5.43-6.45,5.94-7.65h0A.71.71,0,0,0,323.47,289.19ZM312,295.71c-.13-.08-.45-.79-.26-2.49.27-2.49,1.33-4.75,2-4.86h.07c.8,0,1.39,1.21,1.6,1.73C313.62,294.53,312.31,295.82,312,295.71Z" transform="translate(-247.26 -243.1)" fill="#fff"/><path d="M286.1,312.37l-.17,0-.22.74c-.1.3-.24.74-.46,1.43h0a.7.7,0,0,0,.46.87l.2,0H286a.71.71,0,0,0,.56-.48s.42-1.3.55-1.73a.7.7,0,0,0-.45-.93A.64.64,0,0,0,286.1,312.37Z" transform="translate(-247.26 -243.1)" fill="#fff"/><path d="M320.62,312.36a16.78,16.78,0,0,0-4.53,3.16c0-1.71-.1-3.83-.65-4.79a1.16,1.16,0,0,0-1.13-.66c-.7.08-1.27.72-2,1.95a3.38,3.38,0,0,0-.5-.75,1.72,1.72,0,0,0-1.39-.67c-1.89.11-3.2,2.08-3.87,4.12,0,0,0,0,0,0-.85,1.24-2.52,3.14-3.67,3.32s-1.44-.85-2-2.54c-.49-1.44-1-3.07-2.61-2.82s-2.5,2.24-3.35,4.5a.61.61,0,0,0,0-.19.72.72,0,0,0-.3-.44.71.71,0,0,0-.53-.09.68.68,0,0,0-.44.3c-1,1.53-4,5.55-6.24,5.9a1.12,1.12,0,0,1-1.15-.4c-.81-1-.69-3.32-.09-4.85a.72.72,0,0,0,0-.54.71.71,0,0,0-1.3,0,6.87,6.87,0,0,0-.3,1c-3.36.3-4-2.3-4-2.42a.72.72,0,0,0-.69-.54h-.08l-.07-.14,0,.15a.72.72,0,0,0-.51.59c-.68,4.86-2.42,8.58-3.26,8.71,0,0-.05,0-.11-.06-.76-.81-.93-4.43-.34-7.05a.69.69,0,0,0-.52-.83.71.71,0,0,0-.85.52,18,18,0,0,0-.36,3.1,11,11,0,0,1-3.25,1.62,9.19,9.19,0,0,0-.08-.93c-.39-2.49-2.13-3.37-3.58-3.15a3.12,3.12,0,0,0-1.78,1,2.63,2.63,0,0,0-.65,2.21,3.16,3.16,0,0,0,.13.53c-.08.16-.13.32-.2.48-2.58,4.72-5.35,7.84-6.8,7.62-.27,0-.48-.37-.61-.63-2-4,.36-20.19,2.5-24.08a.69.69,0,0,0-.28-.95.7.7,0,0,0-.95.27c-2.36,4.29-4.74,20.9-2.53,25.38a2.27,2.27,0,0,0,1.66,1.4l.36,0,.39,0c2.08-.33,4.36-3.24,6-5.78a2.67,2.67,0,0,0,2.5,2.38h0a3.89,3.89,0,0,0,.49,0,3.34,3.34,0,0,0,2-1.19,6.35,6.35,0,0,0,1.31-3,12,12,0,0,0,3.37-1.43,6,6,0,0,0,1,3.55,1.52,1.52,0,0,0,1.12.51l.24,0c2.2-.35,3.56-5.55,4.08-8a5,5,0,0,0,4.12,1.64,5.55,5.55,0,0,0,.84,3.85,2.48,2.48,0,0,0,2,.95,4.05,4.05,0,0,0,.48,0c1.9-.3,3.91-2.28,5.33-4-.15,1.28-.15,2.55.38,2.88l.06.76.36-.67h.07a1.06,1.06,0,0,0,.72-.61,15,15,0,0,0,.78-2.11c.6-1.81,2-6,3.16-6.23.35,0,.63.6,1.08,1.89.55,1.62,1.3,3.83,3.56,3.48a6.08,6.08,0,0,0,3-1.91c0,1.65.49,2.72,1.48,3,1.59.4,2.89-1.76,4.22-4.35a.63.63,0,0,0,.23.08.69.69,0,0,0,.81-.57,6.56,6.56,0,0,0,.07-1.71,13.16,13.16,0,0,1,1.42-2.37,15.71,15.71,0,0,1,.34,5.44c-4.09,4.68-6.49,10.9-6.18,13.83.17,1.52,1,1.93,1.49,2a2.49,2.49,0,0,0,.46.05l.33,0a3,3,0,0,0,1.92-1.36c1.92-2.63,3.08-9.05,3.36-14a16.51,16.51,0,0,1,5.18-3.94.7.7,0,0,0,.35-.93A.72.72,0,0,0,320.62,312.36Zm-6.16,7.11c-.43,4.3-1.46,9.24-2.93,11.27-.45.61-.89.88-1.28.79s-.35-.47-.39-.81C309.61,328.41,311.38,323.58,314.46,319.47Zm-7-2.39c.21-2.21,1.45-4.84,2.88-5.06l.13,0s.13,0,.27.21a3.15,3.15,0,0,1,.65,1.52c-.12.22-.24.46-.36.71-.74,1.47-2.48,4.89-3.17,4.72C307.65,319.1,307.37,318.42,307.5,317.08ZM269,320.84a5.64,5.64,0,0,1,.07,1,4.69,4.69,0,0,1-2.28-.19,1.72,1.72,0,0,1-.65-.43,3.17,3.17,0,0,1,1.38-1,.62.62,0,0,0,.39-.37.65.65,0,0,0,0-.53.69.69,0,0,0-.36-.39.68.68,0,0,0-.54,0,4.34,4.34,0,0,0-1,.51l0,0a1.67,1.67,0,0,1,.95-.52C268.2,318.67,268.8,319.76,269,320.84Zm-3.51,1.69a3.22,3.22,0,0,0,.77.44,5.69,5.69,0,0,0,2.62.31,4.63,4.63,0,0,1-.89,1.85,1.86,1.86,0,0,1-1.45.73h0c-.82,0-1.09-1-1.17-1.42A4.16,4.16,0,0,1,265.46,322.53Z" transform="translate(-247.26 -243.1)" fill="#fff"/><path d="M353.69,320.68a2.42,2.42,0,0,1-2.36-.6c-2.43-2.42-2.6-10.77-.47-23.54,7.35-2.21,12.31-3,13.63-2.05a.66.66,0,0,0,.53.11.71.71,0,0,0,.45-.29.77.77,0,0,0,.11-.53.72.72,0,0,0-.3-.45c-1.7-1.16-6.46-.6-14.16,1.68.25-1.38.48-2.62.69-3.66l.05-.24a.7.7,0,0,0-.1-.53.73.73,0,0,0-.45-.3.71.71,0,0,0-.53.1.77.77,0,0,0-.3.45l0,.25c-.29,1.45-.57,2.92-.82,4.38-4.17,1.29-7.58,2.57-7.72,2.63a.7.7,0,0,0-.42.9.73.73,0,0,0,.76.45l.15,0c1.29-.49,3.84-1.41,7-2.4A108.56,108.56,0,0,0,348.1,308a14,14,0,0,0-2.14.57c0-.08,0-.16,0-.24,0-2.07-.82-3.4-2.23-3.56-2.85-.32-5,5.24-6.49,11.89a31.44,31.44,0,0,1,1.16-6.92.7.7,0,0,0-.34-.92.71.71,0,0,0-.94.34,7.05,7.05,0,0,0-.28.85h0a10.6,10.6,0,0,1-3.29,1.65c0-.31,0-.63-.08-.93-.4-2.49-2.14-3.37-3.58-3.15a3.09,3.09,0,0,0-1.78,1,2.63,2.63,0,0,0-.65,2.2,3,3,0,0,0,.13.54,5.61,5.61,0,0,0-.53,3.51,2.77,2.77,0,0,0,2.55,2.58h0a3.88,3.88,0,0,0,.48,0h0a3.34,3.34,0,0,0,2-1.19,6.35,6.35,0,0,0,1.31-3,11.91,11.91,0,0,0,3-1.22,117.32,117.32,0,0,0-1.2,16.43.69.69,0,0,0,.69.67h.12a.69.69,0,0,0,.58-.61c1.12-9.16,4.12-22.53,7-22.24.92.11,1,1.68,1,2.16a7,7,0,0,1-.06.9c-3,1.61-4.16,4.12-4,5.34a1.15,1.15,0,0,0,1.27,1.08c2-.18,3.48-2.85,4-5.47a11.26,11.26,0,0,1,2.26-.71c-.17,5.22.36,9.73,2.31,11.66a3.63,3.63,0,0,0,2.64,1.09,4.68,4.68,0,0,0,.73-.06l.27-.05a.7.7,0,0,0,.44-.31.65.65,0,0,0,.1-.52A.69.69,0,0,0,353.69,320.68ZM344,311.14c-.52,1.53-1.35,2.71-2.15,3A5.29,5.29,0,0,1,344,311.14Zm-12-.25a7,7,0,0,1,.07,1,4.69,4.69,0,0,1-2.28-.19,1.72,1.72,0,0,1-.65-.43,3.17,3.17,0,0,1,1.38-1,.7.7,0,0,0,.41-.9.68.68,0,0,0-.37-.39.65.65,0,0,0-.53,0,4.76,4.76,0,0,0-1,.5l0,0a1.67,1.67,0,0,1,1-.52C331.29,308.73,331.91,309.81,332.08,310.89Zm-3.51,1.7a3,3,0,0,0,.77.44,5.69,5.69,0,0,0,2.62.31,4.63,4.63,0,0,1-.89,1.85,1.88,1.88,0,0,1-1.46.73h0c-.82,0-1.09-1-1.17-1.42A4.16,4.16,0,0,1,328.57,312.59Z" transform="translate(-247.26 -243.1)" fill="#fff"/><path d="M354.34,301.63l-.17,0-.21.72-.36,1.12-.1.32a.72.72,0,0,0,.47.88l.21,0h.11a.71.71,0,0,0,.55-.48s.42-1.3.55-1.73a.71.71,0,0,0-.45-.93A.64.64,0,0,0,354.34,301.63Z" transform="translate(-247.26 -243.1)" fill="#fff"/><path d="M385.11,302.34a.7.7,0,0,0-1,.2c-.54.79-2.36,3.1-3.67,3.31-1,.16-1.44-.85-2-2.54-.49-1.44-1-3.07-2.62-2.83s-2.53,2.31-3.38,4.6a.73.73,0,0,0-.5-.67.68.68,0,0,0-.4,0,.66.66,0,0,0-.32.12A10.85,10.85,0,0,1,368,306.2a9.4,9.4,0,0,0-.08-.94,4,4,0,0,0-1.35-2.56,2.86,2.86,0,0,0-2.24-.59,3,3,0,0,0-1.77,1,2.61,2.61,0,0,0-.65,2.2,3.16,3.16,0,0,0,.13.53,1.34,1.34,0,0,0-.07.18l-.05,0c-1.23,1.9-4.12,5.57-6.24,5.9a1.1,1.1,0,0,1-1.15-.4c-.8-1-.69-3.32-.08-4.85a.7.7,0,0,0-1.31-.52c-.75,1.9-.91,4.74.3,6.25a2.46,2.46,0,0,0,2,.95,3.88,3.88,0,0,0,.48,0c2-.32,4.16-2.53,5.58-4.3,0,.1,0,.2,0,.3a2.76,2.76,0,0,0,2.55,2.58h0a2.7,2.7,0,0,0,.49,0h0a3.37,3.37,0,0,0,2-1.18,6.43,6.43,0,0,0,1.31-3,11.86,11.86,0,0,0,2.89-1.15c-.29,1.57-.54,3.77.18,4.21l0,.77.37-.67h.06a1.11,1.11,0,0,0,.73-.61,16.07,16.07,0,0,0,.78-2.12c.59-1.8,2-6,3.16-6.22.32-.06.63.59,1.07,1.89.55,1.62,1.3,3.83,3.56,3.47s4.36-3.55,4.61-3.91h0A.7.7,0,0,0,385.11,302.34Zm-21.49,3.54a3.14,3.14,0,0,1,1.38-1,.74.74,0,0,0,.39-.37.65.65,0,0,0,0-.53.66.66,0,0,0-.37-.4.65.65,0,0,0-.53,0,4.44,4.44,0,0,0-1,.5v0a1.67,1.67,0,0,1,.95-.52,1.4,1.4,0,0,1,1.24.37,2.76,2.76,0,0,1,.74,1.61,6.81,6.81,0,0,1,.07,1,4.59,4.59,0,0,1-2.28-.19A1.72,1.72,0,0,1,363.62,305.88Zm-.65,1.3a3.34,3.34,0,0,0,.77.43,5.68,5.68,0,0,0,2.62.32,4.59,4.59,0,0,1-.89,1.84,1.86,1.86,0,0,1-1.46.74h0c-.83,0-1.09-1-1.17-1.42A4.14,4.14,0,0,1,363,307.18Z" transform="translate(-247.26 -243.1)" fill="#fff"/></svg>