<svg xmlns="http://www.w3.org/2000/svg" width="91.06" height="68.18" viewBox="0 0 91.06 68.18"><path d="M37.36,28c4.46,10.2,4,14.79,4,14.79h0c-.13,0-.26-.13-.51-.25a40.41,40.41,0,0,0-8.42-3.32,40.42,40.42,0,0,0-4.46-1C30.09,31.15,37.36,28,37.36,28Z" transform="translate(0 0)" fill="#37474f"/><path d="M13.9,44.41a44,44,0,0,0-2.3,4,39.67,39.67,0,0,0-3.19,8.42,1.46,1.46,0,0,0-.12.51h0S4.46,54.61,0,44.41C0,44.41,7.27,41.22,13.9,44.41Z" transform="translate(0 0)" fill="#37474f"/><path d="M33.15,65.7A29,29,0,0,0,49,48.36C42.84,38,30.73,33.19,20.65,37.78S5.86,54.23,9.31,65.57A29.29,29.29,0,0,0,33.15,65.7Z" transform="translate(0 0)" fill="#455a64"/><ellipse cx="30.99" cy="61" rx="8.92" ry="5.1" transform="translate(-22.04 17.77) rotate(-23.88)" fill="#cfd8dc"/><path d="M32,54.48c.26.64-.64,4.34-1.78,4.72s-4.47-1.28-4.72-1.91.89-1.79,2.68-2.55S31.75,53.84,32,54.48Z" transform="translate(0 0)" fill="#263238"/><path d="M33,43.39s2.55,4.46-.25,5.74c-1.28.51-2.3,1-2.3,1s-2.55-4.47.26-5.74C32,43.9,33,43.39,33,43.39Z" transform="translate(0 0)" fill="#ffeb3b"/><path d="M16.7,50.66s1.53,4.84,4.3,3.57c1.27-.51,2.29-1,2.29-1S21.8,48.36,19,49.64C17.72,50.15,16.7,50.66,16.7,50.66Z" transform="translate(0 0)" fill="#ffeb3b"/><path d="M80.81,9.47a4.29,4.29,0,0,1,4-.81c4,1.22,7,10.94,6.08,14.08S85.77,28.82,80,24.06" transform="translate(0 0)" fill="#de8400"/><path d="M52.14,15.55c-7.4.71-9.12-4.05-8.21-7.19s8.81-9.42,13-8.21a4.14,4.14,0,0,1,2.83,2.94" transform="translate(0 0)" fill="#de8400"/><path d="M80.6,25.38a14.36,14.36,0,0,0,1.73-3.75c2.53-8.11-2.44-16.92-11-19.55S53.76,3.9,51.22,12a14.3,14.3,0,0,0-.6,4.06,13.1,13.1,0,0,0-6.39,7.49c-2.12,6.89,2,14.39,9.32,16.62,1.93.61,8.92,2.73,10.84,3.34,7.3,2.23,15-1.52,17.13-8.41A12.44,12.44,0,0,0,80.6,25.38Z" transform="translate(0 0)" fill="#ff9800"/><path d="M63.38,27.81c-6.48-2-12.86,0-14.28,4.35-.71,2.23,0,4.66,1.72,6.79a15.9,15.9,0,0,0,2.73,1.22c1.93.61,8.92,2.73,10.84,3.34a17.25,17.25,0,0,0,2.94.61,7.47,7.47,0,0,0,5.27-4.66C74,35.1,69.87,29.83,63.38,27.81Z" transform="translate(0 0)" fill="#ffde94"/><rect x="54.74" y="33.6" width="12.26" height="4.86" transform="translate(8.46 83.54) rotate(-72.81)" fill="#6d350f"/><path d="M67.13,29.73c-.2.71-3,3.45-5.27,2.74s-3-4.56-2.73-5.27,2.23-.81,4.45-.1S67.43,29,67.13,29.73Z" transform="translate(0 0)" fill="#6d350f"/><circle cx="72.6" cy="22.95" r="2.43" fill="#3e2723"/><circle cx="58.62" cy="18.69" r="2.43" fill="#3e2723"/></svg>