<svg xmlns="http://www.w3.org/2000/svg" width="99.49" height="82.86" viewBox="0 0 99.49 82.86"><path d="M93.43,58.85c-1.53,3.25-4,3.85-8.19,1.89-3.43-1.62-5.73-4.26-9.35-6s-6.64-.92-10.62-2.8c-3.8-1.79-4-5.19-3-7.18,1.88-4,5-3.16,9.91-5s8.4-4.67,11.83-3c4,1.87,3.19,6.81,4.47,11.62C89.44,52.77,95.22,55.05,93.43,58.85Zm1-24.53c4.35,2,9-2.18,11.29-7.06s.43-8.87-1.56-9.81c-4.34-2-8.83,1.36-10.28,4.44C92.48,24.78,90.41,32.44,94.39,34.32ZM79,27.06c4,1.88,7.36-2.94,9.67-7.83,1.7-3.61.81-7.79-1.55-8.9-4.16-2-8,1.52-9.72,5.14C76,18.36,75.58,25.44,79,27.06ZM72.37,29.9c1.54-3.26.36-7.8-2.17-9s-7.67,1.25-9.72,5.59c-1.36,2.89-1.24,8.26,2.2,9.88C65.94,37.92,70.24,34.42,72.37,29.9Zm35.45,8.76c-2.27-1.74-6-.84-10.23,2.47-5,3.6-5.18,8.17-2.45,10.34s7.27.55,11-3.2C109.23,45.52,110.1,40.4,107.82,38.66Z" transform="translate(-9.61 -9.76)" fill="#fff"/><path d="M33.93,79.15c0-5-1.94-9.56,1.44-12.37,2.93-2.42,7-.62,12.22,0s8-1,10.85,2.43c1.41,1.7,2.09,5-1.15,7.71s-6.51,2.8-9.59,5.35-4.65,5.68-7.57,8.1c-3.55,2.93-6.11,3-8.41.21C29.05,87.36,34.08,83.7,33.93,79.15ZM22.14,54.89c-2.17-2.62-7.37-4.81-11.06-1.75C9.39,54.55,8.56,58.88,12,63s9,7.1,12.7,4C28.08,64.26,24.18,57.35,22.14,54.89ZM36.46,44.58C33.9,41.5,29.3,39.09,25.76,42c-2,1.66-1.83,5.93.72,9,3.45,4.16,7.92,8,11.31,5.18C40.71,53.79,38.5,47.05,36.46,44.58Zm19.47,16.6c2.93-2.43,1.71-7.66-.33-10.12-3.07-3.7-8.65-4.79-10.8-3s-2.17,6.48.13,9.25C48.12,61.16,53.15,63.48,55.93,61.18ZM16.76,83.5c4.58,2.71,9.37,3.16,11.48.37s.8-7.17-4.95-9.41c-4.91-2.16-8.75-2.1-10.52.15S13.11,81.6,16.76,83.5Z" transform="translate(-9.61 -9.76)" fill="#fff"/></svg>