<svg xmlns="http://www.w3.org/2000/svg" xmlns:xlink="http://www.w3.org/1999/xlink" width="84.47" height="84.32" viewBox="0 0 84.47 84.32"><defs><radialGradient id="a" cx="-242.48" cy="374.08" r="12.71" gradientTransform="translate(525.77 -705.54) scale(2)" gradientUnits="userSpaceOnUse"><stop offset="0" stop-color="#afeeff"/><stop offset="0.19" stop-color="#bbf1ff"/><stop offset="0.7" stop-color="#d7f8ff"/><stop offset="1" stop-color="#e1faff"/></radialGradient><linearGradient id="b" x1="-206.51" y1="-6.66" x2="-206.51" y2="-50.33" gradientTransform="matrix(0.81, -0.59, -0.59, -0.81, 201.73, -114.31)" gradientUnits="userSpaceOnUse"><stop offset="0" stop-color="#ff8b67"/><stop offset="0.85" stop-color="#ffa76a"/><stop offset="1" stop-color="#ffad6b"/></linearGradient></defs><path d="M64,44.25H57A1.62,1.62,0,0,1,57,41h6a2.88,2.88,0,0,0,2.85-2.22,2.84,2.84,0,0,0-2.19-3.37,2.42,2.42,0,0,0-.66-.06h-.4a1.61,1.61,0,0,1,0-3.22h1.21a2.82,2.82,0,0,0,2.82-2.84,2.86,2.86,0,0,0-.06-.58A2.91,2.91,0,0,0,63.7,26.5H58.55a1.61,1.61,0,0,1,0-3.22h1.11a2.89,2.89,0,0,0,2.86-2.23,2.83,2.83,0,0,0-2.18-3.36,2.78,2.78,0,0,0-.58-.06H21a2.83,2.83,0,0,0,0,5.65h1.21a1.61,1.61,0,0,1,0,3.22h-4.3a2.88,2.88,0,0,0-2.85,2.23,2.83,2.83,0,0,0,2.18,3.36,2.78,2.78,0,0,0,.58.06H19a1.61,1.61,0,0,1,0,3.22H17.82A2.83,2.83,0,0,0,17.48,41h8a1.62,1.62,0,0,1,0,3.23H18.72a2.89,2.89,0,0,0-2.86,2.22A2.83,2.83,0,0,0,18,49.83a2.78,2.78,0,0,0,.58.06h2a1.62,1.62,0,0,1,0,3.23h-2A2.82,2.82,0,0,0,15.8,56a2.86,2.86,0,0,0,.06.58,2.89,2.89,0,0,0,2.86,2.22h6A1.62,1.62,0,1,1,25,62h-3a2.88,2.88,0,0,0-2.85,2.22,2.83,2.83,0,0,0,2.18,3.36,2.78,2.78,0,0,0,.58.06H58.14a2.82,2.82,0,0,0,0-5.64H56.93a1.62,1.62,0,0,1,0-3.23h4.35a2.88,2.88,0,0,0,2.85-2.22A2.83,2.83,0,0,0,62,53.18a2.78,2.78,0,0,0-.58-.06h-2a1.62,1.62,0,0,1,0-3.23H64a2.65,2.65,0,0,0,2.64-2.65v-.35A2.65,2.65,0,0,0,64,44.25Z" transform="translate(0 0.01)" fill="url(#a)"/><path d="M41.49,18.12C45,23,45.76,28.52,43.11,30.46s-7.7-.45-11.25-5.32a6,6,0,0,1,9.63-7ZM46,7.46a6,6,0,0,0-1.3,8.32c3.87,5.32,9.17,8.06,11.83,6.12s1.67-7.82-2.21-13.13A6,6,0,0,0,46,7.46Zm18.83,6.1c-2.72.88-3.44,5.9-2.75,9.28a11.18,11.18,0,0,0,1.53,3.73,6,6,0,0,0,8.33,1.3c2.65-1.93,2.71-6.38.13-9.92l-.58-.81C69.43,14.31,66.68,13,64.83,13.56ZM33.69,36.09c-2.65,1.93-3,6-.72,9.12,2.91,4,7.43,5.65,10.08,3.71s2.2-7.1-1-11.53A6,6,0,0,0,33.69,36.09Zm33.48-3-.65.25a8.62,8.62,0,0,1-7.26-.74h0c-2.47-1.42-5.06-1.66-6.85-.36a6.44,6.44,0,0,0-2.36,6.63,11.37,11.37,0,0,1,0,4.35,11,11,0,0,1-1.39,3.57,5.49,5.49,0,0,0-.19,6.15,5.23,5.23,0,0,0,7.22,1.49h0A15.69,15.69,0,0,0,59.89,50a12.85,12.85,0,0,1,3-3.28,12.7,12.7,0,0,1,4.68-2.18,14.14,14.14,0,0,0,4.93-2.36h0c2.66-1.94,3.51-5.31,1.89-7.52-1.39-2-4.39-2.53-7.22-1.54Z" transform="translate(0 0.01)" fill="url(#b)"/><path d="M73.73,41.92h0l-1.17,1.13a.35.35,0,0,0-.1.21.29.29,0,0,0,.26.32h0a.32.32,0,0,0,.2-.08l1.17-1.13a.33.33,0,0,0,0-.42A.27.27,0,0,0,73.73,41.92Z" transform="translate(0 0.01)" fill="#bf3d96" stroke="#bf3d96" stroke-linecap="round" stroke-miterlimit="10" stroke-width="1.25" opacity="0.5" style="isolation:isolate"/><path d="M49.12,65.66h0L47.94,66.8a.29.29,0,0,0-.09.21.28.28,0,0,0,.25.32.3.3,0,0,0,.2-.08l1.18-1.13a.32.32,0,0,0,0-.43A.25.25,0,0,0,49.12,65.66Z" transform="translate(0 0.01)" fill="#bf3d96" stroke="#bf3d96" stroke-linecap="round" stroke-miterlimit="10" stroke-width="1.25" opacity="0.5" style="isolation:isolate"/><path d="M83.77,45.44c0-.09-.1-.39-.23-.92s-.3-1.25-.48-2c-.35-1.41-.69-2.82-.69-2.82h0a6.21,6.21,0,0,0-1.13-2.34l-1.56-2a3.1,3.1,0,0,0-4.35-.55,2.35,2.35,0,0,0-.33.3l-5.27,5.09a3.85,3.85,0,0,0-.32,5.08c.6.75,2.82,3.48,4.6,5.67a35.62,35.62,0,0,1-5.92,8.52h0a31.89,31.89,0,0,1-8.47,5.36l-4.57-5.69a3.12,3.12,0,0,0-4.38-.54l-.28.25h0L45.15,64a3.79,3.79,0,0,0-.35,5.07L46.41,71a5.33,5.33,0,0,0,2,1.52l.58.25h0L50.52,74c.89.86,2.31,2.57,2.31,3.53,0,1.24-2.31,3.59-6.93,3.84-2.34.11-3.47-2.31-4.53-4.67-.93-2.06-1.8-4-3.53-4.26S33.76,73.67,32,75.67a37.54,37.54,0,0,0-3.24-5.37c-1.05-1.33-2.94-2-5.33-1.73a14.24,14.24,0,0,0-4,1,20.87,20.87,0,0,0-6.65-2.67,13.9,13.9,0,0,0-1.35-4,7.94,7.94,0,0,0,2.13.64l3.23.44a4.53,4.53,0,0,0,5.07-3.9l1.24-9.52a4.55,4.55,0,0,0-3.9-5.07L9.67,44.27C8.89,40,8.15,35.35,8.73,31h0c.58-4.4,2.49-8.72,4.34-12.64l9.47,1.26a4.55,4.55,0,0,0,5.07-3.9h0l1.23-9.51a4.53,4.53,0,0,0-3.9-5.07L21.71.68A7.33,7.33,0,0,0,18.39,1L14.9,2.21,12.49,3l-1.14.39A3,3,0,0,0,9.82,4.6h0C6.49,9.65,2.58,19.36,1.2,30v.08C-.17,40.62,1.11,51,3,56.69a3,3,0,0,0,1.2,1.55l1,.66,2.13,1.41L9.7,61.88c.2.34.45.78.72,1.3a14.38,14.38,0,0,1,1.27,3.48C10.41,66.38,9.14,66.17,8,66a5.4,5.4,0,0,0-5.49,2.26,3,3,0,0,0,0,3.27c.55.79,2,2,5.81,1.33,2.18-.39,3.61-1.37,4.24-2.9a5.28,5.28,0,0,0,.36-2,20.74,20.74,0,0,1,5.48,2.11,9.83,9.83,0,0,0-4.23,3.64,2.31,2.31,0,0,0-.1,2.52,3.1,3.1,0,0,0,3.09.9,5.3,5.3,0,0,0,4.31-3.28A3,3,0,0,0,21,71.19a4.27,4.27,0,0,0-.75-.89,13,13,0,0,1,3.19-.74c2-.18,3.62.31,4.45,1.36a32.86,32.86,0,0,1,3.33,5.59,9,9,0,0,0-1.47,2.71,3.11,3.11,0,0,0,1.62,4.09h0a3.26,3.26,0,0,0,1.33.36,1.2,1.2,0,0,0,1-.45c.84-1.06,0-3.82-1.32-6.58,1.65-1.93,4-3.43,5.25-3.25s2,1.89,2.78,3.69c1.14,2.54,2.46,5.43,5.5,5.26,5.14-.27,7.87-3,7.87-4.84,0-1.11-1-2.47-1.78-3.36l.53.24.81.36a2.08,2.08,0,0,0,1.41.08h0C59,73.51,65.85,69.7,71.77,64h0C77.65,58.32,82,51.42,83.67,47A2.6,2.6,0,0,0,83.77,45.44ZM8.16,59.05,6,57.64,5,57H5a1.46,1.46,0,0,1-.58-.76h0C2.61,50.83,1.3,40.54,2.65,30.18S7.9,10.18,11,5.45a1.5,1.5,0,0,1,.76-.6h0l1.2-.4,2.41-.82L18.9,2.45a6.16,6.16,0,0,1,2.66-.28h0l3.22.4A3,3,0,0,1,27.35,6l-1.24,9.51a3,3,0,0,1-3.35,2.6h0L22.05,18l1-7.75A.43.43,0,0,0,23,10a.38.38,0,0,0-.52-.08h0a.38.38,0,0,0-.14.26l-1,7.74-8.61-1.14a.74.74,0,0,0-.78.42c-1.92,4.07-4,8.71-4.68,13.59s.22,9.91,1,14.34a.75.75,0,0,0,.65.61L19,47a3,3,0,0,1,2.6,3.35v0l-1.24,9.51A3,3,0,0,1,17,62.49h0l-.68-.09,1-7.74a.38.38,0,0,0-.6-.36.39.39,0,0,0-.15.26l-1,7.74L13.73,62h0a6,6,0,0,1-2.5-1Zm3.38,10.56c-.49,1.2-1.66,2-3.49,2.3-2.36.43-4.11.1-4.8-.91a2,2,0,0,1,.06-2.2A4.22,4.22,0,0,1,7,67c.26,0,.53,0,.79,0,1.31.16,2.67.39,4,.69A4.47,4.47,0,0,1,11.54,69.61Zm8.9,3.91a4.33,4.33,0,0,1-3.51,2.61,2.29,2.29,0,0,1-2.13-.48,1.52,1.52,0,0,1,.2-1.48,9.15,9.15,0,0,1,4.29-3.45,4.42,4.42,0,0,1,.93,1A2,2,0,0,1,20.44,73.52ZM33,82.6c-.12.16-.55.09-1.11-.18a2.14,2.14,0,0,1-1.17-2.78l.06-.13a6.82,6.82,0,0,1,1-2C32.78,79.94,33.41,82.05,33,82.6ZM82.65,46.52h0A52.2,52.2,0,0,1,71,63.14c-5.78,5.54-12.48,9.29-16.49,10.53a1.05,1.05,0,0,1-.7,0h0l-.8-.36-1.71-.76L48.82,71.4a4.3,4.3,0,0,1-1.59-1.21h0l-1.57-1.92a2.55,2.55,0,0,1,.21-3.39l5.28-5.09a2.06,2.06,0,0,1,2.91,0,1.29,1.29,0,0,1,.19.21l.33.41-4.29,4.14a.31.31,0,0,0,.15.53.32.32,0,0,0,.21-.08l4.29-4.14L59.09,66a.52.52,0,0,0,.63.15,33.87,33.87,0,0,0,9.12-5.75c2.71-2.61,4.66-6.09,6.36-9.18a.64.64,0,0,0-.06-.7l-4.87-6a2.55,2.55,0,0,1,.21-3.39l5.27-5.08a2.05,2.05,0,0,1,2.9,0,2.2,2.2,0,0,1,.2.23l.33.41L74.89,40.8a.32.32,0,0,0-.1.21.29.29,0,0,0,.26.32h0a.3.3,0,0,0,.2-.08l4.29-4.14.86,1.08h0a4.71,4.71,0,0,1,.9,1.87l.7,2.83c.17.7.35,1.41.48,2s.24,1,.22.91h0A1.18,1.18,0,0,1,82.65,46.52Z" transform="translate(0 0.01)" fill="#bf3d96" stroke="#bf3d96" stroke-linecap="round" stroke-miterlimit="10" stroke-width="1.25" opacity="0.5" style="isolation:isolate"/><path d="M17.11,52.86a.38.38,0,0,0,.43-.32h0l.28-2.11a.43.43,0,0,0-.07-.29.38.38,0,0,0-.53-.06.37.37,0,0,0-.15.25l-.27,2.12A.39.39,0,0,0,17.11,52.86Z" transform="translate(0 0.01)" fill="#bf3d96" stroke="#bf3d96" stroke-linecap="round" stroke-miterlimit="10" stroke-width="1.25" opacity="0.5" style="isolation:isolate"/><path d="M22.9,8.45a.38.38,0,0,0,.43-.32h0L23.61,6a.4.4,0,0,0-.08-.28A.38.38,0,0,0,23,5.63a.39.39,0,0,0-.15.28L22.58,8a.38.38,0,0,0,.3.45Z" transform="translate(0 0.01)" fill="#bf3d96" stroke="#bf3d96" stroke-linecap="round" stroke-miterlimit="10" stroke-width="1.25" opacity="0.5" style="isolation:isolate"/></svg>