<svg xmlns="http://www.w3.org/2000/svg" width="92.07" height="85.89" viewBox="0 0 92.07 85.89"><path d="M10.89,0A8.84,8.84,0,0,0,2,8.79V77a8.84,8.84,0,0,0,8.82,8.86H31.34a2,2,0,0,0,0-4.09H10.89a4.74,4.74,0,0,1-4.77-4.71V23.18H83.83v47a2,2,0,0,0,4.09,0V8.86A8.84,8.84,0,0,0,79.1,0H10.89Zm0,4.09H79.06A4.74,4.74,0,0,1,83.83,8.8V19.09H6.12V8.86a4.74,4.74,0,0,1,4.71-4.77Zm2.73,5.45a2,2,0,0,0,0,4.09h2.72a2,2,0,1,0,0-4.09Zm10.9,0a2,2,0,0,0,0,4.09h2.73a2,2,0,1,0,0-4.09ZM45,81.8a2,2,0,0,0,0,4.09h6.82a2,2,0,0,0,0-4.09Z" transform="translate(0 0)" fill="#bf3d96" opacity="0.5" style="isolation:isolate"/><path d="M27.36,49.89C31.9,57.37,31.91,61,31.91,61h0s-.19-.09-.41-.17a30.25,30.25,0,0,0-6.88-1.7c-1.07-.15-2.26-.27-3.53-.32C22,53.13,27.36,49.89,27.36,49.89Z" transform="translate(0 0)" fill="#37474f"/><path d="M10.82,65a33.31,33.31,0,0,0-1.35,3.29A29.87,29.87,0,0,0,7.8,75.21v.44h0S4.54,74,0,66.49C0,66.49,5.34,63.25,10.82,65Z" transform="translate(0 0)" fill="#37474f"/><path d="M27.89,79.69a22.91,22.91,0,0,0,10.58-15c-5.77-7.46-15.67-9.93-23.13-5.41S5.55,73.52,9.36,82A23,23,0,0,0,27.89,79.69Z" transform="translate(0 0)" fill="#455a64"/><ellipse cx="25.79" cy="76.23" rx="7" ry="3.96" transform="translate(-35.8 24.43) rotate(-31.24)" fill="#cfd8dc"/><path d="M25.9,71.06c.27.45-.1,3.39-.89,3.87s-3.58-.55-3.85-1,.57-1.45,1.87-2.25S25.62,70.61,25.9,71.06Z" transform="translate(0 0)" fill="#263238"/><path d="M25.6,62.37s2.4,3.21.36,4.45l-1.71,1s-2.46-3.19-.36-4.46Z" transform="translate(0 0)" fill="#ffeb3b"/><path d="M13.59,69.65s1.64,3.66,3.77,2.37l1.7-1s-1.64-3.66-3.77-2.37Z" transform="translate(0 0)" fill="#ffeb3b"/><path d="M85.17,20.47a4.14,4.14,0,0,1,4,.35c3.49,2.33,3.51,12.36,1.74,15S84.4,40.12,80.31,34" transform="translate(0 0)" fill="#de8400"/><path d="M56.35,18.08c-7.21-1.45-7.48-6.45-5.71-9.09s11-6.44,14.54-4.11A4.16,4.16,0,0,1,67,8.43" transform="translate(0 0)" fill="#de8400"/><path d="M80.43,35.35a14.92,14.92,0,0,0,2.72-3c4.68-7,2.49-16.66-4.88-21.6S61.13,7.47,56.45,14.46a14.64,14.64,0,0,0-1.76,3.65,12.54,12.54,0,0,0-8.12,5.32c-4,5.94-2.12,14.16,4.14,18.35L60.06,48c6.27,4.2,14.57,2.78,18.55-3.16A12.52,12.52,0,0,0,80.43,35.35Z" transform="translate(0 0)" fill="#ff9800"/><path d="M63.46,32.85c-5.58-3.74-12.18-3.68-14.73.13a7.27,7.27,0,0,0-.3,6.88,13.49,13.49,0,0,0,2.28,1.92L60.06,48a14.45,14.45,0,0,0,2.64,1.39A7.28,7.28,0,0,0,69,46.53C71.51,42.72,69.05,36.59,63.46,32.85Z" transform="translate(0 0)" fill="#ffde94"/><rect x="52.77" y="37.51" width="12.1" height="4.84" transform="translate(-7.09 66.58) rotate(-56.19)" fill="#6d350f"/><path d="M66.52,35.73c-.42.64-3.85,2.42-5.75,1.14s-1.56-5.12-1.14-5.75S62,31,63.85,32.28,67,35.1,66.52,35.73Z" transform="translate(0 0)" fill="#6d350f"/><circle cx="73.59" cy="30.9" r="2.42" fill="#3e2723"/><circle cx="61.53" cy="22.82" r="2.42" fill="#3e2723"/><path d="M37.35,29.4a15.23,15.23,0,1,0,9.38,26.92l15,15A1.62,1.62,0,1,0,64,69L49,54A15.22,15.22,0,0,0,38.24,29.45C37.94,29.42,37.64,29.41,37.35,29.4ZM37,32.71a12,12,0,1,1-12,12A12,12,0,0,1,37,32.71Z" transform="translate(0 0)" fill="#bf3d96" opacity="0.5" style="isolation:isolate"/></svg>