<svg xmlns="http://www.w3.org/2000/svg" xmlns:xlink="http://www.w3.org/1999/xlink" width="91.79" height="89.47" viewBox="0 0 91.79 89.47"><defs><linearGradient id="a" x1="38.64" y1="48.63" x2="71.97" y2="48.63" gradientTransform="matrix(1, 0, 0, -1, 0, 92)" gradientUnits="userSpaceOnUse"><stop offset="0" stop-color="#ff9800"/><stop offset="0.65" stop-color="#fe6464"/><stop offset="0.76" stop-color="#fc6581"/><stop offset="0.89" stop-color="#fa6694"/><stop offset="0.99" stop-color="#fa669a"/><stop offset="1" stop-color="#fa669a"/></linearGradient></defs><path d="M45.9,0a3.24,3.24,0,0,0-2.25.87L1,37a3.31,3.31,0,0,0-1,2.37v5.29a3.29,3.29,0,0,0,3.29,3.27,3.25,3.25,0,0,0,2.18-.84l1.08-.91v40a3.28,3.28,0,0,0,3.28,3.28H32.76A3.28,3.28,0,0,0,36,86.19V66H55.7V86.19A3.28,3.28,0,0,0,59,89.47h7.54a3.25,3.25,0,0,0,2.31-1l15.4-15.38a3.27,3.27,0,0,0,1-2.32v-23l1,.89a3.26,3.26,0,0,0,2.27.92,3.38,3.38,0,0,0,1.29-.26,3.28,3.28,0,0,0,2-3V41a3.34,3.34,0,0,0-1.06-2.41L48.14.91A3.29,3.29,0,0,0,45.9,0Zm0,3.32L88.46,41v5.25L48,10.55a3.28,3.28,0,0,0-4.28-.05L3.28,44.68,3.2,39.45,45.8,3.34h.08ZM45.84,13,82,44.94a1.59,1.59,0,0,0-.06.3V69.81H68.8a3.28,3.28,0,0,0-3.27,3.28v13.1H59V66a3.26,3.26,0,0,0-3.27-3.27H36A3.28,3.28,0,0,0,32.76,66V86.19H9.83V43.45Zm23,60.09H79.59L68.8,83.88Z" transform="translate(0 0)" fill="#bf3d96" opacity="0.5" style="isolation:isolate"/><path d="M31.46,36.83A7.46,7.46,0,0,0,29,43.43a7.44,7.44,0,0,0-7.55,12.09c4.89,5.58,20.08,2.2,20.08,2.2s5.37-14.59.44-20.2a7.44,7.44,0,0,0-10.5-.7h0" transform="translate(0 0)" fill="#ff9800" opacity="0.3" style="isolation:isolate"/><path d="M66.9,35.32a9.87,9.87,0,0,0-8.78-.46.21.21,0,0,1-.28-.1v0a9.89,9.89,0,1,0-18.24,7.6l7.26,15.09a1.92,1.92,0,0,0,2.31,1l16-5.08a9.89,9.89,0,0,0,1.79-18Z" transform="translate(0 0)" fill="url(#a)"/></svg>